<ttFont>
    <TTGlyph name=".notdef" xMin="68" yMin="0" xMax="612" yMax="1365">
      <contour>
        <pt x="68" y="0" on="1"/>
        <pt x="68" y="1365" on="1"/>
        <pt x="612" y="1365" on="1"/>
        <pt x="612" y="0" on="1"/>
      </contour>
      <contour>
        <pt x="136" y="68" on="1"/>
        <pt x="544" y="68" on="1"/>
        <pt x="544" y="1297" on="1"/>
        <pt x="136" y="1297" on="1"/>
      </contour>
    </TTGlyph>
    <TTGlyph name="A" xMin="9" yMin="0" xMax="1108" yMax="1800">
      <contour>
        <pt x="465" y="609" on="1"/>
        <pt x="651" y="609" on="1"/>
        <pt x="560" y="1277" on="1"/>
      </contour>
      <contour>
        <pt x="9" y="0" on="1"/>
        <pt x="398" y="1800" on="1"/>
        <pt x="720" y="1800" on="1"/>
        <pt x="1108" y="0" on="1"/>
        <pt x="749" y="0" on="1"/>
        <pt x="675" y="385" on="1"/>
        <pt x="440" y="385" on="1"/>
        <pt x="370" y="0" on="1"/>
      </contour>
    </TTGlyph>
    <TTGlyph name="AE" xMin="44" yMin="0" xMax="1578" yMax="1800">
      <contour>
        <pt x="643" y="609" on="1"/>
        <pt x="854" y="609" on="1"/>
        <pt x="854" y="1183" on="1"/>
      </contour>
      <contour>
        <pt x="44" y="0" on="1"/>
        <pt x="817" y="1800" on="1"/>
        <pt x="1578" y="1800" on="1"/>
        <pt x="1578" y="1550" on="1"/>
        <pt x="1191" y="1550" on="1"/>
        <pt x="1191" y="1060" on="1"/>
        <pt x="1465" y="1060" on="1"/>
        <pt x="1465" y="804" on="1"/>
        <pt x="1191" y="804" on="1"/>
        <pt x="1191" y="250" on="1"/>
        <pt x="1578" y="250" on="1"/>
        <pt x="1578" y="0" on="1"/>
        <pt x="854" y="0" on="1"/>
        <pt x="854" y="385" on="1"/>
        <pt x="570" y="385" on="1"/>
        <pt x="428" y="0" on="1"/>
      </contour>
    </TTGlyph>
    <TTGlyph name="Aacute" xMin="9" yMin="0" xMax="1108" yMax="2379">
      <component glyphName="A" x="0" y="0" flags="0x1004"/>
      <component glyphName="acute" x="352" y="544" flags="0x1004"/>
    </TTGlyph>
    <TTGlyph name="Abreve" xMin="9" yMin="0" xMax="1108" yMax="2185">
      <component glyphName="A" x="0" y="0" flags="0x1004"/>
      <component glyphName="breve" x="220" y="499" flags="0x1004"/>
    </TTGlyph>
    <TTGlyph name="Acircumflex" xMin="9" yMin="0" xMax="1108" yMax="2343">
      <component glyphName="A" x="0" y="0" flags="0x1004"/>
      <component glyphName="circumflex" x="112" y="544" flags="0x1004"/>
    </TTGlyph>
    <TTGlyph name="Adieresis" xMin="9" yMin="0" xMax="1108" yMax="2245">
      <component glyphName="A" x="0" y="0" flags="0x1004"/>
      <component glyphName="dieresis" x="73" y="445" flags="0x1004"/>
    </TTGlyph>
    <TTGlyph name="Agrave" xMin="9" yMin="0" xMax="1108" yMax="2379">
      <component glyphName="A" x="0" y="0" flags="0x1004"/>
      <component glyphName="grave" x="112" y="544" flags="0x1004"/>
    </TTGlyph>
    <TTGlyph name="Amacron" xMin="9" yMin="0" xMax="1108" yMax="2130">
      <component glyphName="A" x="0" y="0" flags="0x1004"/>
      <component glyphName="macron" x="350" y="480" flags="0x1004"/>
    </TTGlyph>
    <TTGlyph name="Aogonek" xMin="9" yMin="-519" xMax="1108" yMax="1800">
      <component glyphName="A" x="0" y="0" flags="0x1004"/>
      <component glyphName="ogonek" x="578" y="2" flags="0x1004"/>
    </TTGlyph>
    <TTGlyph name="Aring" xMin="9" yMin="0" xMax="1108" yMax="2327">
      <component glyphName="A" x="0" y="0" flags="0x1004"/>
      <component glyphName="ring" x="216" y="411" flags="0x1004"/>
    </TTGlyph>
    <TTGlyph name="Atilde" xMin="9" yMin="0" xMax="1108" yMax="2247">
      <component glyphName="A" x="0" y="0" flags="0x1004"/>
      <component glyphName="tilde" x="108" y="518" flags="0x1004"/>
    </TTGlyph>
    <TTGlyph name="B" xMin="107" yMin="0" xMax="1078" yMax="1800">
      <contour>
        <pt x="471" y="257" on="1"/>
        <pt x="505" y="257" on="1"/>
        <pt x="576" y="257" on="0"/>
        <pt x="664" y="290" on="0"/>
        <pt x="710" y="370" on="0"/>
        <pt x="725" y="471" on="0"/>
        <pt x="725" y="556" on="1"/>
        <pt x="725" y="697" on="0"/>
        <pt x="626" y="853" on="0"/>
        <pt x="507" y="853" on="1"/>
        <pt x="471" y="853" on="1"/>
      </contour>
      <contour>
        <pt x="469" y="1092" on="1"/>
        <pt x="531" y="1092" on="1"/>
        <pt x="581" y="1092" on="0"/>
        <pt x="649" y="1130" on="0"/>
        <pt x="684" y="1203" on="0"/>
        <pt x="698" y="1287" on="0"/>
        <pt x="698" y="1344" on="1"/>
        <pt x="698" y="1389" on="0"/>
        <pt x="685" y="1457" on="0"/>
        <pt x="669" y="1502" on="0"/>
        <pt x="631" y="1533" on="0"/>
        <pt x="602" y="1548" on="0"/>
        <pt x="543" y="1555" on="0"/>
        <pt x="507" y="1556" on="0"/>
        <pt x="469" y="1556" on="1"/>
      </contour>
      <contour>
        <pt x="107" y="0" on="1"/>
        <pt x="107" y="1800" on="1"/>
        <pt x="478" y="1800" on="1"/>
        <pt x="578" y="1800" on="0"/>
        <pt x="731" y="1779" on="0"/>
        <pt x="878" y="1718" on="0"/>
        <pt x="973" y="1616" on="0"/>
        <pt x="1030" y="1449" on="0"/>
        <pt x="1030" y="1335" on="1"/>
        <pt x="1030" y="1194" on="0"/>
        <pt x="897" y="1032" on="0"/>
        <pt x="757" y="985" on="1"/>
        <pt x="1078" y="907" on="0"/>
        <pt x="1078" y="531" on="1"/>
        <pt x="1078" y="260" on="0"/>
        <pt x="818" y="0" on="0"/>
        <pt x="551" y="0" on="1"/>
      </contour>
    </TTGlyph>
    <TTGlyph name="C" xMin="84" yMin="-35" xMax="1111" yMax="1835">
      <contour>
        <pt x="84" y="601" on="1"/>
        <pt x="84" y="1197" on="1"/>
        <pt x="84" y="1835" on="0"/>
        <pt x="606" y="1835" on="1"/>
        <pt x="716" y="1835" on="0"/>
        <pt x="887" y="1776" on="0"/>
        <pt x="1003" y="1672" on="0"/>
        <pt x="1078" y="1520" on="0"/>
        <pt x="1111" y="1342" on="0"/>
        <pt x="1111" y="1235" on="1"/>
        <pt x="1111" y="1080" on="1"/>
        <pt x="753" y="1080" on="1"/>
        <pt x="753" y="1246" on="1"/>
        <pt x="753" y="1295" on="0"/>
        <pt x="749" y="1366" on="0"/>
        <pt x="732" y="1457" on="0"/>
        <pt x="703" y="1514" on="0"/>
        <pt x="646" y="1554" on="0"/>
        <pt x="606" y="1554" on="1"/>
        <pt x="448" y="1554" on="0"/>
        <pt x="448" y="1288" on="1"/>
        <pt x="448" y="511" on="1"/>
        <pt x="448" y="246" on="0"/>
        <pt x="606" y="246" on="1"/>
        <pt x="653" y="246" on="0"/>
        <pt x="717" y="300" on="0"/>
        <pt x="745" y="399" on="0"/>
        <pt x="755" y="494" on="0"/>
        <pt x="755" y="555" on="1"/>
        <pt x="755" y="740" on="1"/>
        <pt x="1111" y="740" on="1"/>
        <pt x="1111" y="588" on="1"/>
        <pt x="1109" y="485" on="0"/>
        <pt x="1079" y="311" on="0"/>
        <pt x="1007" y="147" on="0"/>
        <pt x="896" y="34" on="0"/>
        <pt x="720" y="-35" on="0"/>
        <pt x="606" y="-35" on="1"/>
        <pt x="489" y="-35" on="0"/>
        <pt x="308" y="32" on="0"/>
        <pt x="191" y="145" on="0"/>
        <pt x="115" y="310" on="0"/>
        <pt x="84" y="492" on="0"/>
      </contour>
    </TTGlyph>
    <TTGlyph name="Cacute" xMin="84" yMin="-35" xMax="1111" yMax="2379">
      <component glyphName="C" x="0" y="0" flags="0x1004"/>
      <component glyphName="acute" x="382" y="544" flags="0x1004"/>
    </TTGlyph>
    <TTGlyph name="Ccaron" xMin="84" yMin="-35" xMax="1111" yMax="2343">
      <component glyphName="C" x="0" y="0" flags="0x1004"/>
      <component glyphName="caron" x="169" y="552" flags="0x1004"/>
    </TTGlyph>
    <TTGlyph name="Ccedilla" xMin="84" yMin="-577" xMax="1111" yMax="1835">
      <component glyphName="C" x="0" y="0" flags="0x1004"/>
      <component glyphName="cedilla" x="324" y="-16" flags="0x1004"/>
    </TTGlyph>
    <TTGlyph name="Ccircumflex" xMin="84" yMin="-35" xMax="1111" yMax="2343">
      <component glyphName="C" x="0" y="0" flags="0x1004"/>
      <component glyphName="circumflex" x="142" y="544" flags="0x1004"/>
    </TTGlyph>
    <TTGlyph name="Cdotaccent" xMin="84" yMin="-35" xMax="1111" yMax="2255">
      <component glyphName="C" x="0" y="0" flags="0x1004"/>
      <component glyphName="dotaccent" x="290" y="438" flags="0x1004"/>
    </TTGlyph>
    <TTGlyph name="D" xMin="107" yMin="0" xMax="1080" yMax="1800">
      <contour>
        <pt x="107" y="0" on="1"/>
        <pt x="107" y="1800" on="1"/>
        <pt x="483" y="1800" on="1"/>
        <pt x="663" y="1800" on="0"/>
        <pt x="896" y="1735" on="0"/>
        <pt x="1029" y="1586" on="0"/>
        <pt x="1080" y="1378" on="0"/>
        <pt x="1080" y="1217" on="1"/>
        <pt x="1080" y="627" on="1"/>
        <pt x="1080" y="531" on="0"/>
        <pt x="1068" y="388" on="0"/>
        <pt x="1035" y="251" on="0"/>
        <pt x="978" y="156" on="0"/>
        <pt x="888" y="74" on="0"/>
        <pt x="761" y="26" on="0"/>
        <pt x="590" y="0" on="0"/>
        <pt x="479" y="0" on="1"/>
      </contour>
      <contour>
        <pt x="485" y="255" on="1"/>
        <pt x="537" y="255" on="0"/>
        <pt x="597" y="258" on="0"/>
        <pt x="657" y="270" on="0"/>
        <pt x="685" y="291" on="0"/>
        <pt x="709" y="331" on="0"/>
        <pt x="716" y="386" on="0"/>
        <pt x="716" y="427" on="1"/>
        <pt x="716" y="1396" on="1"/>
        <pt x="716" y="1485" on="0"/>
        <pt x="610" y="1543" on="0"/>
        <pt x="485" y="1544" on="1"/>
      </contour>
    </TTGlyph>
    <TTGlyph name="Dcaron" xMin="107" yMin="0" xMax="1080" yMax="2343">
      <component glyphName="D" x="0" y="0" flags="0x1004"/>
      <component glyphName="caron" x="165" y="552" flags="0x1004"/>
    </TTGlyph>
    <TTGlyph name="Dcroat" xMin="5" yMin="0" xMax="1070" yMax="1800">
      <component glyphName="Eth" x="0" y="0" flags="0x1004"/>
    </TTGlyph>
    <TTGlyph name="Delta" xMin="79" yMin="0" xMax="977" yMax="1643">
      <contour>
        <pt x="79" y="0" on="1"/>
        <pt x="399" y="1643" on="1"/>
        <pt x="657" y="1643" on="1"/>
        <pt x="977" y="0" on="1"/>
      </contour>
      <contour>
        <pt x="376" y="192" on="1"/>
        <pt x="679" y="192" on="1"/>
        <pt x="527" y="1259" on="1"/>
      </contour>
    </TTGlyph>
    <TTGlyph name="E" xMin="107" yMin="0" xMax="858" yMax="1800">
      <contour>
        <pt x="107" y="0" on="1"/>
        <pt x="107" y="1800" on="1"/>
        <pt x="858" y="1800" on="1"/>
        <pt x="858" y="1550" on="1"/>
        <pt x="471" y="1550" on="1"/>
        <pt x="471" y="1060" on="1"/>
        <pt x="745" y="1060" on="1"/>
        <pt x="745" y="804" on="1"/>
        <pt x="471" y="804" on="1"/>
        <pt x="471" y="250" on="1"/>
        <pt x="858" y="250" on="1"/>
        <pt x="858" y="0" on="1"/>
      </contour>
    </TTGlyph>
    <TTGlyph name="Eacute" xMin="107" yMin="0" xMax="862" yMax="2379">
      <component glyphName="E" x="0" y="0" flags="0x1004"/>
      <component glyphName="acute" x="268" y="544" flags="0x1004"/>
    </TTGlyph>
    <TTGlyph name="Ecaron" xMin="107" yMin="0" xMax="858" yMax="2343">
      <component glyphName="E" x="0" y="0" flags="0x1004"/>
      <component glyphName="caron" x="54" y="552" flags="0x1004"/>
    </TTGlyph>
    <TTGlyph name="Ecircumflex" xMin="107" yMin="0" xMax="858" yMax="2343">
      <component glyphName="E" x="0" y="0" flags="0x1004"/>
      <component glyphName="circumflex" x="27" y="544" flags="0x1004"/>
    </TTGlyph>
    <TTGlyph name="Edieresis" xMin="104" yMin="0" xMax="861" yMax="2245">
      <component glyphName="E" x="0" y="0" flags="0x1004"/>
      <component glyphName="dieresis" x="-12" y="445" flags="0x1004"/>
    </TTGlyph>
    <TTGlyph name="Edotaccent" xMin="107" yMin="0" xMax="858" yMax="2275">
      <component glyphName="dotaccent" x="175" y="458" flags="0x1004"/>
      <component glyphName="E" x="0" y="0" flags="0x1204"/>
    </TTGlyph>
    <TTGlyph name="Egrave" xMin="103" yMin="0" xMax="858" yMax="2379">
      <component glyphName="E" x="0" y="0" flags="0x1004"/>
      <component glyphName="grave" x="27" y="544" flags="0x1004"/>
    </TTGlyph>
    <TTGlyph name="Emacron" xMin="107" yMin="0" xMax="858" yMax="2130">
      <component glyphName="E" x="0" y="0" flags="0x1004"/>
      <component glyphName="macron" x="265" y="480" flags="0x1004"/>
    </TTGlyph>
    <TTGlyph name="Eogonek" xMin="107" yMin="-519" xMax="858" yMax="1800">
      <component glyphName="E" x="0" y="0" flags="0x1004"/>
      <component glyphName="ogonek" x="284" y="2" flags="0x1004"/>
    </TTGlyph>
    <TTGlyph name="Eth" xMin="5" yMin="0" xMax="1070" yMax="1800">
      <contour>
        <pt x="461" y="255" on="1"/>
        <pt x="476" y="255" on="1"/>
        <pt x="526" y="255" on="0"/>
        <pt x="586" y="259" on="0"/>
        <pt x="644" y="271" on="0"/>
        <pt x="674" y="292" on="0"/>
        <pt x="698" y="332" on="0"/>
        <pt x="706" y="386" on="0"/>
        <pt x="706" y="427" on="1"/>
        <pt x="706" y="1396" on="1"/>
        <pt x="706" y="1486" on="0"/>
        <pt x="599" y="1543" on="0"/>
        <pt x="472" y="1544" on="1"/>
        <pt x="461" y="1544" on="1"/>
        <pt x="461" y="1012" on="1"/>
        <pt x="585" y="1012" on="1"/>
        <pt x="585" y="829" on="1"/>
        <pt x="461" y="829" on="1"/>
      </contour>
      <contour>
        <pt x="97" y="0" on="1"/>
        <pt x="97" y="829" on="1"/>
        <pt x="5" y="829" on="1"/>
        <pt x="5" y="1012" on="1"/>
        <pt x="97" y="1012" on="1"/>
        <pt x="97" y="1800" on="1"/>
        <pt x="473" y="1800" on="1"/>
        <pt x="653" y="1800" on="0"/>
        <pt x="886" y="1735" on="0"/>
        <pt x="1019" y="1586" on="0"/>
        <pt x="1070" y="1378" on="0"/>
        <pt x="1070" y="1217" on="1"/>
        <pt x="1070" y="627" on="1"/>
        <pt x="1070" y="531" on="0"/>
        <pt x="1058" y="388" on="0"/>
        <pt x="1025" y="251" on="0"/>
        <pt x="968" y="156" on="0"/>
        <pt x="878" y="74" on="0"/>
        <pt x="751" y="26" on="0"/>
        <pt x="580" y="0" on="0"/>
        <pt x="469" y="0" on="1"/>
      </contour>
    </TTGlyph>
    <TTGlyph name="Euro" xMin="7" yMin="-27" xMax="955" yMax="1583">
      <contour>
        <pt x="7" y="514" on="1"/>
        <pt x="7" y="710" on="1"/>
        <pt x="76" y="710" on="1"/>
        <pt x="76" y="837" on="1"/>
        <pt x="7" y="837" on="1"/>
        <pt x="7" y="1034" on="1"/>
        <pt x="79" y="1034" on="1"/>
        <pt x="79" y="1041" on="1"/>
        <pt x="84" y="1135" on="0"/>
        <pt x="110" y="1284" on="0"/>
        <pt x="171" y="1428" on="0"/>
        <pt x="265" y="1524" on="0"/>
        <pt x="415" y="1583" on="0"/>
        <pt x="613" y="1583" on="0"/>
        <pt x="766" y="1525" on="0"/>
        <pt x="862" y="1427" on="0"/>
        <pt x="924" y="1284" on="0"/>
        <pt x="949" y="1130" on="0"/>
        <pt x="950" y="1037" on="1"/>
        <pt x="950" y="1031" on="1"/>
        <pt x="668" y="1031" on="1"/>
        <pt x="668" y="1038" on="1"/>
        <pt x="668" y="1073" on="0"/>
        <pt x="663" y="1137" on="0"/>
        <pt x="644" y="1222" on="0"/>
        <pt x="614" y="1282" on="0"/>
        <pt x="557" y="1325" on="0"/>
        <pt x="519" y="1325" on="1"/>
        <pt x="487" y="1325" on="0"/>
        <pt x="436" y="1306" on="0"/>
        <pt x="403" y="1280" on="0"/>
        <pt x="380" y="1231" on="0"/>
        <pt x="369" y="1193" on="0"/>
        <pt x="362" y="1126" on="0"/>
        <pt x="361" y="1089" on="0"/>
        <pt x="361" y="1053" on="1"/>
        <pt x="361" y="1044" on="0"/>
        <pt x="361" y="1040" on="1"/>
        <pt x="361" y="1034" on="1"/>
        <pt x="560" y="1034" on="1"/>
        <pt x="560" y="837" on="1"/>
        <pt x="361" y="837" on="1"/>
        <pt x="361" y="710" on="1"/>
        <pt x="560" y="710" on="1"/>
        <pt x="560" y="514" on="1"/>
        <pt x="364" y="514" on="1"/>
        <pt x="364" y="509" on="1"/>
        <pt x="366" y="475" on="0"/>
        <pt x="368" y="439" on="0"/>
        <pt x="377" y="372" on="0"/>
        <pt x="390" y="333" on="0"/>
        <pt x="414" y="283" on="0"/>
        <pt x="446" y="256" on="0"/>
        <pt x="495" y="236" on="0"/>
        <pt x="526" y="236" on="1"/>
        <pt x="677" y="236" on="0"/>
        <pt x="677" y="570" on="1"/>
        <pt x="677" y="576" on="1"/>
        <pt x="955" y="576" on="1"/>
        <pt x="955" y="568" on="1"/>
        <pt x="955" y="471" on="0"/>
        <pt x="934" y="312" on="0"/>
        <pt x="876" y="151" on="0"/>
        <pt x="783" y="42" on="0"/>
        <pt x="625" y="-27" on="0"/>
        <pt x="521" y="-27" on="1"/>
        <pt x="397" y="-27" on="0"/>
        <pt x="223" y="54" on="0"/>
        <pt x="126" y="206" on="0"/>
        <pt x="82" y="387" on="0"/>
        <pt x="77" y="506" on="1"/>
        <pt x="77" y="514" on="1"/>
      </contour>
    </TTGlyph>
    <TTGlyph name="F" xMin="107" yMin="0" xMax="858" yMax="1800">
      <contour>
        <pt x="107" y="0" on="1"/>
        <pt x="107" y="1800" on="1"/>
        <pt x="858" y="1800" on="1"/>
        <pt x="858" y="1550" on="1"/>
        <pt x="471" y="1550" on="1"/>
        <pt x="471" y="1060" on="1"/>
        <pt x="745" y="1060" on="1"/>
        <pt x="745" y="804" on="1"/>
        <pt x="471" y="804" on="1"/>
        <pt x="471" y="0" on="1"/>
      </contour>
    </TTGlyph>
    <TTGlyph name="G" xMin="84" yMin="-35" xMax="1145" yMax="1835">
      <contour>
        <pt x="84" y="563" on="1"/>
        <pt x="84" y="1197" on="1"/>
        <pt x="84" y="1835" on="0"/>
        <pt x="615" y="1835" on="1"/>
        <pt x="727" y="1835" on="0"/>
        <pt x="902" y="1776" on="0"/>
        <pt x="1020" y="1672" on="0"/>
        <pt x="1096" y="1520" on="0"/>
        <pt x="1130" y="1342" on="0"/>
        <pt x="1130" y="1235" on="1"/>
        <pt x="1130" y="1129" on="1"/>
        <pt x="782" y="1129" on="1"/>
        <pt x="782" y="1255" on="1"/>
        <pt x="782" y="1302" on="0"/>
        <pt x="777" y="1373" on="0"/>
        <pt x="757" y="1460" on="0"/>
        <pt x="723" y="1516" on="0"/>
        <pt x="659" y="1554" on="0"/>
        <pt x="615" y="1554" on="1"/>
        <pt x="448" y="1554" on="0"/>
        <pt x="448" y="1288" on="1"/>
        <pt x="448" y="511" on="1"/>
        <pt x="448" y="246" on="0"/>
        <pt x="615" y="246" on="1"/>
        <pt x="781" y="246" on="0"/>
        <pt x="781" y="521" on="1"/>
        <pt x="781" y="665" on="1"/>
        <pt x="575" y="665" on="1"/>
        <pt x="575" y="926" on="1"/>
        <pt x="1145" y="926" on="1"/>
        <pt x="1145" y="0" on="1"/>
        <pt x="895" y="0" on="1"/>
        <pt x="849" y="126" on="1"/>
        <pt x="803" y="54" on="0"/>
        <pt x="633" y="-35" on="0"/>
        <pt x="543" y="-35" on="1"/>
        <pt x="446" y="-35" on="0"/>
        <pt x="287" y="36" on="0"/>
        <pt x="184" y="153" on="0"/>
        <pt x="114" y="311" on="0"/>
        <pt x="84" y="476" on="0"/>
      </contour>
    </TTGlyph>
    <TTGlyph name="Gbreve" xMin="84" yMin="-35" xMax="1145" yMax="2185">
      <component glyphName="G" x="0" y="0" flags="0x1004"/>
      <component glyphName="breve" x="266" y="499" flags="0x1004"/>
    </TTGlyph>
    <TTGlyph name="Gcircumflex" xMin="84" yMin="-35" xMax="1145" yMax="2343">
      <component glyphName="G" x="0" y="0" flags="0x1004"/>
      <component glyphName="circumflex" x="159" y="544" flags="0x1004"/>
    </TTGlyph>
    <TTGlyph name="Gcommaaccent" xMin="84" yMin="-702" xMax="1145" yMax="1835">
      <component glyphName="G" x="0" y="0" flags="0x1004"/>
      <component glyphName="uni0326" x="368" y="-59" flags="0x1004"/>
    </TTGlyph>
    <TTGlyph name="Gdotaccent" xMin="84" yMin="-35" xMax="1145" yMax="2255">
      <component glyphName="G" x="0" y="0" flags="0x1004"/>
      <component glyphName="dotaccent" x="307" y="438" flags="0x1004"/>
    </TTGlyph>
    <TTGlyph name="H" xMin="107" yMin="0" xMax="1098" yMax="1800">
      <contour>
        <pt x="107" y="0" on="1"/>
        <pt x="107" y="1800" on="1"/>
        <pt x="471" y="1800" on="1"/>
        <pt x="471" y="1062" on="1"/>
        <pt x="732" y="1062" on="1"/>
        <pt x="732" y="1800" on="1"/>
        <pt x="1098" y="1800" on="1"/>
        <pt x="1098" y="0" on="1"/>
        <pt x="732" y="0" on="1"/>
        <pt x="732" y="803" on="1"/>
        <pt x="471" y="803" on="1"/>
        <pt x="471" y="0" on="1"/>
      </contour>
    </TTGlyph>
    <TTGlyph name="Hbar" xMin="-4" yMin="0" xMax="1188" yMax="1800">
      <contour>
        <pt x="461" y="1062" on="1"/>
        <pt x="722" y="1062" on="1"/>
        <pt x="722" y="1335" on="1"/>
        <pt x="461" y="1335" on="1"/>
      </contour>
      <contour>
        <pt x="97" y="0" on="1"/>
        <pt x="97" y="1335" on="1"/>
        <pt x="-4" y="1335" on="1"/>
        <pt x="-4" y="1450" on="1"/>
        <pt x="97" y="1450" on="1"/>
        <pt x="97" y="1800" on="1"/>
        <pt x="461" y="1800" on="1"/>
        <pt x="461" y="1450" on="1"/>
        <pt x="722" y="1450" on="1"/>
        <pt x="722" y="1800" on="1"/>
        <pt x="1088" y="1800" on="1"/>
        <pt x="1088" y="1450" on="1"/>
        <pt x="1188" y="1450" on="1"/>
        <pt x="1188" y="1335" on="1"/>
        <pt x="1088" y="1335" on="1"/>
        <pt x="1088" y="0" on="1"/>
        <pt x="722" y="0" on="1"/>
        <pt x="722" y="803" on="1"/>
        <pt x="461" y="803" on="1"/>
        <pt x="461" y="0" on="1"/>
      </contour>
    </TTGlyph>
    <TTGlyph name="Hcircumflex" xMin="165" yMin="0" xMax="1094" yMax="2300">
      <contour>
        <pt x="165" y="0" on="1"/>
        <pt x="165" y="1797" on="1"/>
        <pt x="489" y="1797" on="1"/>
        <pt x="489" y="1056" on="1"/>
        <pt x="769" y="1056" on="1"/>
        <pt x="769" y="1797" on="1"/>
        <pt x="1094" y="1797" on="1"/>
        <pt x="1094" y="0" on="1"/>
        <pt x="769" y="0" on="1"/>
        <pt x="769" y="801" on="1"/>
        <pt x="489" y="801" on="1"/>
        <pt x="489" y="0" on="1"/>
      </contour>
      <contour>
        <pt x="281" y="1859" on="1"/>
        <pt x="485" y="2300" on="1"/>
        <pt x="774" y="2300" on="1"/>
        <pt x="980" y="1859" on="1"/>
        <pt x="702" y="1859" on="1"/>
        <pt x="629" y="2030" on="1"/>
        <pt x="556" y="1859" on="1"/>
      </contour>
    </TTGlyph>
    <TTGlyph name="I" xMin="107" yMin="0" xMax="471" yMax="1800">
      <contour>
        <pt x="107" y="0" on="1"/>
        <pt x="107" y="1800" on="1"/>
        <pt x="471" y="1800" on="1"/>
        <pt x="471" y="0" on="1"/>
      </contour>
    </TTGlyph>
    <TTGlyph name="IJ" xMin="107" yMin="-34" xMax="1162" yMax="1800">
      <component glyphName="J" x="578" y="0" flags="0x1004"/>
      <component glyphName="I" x="0" y="0" flags="0x1004"/>
    </TTGlyph>
    <TTGlyph name="Iacute" xMin="107" yMin="0" xMax="668" yMax="2379">
      <component glyphName="I" x="0" y="0" flags="0x1004"/>
      <component glyphName="acute" x="74" y="544" flags="0x1004"/>
    </TTGlyph>
    <TTGlyph name="Ibreve" xMin="36" yMin="0" xMax="542" yMax="2185">
      <component glyphName="I" x="0" y="0" flags="0x1004"/>
      <component glyphName="breve" x="-59" y="499" flags="0x1004"/>
    </TTGlyph>
    <TTGlyph name="Icircumflex" xMin="-59" yMin="0" xMax="638" yMax="2343">
      <component glyphName="I" x="0" y="0" flags="0x1004"/>
      <component glyphName="circumflex" x="-166" y="544" flags="0x1004"/>
    </TTGlyph>
    <TTGlyph name="Idieresis" xMin="-90" yMin="0" xMax="667" yMax="2245">
      <component glyphName="I" x="0" y="0" flags="0x1004"/>
      <component glyphName="dieresis" x="-206" y="445" flags="0x1004"/>
    </TTGlyph>
    <TTGlyph name="Idotaccent" xMin="107" yMin="0" xMax="471" yMax="2255">
      <component glyphName="I" x="0" y="0" flags="0x1004"/>
      <component glyphName="dotaccent" x="-18" y="438" flags="0x1004"/>
    </TTGlyph>
    <TTGlyph name="Igrave" xMin="-90" yMin="0" xMax="471" yMax="2379">
      <component glyphName="I" x="0" y="0" flags="0x1004"/>
      <component glyphName="grave" x="-166" y="544" flags="0x1004"/>
    </TTGlyph>
    <TTGlyph name="Imacron" xMin="36" yMin="0" xMax="543" yMax="2130">
      <component glyphName="I" x="0" y="0" flags="0x1004"/>
      <component glyphName="macron" x="72" y="480" flags="0x1004"/>
    </TTGlyph>
    <TTGlyph name="Iogonek" xMin="64" yMin="-519" xMax="484" yMax="1800">
      <component glyphName="I" x="0" y="0" flags="0x1004"/>
      <component glyphName="ogonek" x="16" y="2" flags="0x1004"/>
    </TTGlyph>
    <TTGlyph name="Itilde" xMin="-49" yMin="0" xMax="627" yMax="2247">
      <component glyphName="I" x="0" y="0" flags="0x1004"/>
      <component glyphName="tilde" x="-170" y="518" flags="0x1004"/>
    </TTGlyph>
    <TTGlyph name="J" xMin="0" yMin="-34" xMax="584" yMax="1800">
      <contour>
        <pt x="0" y="-34" on="1"/>
        <pt x="0" y="222" on="1"/>
        <pt x="132" y="220" on="0"/>
        <pt x="220" y="303" on="0"/>
        <pt x="220" y="435" on="1"/>
        <pt x="220" y="1800" on="1"/>
        <pt x="584" y="1800" on="1"/>
        <pt x="584" y="432" on="1"/>
        <pt x="584" y="333" on="0"/>
        <pt x="565" y="194" on="0"/>
        <pt x="513" y="75" on="0"/>
        <pt x="423" y="5" on="0"/>
        <pt x="280" y="-34" on="0"/>
        <pt x="179" y="-34" on="1"/>
      </contour>
    </TTGlyph>
    <TTGlyph name="Jcircumflex" xMin="0" yMin="-34" xMax="740" yMax="2343">
      <component glyphName="J" x="0" y="0" flags="0x1004"/>
      <component glyphName="circumflex" x="-64" y="544" flags="0x1004"/>
    </TTGlyph>
    <TTGlyph name="K" xMin="107" yMin="0" xMax="1187" yMax="1800">
      <contour>
        <pt x="107" y="0" on="1"/>
        <pt x="107" y="1800" on="1"/>
        <pt x="471" y="1800" on="1"/>
        <pt x="471" y="1117" on="1"/>
        <pt x="753" y="1800" on="1"/>
        <pt x="1160" y="1800" on="1"/>
        <pt x="793" y="1063" on="1"/>
        <pt x="1187" y="0" on="1"/>
        <pt x="809" y="0" on="1"/>
        <pt x="537" y="823" on="1"/>
        <pt x="471" y="653" on="1"/>
        <pt x="471" y="0" on="1"/>
      </contour>
    </TTGlyph>
    <TTGlyph name="Kcommaaccent" xMin="107" yMin="-667" xMax="1187" yMax="1800">
      <component glyphName="K" x="0" y="0" flags="0x1004"/>
      <component glyphName="uni0326" x="401" y="-24" flags="0x1004"/>
    </TTGlyph>
    <TTGlyph name="L" xMin="107" yMin="0" xMax="829" yMax="1800">
      <contour>
        <pt x="107" y="0" on="1"/>
        <pt x="107" y="1800" on="1"/>
        <pt x="471" y="1800" on="1"/>
        <pt x="471" y="250" on="1"/>
        <pt x="829" y="250" on="1"/>
        <pt x="829" y="0" on="1"/>
      </contour>
    </TTGlyph>
    <TTGlyph name="Lacute" xMin="107" yMin="0" xMax="847" yMax="2379">
      <component glyphName="L" x="0" y="0" flags="0x1004"/>
      <component glyphName="acute" x="253" y="544" flags="0x1004"/>
    </TTGlyph>
    <TTGlyph name="Lcaron" xMin="107" yMin="0" xMax="986" yMax="1835">
      <component glyphName="L" x="0" y="0" flags="0x1004"/>
      <component glyphName="comma" x="578" y="1518" flags="0x1004"/>
    </TTGlyph>
    <TTGlyph name="Lcommaaccent" xMin="107" yMin="-667" xMax="829" yMax="1800">
      <component glyphName="L" x="0" y="0" flags="0x1004"/>
      <component glyphName="uni0326" x="222" y="-24" flags="0x1004"/>
    </TTGlyph>
    <TTGlyph name="Ldot" xMin="107" yMin="0" xMax="950" yMax="1800">
      <component glyphName="L" x="0" y="0" flags="0x1004"/>
      <component glyphName="periodcentered" x="528" y="81" flags="0x1004"/>
    </TTGlyph>
    <TTGlyph name="Lslash" xMin="15" yMin="0" xMax="819" yMax="1800">
      <contour>
        <pt x="97" y="0" on="1"/>
        <pt x="97" y="887" on="1"/>
        <pt x="15" y="856" on="1"/>
        <pt x="15" y="1039" on="1"/>
        <pt x="97" y="1070" on="1"/>
        <pt x="97" y="1800" on="1"/>
        <pt x="461" y="1800" on="1"/>
        <pt x="461" y="1207" on="1"/>
        <pt x="718" y="1305" on="1"/>
        <pt x="718" y="1122" on="1"/>
        <pt x="461" y="1024" on="1"/>
        <pt x="461" y="250" on="1"/>
        <pt x="819" y="250" on="1"/>
        <pt x="819" y="0" on="1"/>
      </contour>
    </TTGlyph>
    <TTGlyph name="M" xMin="107" yMin="0" xMax="1363" yMax="1800">
      <contour>
        <pt x="107" y="0" on="1"/>
        <pt x="107" y="1800" on="1"/>
        <pt x="543" y="1800" on="1"/>
        <pt x="735" y="600" on="1"/>
        <pt x="942" y="1800" on="1"/>
        <pt x="1363" y="1800" on="1"/>
        <pt x="1363" y="0" on="1"/>
        <pt x="1095" y="0" on="1"/>
        <pt x="1087" y="1266" on="1"/>
        <pt x="1057" y="1071" on="0"/>
        <pt x="907" y="195" on="0"/>
        <pt x="877" y="0" on="1"/>
        <pt x="605" y="0" on="1"/>
        <pt x="384" y="1274" on="1"/>
        <pt x="376" y="0" on="1"/>
      </contour>
    </TTGlyph>
    <TTGlyph name="N" xMin="107" yMin="0" xMax="1066" yMax="1801">
      <contour>
        <pt x="107" y="0" on="1"/>
        <pt x="107" y="1801" on="1"/>
        <pt x="369" y="1801" on="1"/>
        <pt x="764" y="859" on="1"/>
        <pt x="764" y="1801" on="1"/>
        <pt x="1066" y="1801" on="1"/>
        <pt x="1066" y="0" on="1"/>
        <pt x="814" y="0" on="1"/>
        <pt x="420" y="999" on="1"/>
        <pt x="420" y="0" on="1"/>
      </contour>
    </TTGlyph>
    <TTGlyph name="Nacute" xMin="107" yMin="0" xMax="1066" yMax="2379">
      <component glyphName="N" x="0" y="0" flags="0x1004"/>
      <component glyphName="acute" x="372" y="544" flags="0x1004"/>
    </TTGlyph>
    <TTGlyph name="Ncaron" xMin="107" yMin="0" xMax="1066" yMax="2343">
      <component glyphName="N" x="0" y="0" flags="0x1004"/>
      <component glyphName="caron" x="158" y="552" flags="0x1004"/>
    </TTGlyph>
    <TTGlyph name="Ncommaaccent" xMin="107" yMin="-667" xMax="1066" yMax="1801">
      <component glyphName="N" x="0" y="0" flags="0x1004"/>
      <component glyphName="uni0326" x="340" y="-24" flags="0x1004"/>
    </TTGlyph>
    <TTGlyph name="Ntilde" xMin="107" yMin="0" xMax="1066" yMax="2247">
      <component glyphName="N" x="0" y="0" flags="0x1004"/>
      <component glyphName="tilde" x="128" y="518" flags="0x1004"/>
    </TTGlyph>
    <TTGlyph name="O" xMin="84" yMin="-35" xMax="1137" yMax="1835">
      <contour>
        <pt x="84" y="592" on="1"/>
        <pt x="84" y="1197" on="1"/>
        <pt x="84" y="1835" on="0"/>
        <pt x="610" y="1835" on="1"/>
        <pt x="1137" y="1835" on="0"/>
        <pt x="1137" y="1197" on="1"/>
        <pt x="1137" y="601" on="1"/>
        <pt x="1137" y="493" on="0"/>
        <pt x="1105" y="310" on="0"/>
        <pt x="1028" y="146" on="0"/>
        <pt x="909" y="31" on="0"/>
        <pt x="727" y="-35" on="0"/>
        <pt x="610" y="-35" on="1"/>
        <pt x="494" y="-35" on="0"/>
        <pt x="312" y="30" on="0"/>
        <pt x="194" y="141" on="0"/>
        <pt x="117" y="302" on="0"/>
        <pt x="84" y="484" on="0"/>
      </contour>
      <contour>
        <pt x="773" y="510" on="1"/>
        <pt x="773" y="1288" on="1"/>
        <pt x="773" y="1554" on="0"/>
        <pt x="610" y="1554" on="1"/>
        <pt x="561" y="1554" on="0"/>
        <pt x="493" y="1505" on="0"/>
        <pt x="461" y="1420" on="0"/>
        <pt x="448" y="1337" on="0"/>
        <pt x="448" y="1288" on="1"/>
        <pt x="448" y="510" on="1"/>
        <pt x="448" y="245" on="0"/>
        <pt x="610" y="245" on="1"/>
        <pt x="773" y="245" on="0"/>
      </contour>
    </TTGlyph>
    <TTGlyph name="OE" xMin="84" yMin="0" xMax="1524" yMax="1799">
      <contour>
        <pt x="610" y="253" on="1"/>
        <pt x="773" y="253" on="1"/>
        <pt x="773" y="1537" on="1"/>
        <pt x="610" y="1537" on="1"/>
        <pt x="561" y="1537" on="0"/>
        <pt x="493" y="1488" on="0"/>
        <pt x="461" y="1403" on="0"/>
        <pt x="448" y="1320" on="0"/>
        <pt x="448" y="1271" on="1"/>
        <pt x="448" y="518" on="1"/>
        <pt x="448" y="253" on="0"/>
      </contour>
      <contour>
        <pt x="84" y="609" on="1"/>
        <pt x="84" y="1180" on="1"/>
        <pt x="84" y="1286" on="0"/>
        <pt x="116" y="1464" on="0"/>
        <pt x="192" y="1624" on="0"/>
        <pt x="310" y="1734" on="0"/>
        <pt x="493" y="1799" on="0"/>
        <pt x="610" y="1799" on="1"/>
        <pt x="1524" y="1799" on="1"/>
        <pt x="1524" y="1550" on="1"/>
        <pt x="1137" y="1550" on="1"/>
        <pt x="1137" y="1060" on="1"/>
        <pt x="1411" y="1060" on="1"/>
        <pt x="1411" y="804" on="1"/>
        <pt x="1137" y="804" on="1"/>
        <pt x="1137" y="250" on="1"/>
        <pt x="1524" y="250" on="1"/>
        <pt x="1524" y="0" on="1"/>
        <pt x="610" y="0" on="1"/>
        <pt x="84" y="0" on="0"/>
      </contour>
    </TTGlyph>
    <TTGlyph name="Oacute" xMin="84" yMin="-35" xMax="1137" yMax="2379">
      <component glyphName="O" x="0" y="0" flags="0x1004"/>
      <component glyphName="acute" x="396" y="544" flags="0x1004"/>
    </TTGlyph>
    <TTGlyph name="Obreve" xMin="84" yMin="-35" xMax="1137" yMax="2185">
      <component glyphName="O" x="0" y="0" flags="0x1004"/>
      <component glyphName="breve" x="262" y="499" flags="0x1004"/>
    </TTGlyph>
    <TTGlyph name="Ocircumflex" xMin="84" yMin="-35" xMax="1137" yMax="2343">
      <component glyphName="O" x="0" y="0" flags="0x1004"/>
      <component glyphName="circumflex" x="155" y="544" flags="0x1004"/>
    </TTGlyph>
    <TTGlyph name="Odieresis" xMin="84" yMin="-35" xMax="1137" yMax="2245">
      <component glyphName="O" x="0" y="0" flags="0x1004"/>
      <component glyphName="dieresis" x="116" y="445" flags="0x1004"/>
    </TTGlyph>
    <TTGlyph name="Ograve" xMin="84" yMin="-35" xMax="1137" yMax="2379">
      <component glyphName="O" x="0" y="0" flags="0x1004"/>
      <component glyphName="grave" x="155" y="544" flags="0x1004"/>
    </TTGlyph>
    <TTGlyph name="Ohungarumlaut" xMin="84" yMin="-35" xMax="1137" yMax="2379">
      <component glyphName="O" x="0" y="0" flags="0x1004"/>
      <component glyphName="hungarumlaut" x="236" y="532" flags="0x1004"/>
    </TTGlyph>
    <TTGlyph name="Omacron" xMin="84" yMin="-35" xMax="1137" yMax="2130">
      <component glyphName="O" x="0" y="0" flags="0x1004"/>
      <component glyphName="macron" x="393" y="480" flags="0x1004"/>
    </TTGlyph>
    <TTGlyph name="Oslash" xMin="84" yMin="-270" xMax="1137" yMax="2067">
      <contour>
        <pt x="773" y="501" on="1"/>
        <pt x="772" y="1288" on="1"/>
        <pt x="772" y="1337" on="0"/>
        <pt x="759" y="1420" on="0"/>
        <pt x="727" y="1505" on="0"/>
        <pt x="659" y="1554" on="0"/>
        <pt x="561" y="1554" on="0"/>
        <pt x="493" y="1505" on="0"/>
        <pt x="461" y="1420" on="0"/>
        <pt x="448" y="1337" on="0"/>
        <pt x="448" y="1288" on="1"/>
        <pt x="448" y="501" on="1"/>
        <pt x="448" y="236" on="0"/>
        <pt x="611" y="236" on="1"/>
        <pt x="773" y="236" on="0"/>
      </contour>
      <contour>
        <pt x="258" y="-250" on="1"/>
        <pt x="334" y="27" on="1"/>
        <pt x="84" y="166" on="0"/>
        <pt x="84" y="592" on="1"/>
        <pt x="84" y="1197" on="1"/>
        <pt x="84" y="1835" on="0"/>
        <pt x="610" y="1835" on="1"/>
        <pt x="729" y="1835" on="0"/>
        <pt x="822" y="1801" on="1"/>
        <pt x="895" y="2067" on="1"/>
        <pt x="992" y="2047" on="1"/>
        <pt x="912" y="1757" on="1"/>
        <pt x="1137" y="1610" on="0"/>
        <pt x="1137" y="1197" on="1"/>
        <pt x="1137" y="601" on="1"/>
        <pt x="1137" y="493" on="0"/>
        <pt x="1105" y="310" on="0"/>
        <pt x="1028" y="146" on="0"/>
        <pt x="909" y="31" on="0"/>
        <pt x="727" y="-35" on="0"/>
        <pt x="610" y="-35" on="1"/>
        <pt x="509" y="-35" on="0"/>
        <pt x="425" y="-10" on="1"/>
        <pt x="354" y="-270" on="1"/>
      </contour>
    </TTGlyph>
    <TTGlyph name="Otilde" xMin="84" yMin="-35" xMax="1137" yMax="2247">
      <component glyphName="O" x="0" y="0" flags="0x1004"/>
      <component glyphName="tilde" x="152" y="518" flags="0x1004"/>
    </TTGlyph>
    <TTGlyph name="P" xMin="107" yMin="0" xMax="991" yMax="1800">
      <contour>
        <pt x="474" y="1027" on="1"/>
        <pt x="503" y="1027" on="0"/>
        <pt x="548" y="1034" on="0"/>
        <pt x="582" y="1043" on="0"/>
        <pt x="608" y="1067" on="0"/>
        <pt x="625" y="1085" on="0"/>
        <pt x="637" y="1126" on="0"/>
        <pt x="643" y="1152" on="0"/>
        <pt x="646" y="1210" on="0"/>
        <pt x="646" y="1245" on="0"/>
        <pt x="646" y="1282" on="1"/>
        <pt x="646" y="1292" on="0"/>
        <pt x="646" y="1297" on="1"/>
        <pt x="646" y="1336" on="0"/>
        <pt x="645" y="1376" on="0"/>
        <pt x="639" y="1438" on="0"/>
        <pt x="626" y="1469" on="0"/>
        <pt x="601" y="1509" on="0"/>
        <pt x="565" y="1527" on="0"/>
        <pt x="510" y="1541" on="0"/>
        <pt x="474" y="1541" on="1"/>
      </contour>
      <contour>
        <pt x="107" y="0" on="1"/>
        <pt x="107" y="1800" on="1"/>
        <pt x="542" y="1800" on="1"/>
        <pt x="777" y="1800" on="0"/>
        <pt x="991" y="1538" on="0"/>
        <pt x="991" y="1290" on="1"/>
        <pt x="991" y="1168" on="0"/>
        <pt x="944" y="988" on="0"/>
        <pt x="860" y="871" on="0"/>
        <pt x="728" y="800" on="0"/>
        <pt x="574" y="771" on="0"/>
        <pt x="473" y="770" on="1"/>
        <pt x="473" y="0" on="1"/>
      </contour>
    </TTGlyph>
    <TTGlyph name="Q" xMin="84" yMin="-234" xMax="1144" yMax="1835">
      <contour>
        <pt x="780" y="511" on="1"/>
        <pt x="780" y="1288" on="1"/>
        <pt x="780" y="1337" on="0"/>
        <pt x="767" y="1422" on="0"/>
        <pt x="733" y="1505" on="0"/>
        <pt x="664" y="1554" on="0"/>
        <pt x="614" y="1554" on="1"/>
        <pt x="565" y="1554" on="0"/>
        <pt x="495" y="1505" on="0"/>
        <pt x="462" y="1421" on="0"/>
        <pt x="448" y="1337" on="0"/>
        <pt x="448" y="1288" on="1"/>
        <pt x="448" y="511" on="1"/>
        <pt x="448" y="246" on="0"/>
        <pt x="780" y="246" on="0"/>
      </contour>
      <contour>
        <pt x="84" y="592" on="1"/>
        <pt x="84" y="1197" on="1"/>
        <pt x="84" y="1308" on="0"/>
        <pt x="117" y="1494" on="0"/>
        <pt x="194" y="1658" on="0"/>
        <pt x="314" y="1770" on="0"/>
        <pt x="497" y="1835" on="0"/>
        <pt x="731" y="1835" on="0"/>
        <pt x="914" y="1770" on="0"/>
        <pt x="1034" y="1658" on="0"/>
        <pt x="1111" y="1494" on="0"/>
        <pt x="1144" y="1308" on="0"/>
        <pt x="1144" y="1197" on="1"/>
        <pt x="1144" y="601" on="1"/>
        <pt x="1144" y="231" on="0"/>
        <pt x="931" y="52" on="1"/>
        <pt x="961" y="-13" on="0"/>
        <pt x="1107" y="-13" on="1"/>
        <pt x="1107" y="-234" on="1"/>
        <pt x="835" y="-234" on="0"/>
        <pt x="707" y="-32" on="1"/>
        <pt x="664" y="-37" on="0"/>
        <pt x="608" y="-37" on="1"/>
        <pt x="474" y="-37" on="0"/>
        <pt x="270" y="56" on="0"/>
        <pt x="146" y="226" on="0"/>
        <pt x="84" y="452" on="0"/>
      </contour>
    </TTGlyph>
    <TTGlyph name="R" xMin="107" yMin="0" xMax="1114" yMax="1800">
      <contour>
        <pt x="471" y="1051" on="1"/>
        <pt x="575" y="1051" on="1"/>
        <pt x="617" y="1051" on="0"/>
        <pt x="677" y="1107" on="0"/>
        <pt x="704" y="1193" on="0"/>
        <pt x="715" y="1265" on="0"/>
        <pt x="715" y="1329" on="0"/>
        <pt x="706" y="1397" on="0"/>
        <pt x="683" y="1480" on="0"/>
        <pt x="630" y="1533" on="0"/>
        <pt x="592" y="1533" on="1"/>
        <pt x="471" y="1533" on="1"/>
      </contour>
      <contour>
        <pt x="107" y="0" on="1"/>
        <pt x="107" y="1800" on="1"/>
        <pt x="503" y="1800" on="1"/>
        <pt x="638" y="1800" on="0"/>
        <pt x="843" y="1749" on="0"/>
        <pt x="997" y="1640" on="0"/>
        <pt x="1077" y="1455" on="0"/>
        <pt x="1077" y="1326" on="1"/>
        <pt x="1077" y="1270" on="0"/>
        <pt x="1069" y="1182" on="0"/>
        <pt x="1040" y="1069" on="0"/>
        <pt x="990" y="982" on="0"/>
        <pt x="896" y="898" on="0"/>
        <pt x="832" y="870" on="1"/>
        <pt x="994" y="356" on="0"/>
        <pt x="1114" y="0" on="1"/>
        <pt x="737" y="0" on="1"/>
        <pt x="531" y="829" on="1"/>
        <pt x="471" y="829" on="1"/>
        <pt x="471" y="0" on="1"/>
      </contour>
    </TTGlyph>
    <TTGlyph name="Racute" xMin="107" yMin="0" xMax="1114" yMax="2379">
      <component glyphName="R" x="0" y="0" flags="0x1004"/>
      <component glyphName="acute" x="396" y="544" flags="0x1004"/>
    </TTGlyph>
    <TTGlyph name="Rcaron" xMin="107" yMin="0" xMax="1114" yMax="2343">
      <component glyphName="R" x="0" y="0" flags="0x1004"/>
      <component glyphName="caron" x="182" y="552" flags="0x1004"/>
    </TTGlyph>
    <TTGlyph name="Rcommaaccent" xMin="107" yMin="-667" xMax="1114" yMax="1800">
      <component glyphName="R" x="0" y="0" flags="0x1004"/>
      <component glyphName="uni0326" x="364" y="-24" flags="0x1004"/>
    </TTGlyph>
    <TTGlyph name="S" xMin="45" yMin="-37" xMax="1015" yMax="1837">
      <contour>
        <pt x="45" y="515" on="1"/>
        <pt x="414" y="586" on="1"/>
        <pt x="414" y="531" on="0"/>
        <pt x="418" y="447" on="0"/>
        <pt x="435" y="348" on="0"/>
        <pt x="464" y="285" on="0"/>
        <pt x="517" y="242" on="0"/>
        <pt x="553" y="242" on="1"/>
        <pt x="661" y="242" on="0"/>
        <pt x="661" y="380" on="1"/>
        <pt x="661" y="569" on="0"/>
        <pt x="448" y="756" on="1"/>
        <pt x="335" y="852" on="1"/>
        <pt x="281" y="897" on="0"/>
        <pt x="217" y="957" on="0"/>
        <pt x="130" y="1059" on="0"/>
        <pt x="81" y="1154" on="0"/>
        <pt x="46" y="1288" on="0"/>
        <pt x="46" y="1363" on="1"/>
        <pt x="46" y="1582" on="0"/>
        <pt x="324" y="1837" on="0"/>
        <pt x="554" y="1837" on="1"/>
        <pt x="745" y="1837" on="0"/>
        <pt x="1013" y="1565" on="0"/>
        <pt x="1013" y="1373" on="1"/>
        <pt x="1012" y="1360" on="1"/>
        <pt x="1012" y="1347" on="0"/>
        <pt x="1012" y="1330" on="1"/>
        <pt x="636" y="1278" on="1"/>
        <pt x="636" y="1289" on="0"/>
        <pt x="639" y="1336" on="0"/>
        <pt x="639" y="1351" on="1"/>
        <pt x="639" y="1387" on="0"/>
        <pt x="629" y="1453" on="0"/>
        <pt x="606" y="1519" on="0"/>
        <pt x="558" y="1558" on="0"/>
        <pt x="524" y="1558" on="1"/>
        <pt x="464" y="1558" on="0"/>
        <pt x="404" y="1464" on="0"/>
        <pt x="404" y="1400" on="1"/>
        <pt x="404" y="1344" on="0"/>
        <pt x="439" y="1246" on="0"/>
        <pt x="510" y="1161" on="0"/>
        <pt x="570" y="1105" on="0"/>
        <pt x="670" y="1024" on="0"/>
        <pt x="691" y="1005" on="1"/>
        <pt x="768" y="937" on="0"/>
        <pt x="874" y="818" on="0"/>
        <pt x="968" y="668" on="0"/>
        <pt x="1015" y="494" on="0"/>
        <pt x="1015" y="393" on="1"/>
        <pt x="1015" y="204" on="0"/>
        <pt x="745" y="-37" on="0"/>
        <pt x="552" y="-37" on="1"/>
        <pt x="427" y="-37" on="0"/>
        <pt x="233" y="55" on="0"/>
        <pt x="114" y="213" on="0"/>
        <pt x="50" y="405" on="0"/>
      </contour>
    </TTGlyph>
    <TTGlyph name="Sacute" xMin="45" yMin="-37" xMax="1015" yMax="2381">
      <component glyphName="S" x="0" y="0" flags="0x1004"/>
      <component glyphName="acute" x="327" y="546" flags="0x1004"/>
    </TTGlyph>
    <TTGlyph name="Scaron" xMin="45" yMin="-37" xMax="1015" yMax="2345">
      <component glyphName="S" x="0" y="0" flags="0x1004"/>
      <component glyphName="caron" x="114" y="554" flags="0x1004"/>
    </TTGlyph>
    <TTGlyph name="Scedilla" xMin="45" yMin="-579" xMax="1015" yMax="1837">
      <component glyphName="S" x="0" y="0" flags="0x1004"/>
      <component glyphName="cedilla" x="268" y="-18" flags="0x1004"/>
    </TTGlyph>
    <TTGlyph name="Scircumflex" xMin="45" yMin="-37" xMax="1015" yMax="2345">
      <component glyphName="S" x="0" y="0" flags="0x1004"/>
      <component glyphName="circumflex" x="86" y="546" flags="0x1004"/>
    </TTGlyph>
    <TTGlyph name="Scommaaccent" xMin="45" yMin="-704" xMax="1015" yMax="1837">
      <component glyphName="S" x="0" y="0" flags="0x1004"/>
      <component glyphName="uni0326" x="296" y="-61" flags="0x1004"/>
    </TTGlyph>
    <TTGlyph name="T" xMin="14" yMin="0" xMax="901" yMax="1800">
      <contour>
        <pt x="278" y="0" on="1"/>
        <pt x="278" y="1528" on="1"/>
        <pt x="14" y="1528" on="1"/>
        <pt x="14" y="1800" on="1"/>
        <pt x="901" y="1800" on="1"/>
        <pt x="901" y="1528" on="1"/>
        <pt x="642" y="1528" on="1"/>
        <pt x="642" y="0" on="1"/>
      </contour>
    </TTGlyph>
    <TTGlyph name="Tcaron" xMin="14" yMin="0" xMax="901" yMax="2343">
      <component glyphName="T" x="0" y="0" flags="0x1004"/>
      <component glyphName="caron" x="32" y="552" flags="0x1004"/>
    </TTGlyph>
    <TTGlyph name="Thorn" xMin="97" yMin="0" xMax="981" yMax="1800">
      <contour>
        <pt x="481" y="791" on="1"/>
        <pt x="504" y="791" on="0"/>
        <pt x="542" y="795" on="0"/>
        <pt x="572" y="808" on="0"/>
        <pt x="594" y="819" on="0"/>
        <pt x="611" y="845" on="0"/>
        <pt x="622" y="863" on="0"/>
        <pt x="630" y="903" on="0"/>
        <pt x="634" y="928" on="0"/>
        <pt x="636" y="982" on="0"/>
        <pt x="636" y="1014" on="0"/>
        <pt x="636" y="1048" on="1"/>
        <pt x="636" y="1057" on="0"/>
        <pt x="636" y="1061" on="1"/>
        <pt x="636" y="1095" on="0"/>
        <pt x="635" y="1130" on="0"/>
        <pt x="632" y="1187" on="0"/>
        <pt x="623" y="1216" on="0"/>
        <pt x="609" y="1256" on="0"/>
        <pt x="586" y="1276" on="0"/>
        <pt x="554" y="1297" on="0"/>
        <pt x="509" y="1305" on="0"/>
        <pt x="481" y="1305" on="1"/>
      </contour>
      <contour>
        <pt x="97" y="0" on="1"/>
        <pt x="97" y="1800" on="1"/>
        <pt x="480" y="1800" on="1"/>
        <pt x="480" y="1564" on="1"/>
        <pt x="532" y="1564" on="1"/>
        <pt x="767" y="1564" on="0"/>
        <pt x="981" y="1302" on="0"/>
        <pt x="981" y="1054" on="1"/>
        <pt x="981" y="934" on="0"/>
        <pt x="935" y="755" on="0"/>
        <pt x="853" y="638" on="0"/>
        <pt x="724" y="566" on="0"/>
        <pt x="574" y="536" on="0"/>
        <pt x="475" y="534" on="1"/>
        <pt x="475" y="0" on="1"/>
      </contour>
    </TTGlyph>
    <TTGlyph name="U" xMin="99" yMin="-35" xMax="1149" yMax="1800">
      <contour>
        <pt x="99" y="669" on="1"/>
        <pt x="99" y="1800" on="1"/>
        <pt x="463" y="1800" on="1"/>
        <pt x="463" y="680" on="1"/>
        <pt x="463" y="584" on="0"/>
        <pt x="465" y="497" on="0"/>
        <pt x="473" y="372" on="0"/>
        <pt x="493" y="322" on="0"/>
        <pt x="528" y="264" on="0"/>
        <pt x="584" y="246" on="0"/>
        <pt x="664" y="246" on="0"/>
        <pt x="720" y="264" on="0"/>
        <pt x="755" y="321" on="0"/>
        <pt x="775" y="371" on="0"/>
        <pt x="783" y="494" on="0"/>
        <pt x="785" y="579" on="0"/>
        <pt x="785" y="674" on="1"/>
        <pt x="785" y="678" on="0"/>
        <pt x="785" y="680" on="1"/>
        <pt x="785" y="1800" on="1"/>
        <pt x="1149" y="1800" on="1"/>
        <pt x="1149" y="669" on="1"/>
        <pt x="1149" y="583" on="0"/>
        <pt x="1139" y="443" on="0"/>
        <pt x="1111" y="293" on="0"/>
        <pt x="1063" y="178" on="0"/>
        <pt x="983" y="73" on="0"/>
        <pt x="874" y="5" on="0"/>
        <pt x="720" y="-35" on="0"/>
        <pt x="528" y="-35" on="0"/>
        <pt x="374" y="5" on="0"/>
        <pt x="266" y="73" on="0"/>
        <pt x="186" y="178" on="0"/>
        <pt x="138" y="293" on="0"/>
        <pt x="109" y="443" on="0"/>
        <pt x="99" y="583" on="0"/>
      </contour>
    </TTGlyph>
    <TTGlyph name="Uacute" xMin="99" yMin="-35" xMax="1149" yMax="2379">
      <component glyphName="U" x="0" y="0" flags="0x1004"/>
      <component glyphName="acute" x="409" y="544" flags="0x1004"/>
    </TTGlyph>
    <TTGlyph name="Ubreve" xMin="99" yMin="-35" xMax="1149" yMax="2185">
      <component glyphName="U" x="0" y="0" flags="0x1004"/>
      <component glyphName="breve" x="276" y="499" flags="0x1004"/>
    </TTGlyph>
    <TTGlyph name="Ucircumflex" xMin="99" yMin="-35" xMax="1149" yMax="2343">
      <component glyphName="U" x="0" y="0" flags="0x1004"/>
      <component glyphName="circumflex" x="168" y="544" flags="0x1004"/>
    </TTGlyph>
    <TTGlyph name="Udieresis" xMin="99" yMin="-35" xMax="1149" yMax="2245">
      <component glyphName="U" x="0" y="0" flags="0x1004"/>
      <component glyphName="dieresis" x="130" y="445" flags="0x1004"/>
    </TTGlyph>
    <TTGlyph name="Ugrave" xMin="99" yMin="-35" xMax="1149" yMax="2379">
      <component glyphName="U" x="0" y="0" flags="0x1004"/>
      <component glyphName="grave" x="168" y="544" flags="0x1004"/>
    </TTGlyph>
    <TTGlyph name="Uhungarumlaut" xMin="99" yMin="-35" xMax="1149" yMax="2379">
      <component glyphName="U" x="0" y="0" flags="0x1004"/>
      <component glyphName="hungarumlaut" x="250" y="532" flags="0x1004"/>
    </TTGlyph>
    <TTGlyph name="Umacron" xMin="99" yMin="-35" xMax="1149" yMax="2130">
      <component glyphName="U" x="0" y="0" flags="0x1004"/>
      <component glyphName="macron" x="406" y="480" flags="0x1004"/>
    </TTGlyph>
    <TTGlyph name="Uogonek" xMin="99" yMin="-554" xMax="1149" yMax="1800">
      <component glyphName="U" x="0" y="0" flags="0x1004"/>
      <component glyphName="ogonek" x="351" y="-33" flags="0x1004"/>
    </TTGlyph>
    <TTGlyph name="Uring" xMin="99" yMin="-35" xMax="1149" yMax="2415">
      <component glyphName="U" x="0" y="0" flags="0x1004"/>
      <component glyphName="ring" x="252" y="499" flags="0x1004"/>
    </TTGlyph>
    <TTGlyph name="Utilde" xMin="99" yMin="-35" xMax="1149" yMax="2267">
      <component glyphName="tilde" x="165" y="538" flags="0x1004"/>
      <component glyphName="U" x="0" y="0" flags="0x1204"/>
    </TTGlyph>
    <TTGlyph name="V" xMin="12" yMin="0" xMax="1032" yMax="1800">
      <contour>
        <pt x="343" y="0" on="1"/>
        <pt x="12" y="1800" on="1"/>
        <pt x="357" y="1800" on="1"/>
        <pt x="516" y="709" on="1"/>
        <pt x="692" y="1800" on="1"/>
        <pt x="1032" y="1800" on="1"/>
        <pt x="676" y="0" on="1"/>
      </contour>
    </TTGlyph>
    <TTGlyph name="W" xMin="21" yMin="0" xMax="1443" yMax="1800">
      <contour>
        <pt x="270" y="0" on="1"/>
        <pt x="21" y="1800" on="1"/>
        <pt x="331" y="1800" on="1"/>
        <pt x="443" y="608" on="1"/>
        <pt x="597" y="1800" on="1"/>
        <pt x="864" y="1800" on="1"/>
        <pt x="1015" y="615" on="1"/>
        <pt x="1132" y="1800" on="1"/>
        <pt x="1443" y="1800" on="1"/>
        <pt x="1191" y="0" on="1"/>
        <pt x="880" y="0" on="1"/>
        <pt x="729" y="1178" on="1"/>
        <pt x="581" y="0" on="1"/>
      </contour>
    </TTGlyph>
    <TTGlyph name="Wacute" xMin="21" yMin="0" xMax="1443" yMax="2379">
      <component glyphName="W" x="0" y="0" flags="0x1004"/>
      <component glyphName="acute" x="528" y="544" flags="0x1004"/>
    </TTGlyph>
    <TTGlyph name="Wcircumflex" xMin="21" yMin="0" xMax="1443" yMax="2343">
      <component glyphName="W" x="0" y="0" flags="0x1004"/>
      <component glyphName="circumflex" x="288" y="544" flags="0x1004"/>
    </TTGlyph>
    <TTGlyph name="Wdieresis" xMin="21" yMin="0" xMax="1443" yMax="2245">
      <component glyphName="W" x="0" y="0" flags="0x1004"/>
      <component glyphName="dieresis" x="248" y="445" flags="0x1004"/>
    </TTGlyph>
    <TTGlyph name="Wgrave" xMin="21" yMin="0" xMax="1443" yMax="2379">
      <component glyphName="W" x="0" y="0" flags="0x1004"/>
      <component glyphName="grave" x="288" y="544" flags="0x1004"/>
    </TTGlyph>
    <TTGlyph name="X" xMin="21" yMin="0" xMax="1056" yMax="1800">
      <contour>
        <pt x="23" y="0" on="1"/>
        <pt x="314" y="931" on="1"/>
        <pt x="21" y="1800" on="1"/>
        <pt x="367" y="1800" on="1"/>
        <pt x="536" y="1262" on="1"/>
        <pt x="718" y="1800" on="1"/>
        <pt x="1056" y="1800" on="1"/>
        <pt x="765" y="937" on="1"/>
        <pt x="1052" y="0" on="1"/>
        <pt x="709" y="0" on="1"/>
        <pt x="537" y="595" on="1"/>
        <pt x="367" y="0" on="1"/>
      </contour>
    </TTGlyph>
    <TTGlyph name="Y" xMin="-1" yMin="0" xMax="1028" yMax="1800">
      <contour>
        <pt x="337" y="0" on="1"/>
        <pt x="337" y="595" on="1"/>
        <pt x="-1" y="1800" on="1"/>
        <pt x="342" y="1800" on="1"/>
        <pt x="510" y="1009" on="1"/>
        <pt x="541" y="1139" on="0"/>
        <pt x="665" y="1670" on="0"/>
        <pt x="695" y="1800" on="1"/>
        <pt x="1028" y="1800" on="1"/>
        <pt x="689" y="595" on="1"/>
        <pt x="689" y="0" on="1"/>
      </contour>
    </TTGlyph>
    <TTGlyph name="Yacute" xMin="-1" yMin="0" xMax="1028" yMax="2379">
      <component glyphName="Y" x="0" y="0" flags="0x1004"/>
      <component glyphName="acute" x="302" y="544" flags="0x1004"/>
    </TTGlyph>
    <TTGlyph name="Ycircumflex" xMin="-1" yMin="0" xMax="1028" yMax="2343">
      <component glyphName="Y" x="0" y="0" flags="0x1004"/>
      <component glyphName="circumflex" x="62" y="544" flags="0x1004"/>
    </TTGlyph>
    <TTGlyph name="Ydieresis" xMin="-1" yMin="0" xMax="1028" yMax="2245">
      <component glyphName="Y" x="0" y="0" flags="0x1004"/>
      <component glyphName="dieresis" x="23" y="445" flags="0x1004"/>
    </TTGlyph>
    <TTGlyph name="Ygrave" xMin="-1" yMin="0" xMax="1028" yMax="2379">
      <component glyphName="Y" x="0" y="0" flags="0x1004"/>
      <component glyphName="grave" x="62" y="544" flags="0x1004"/>
    </TTGlyph>
    <TTGlyph name="Z" xMin="80" yMin="0" xMax="911" yMax="1799">
      <contour>
        <pt x="80" y="0" on="1"/>
        <pt x="80" y="228" on="1"/>
        <pt x="555" y="1549" on="1"/>
        <pt x="135" y="1549" on="1"/>
        <pt x="135" y="1799" on="1"/>
        <pt x="911" y="1799" on="1"/>
        <pt x="911" y="1570" on="1"/>
        <pt x="434" y="250" on="1"/>
        <pt x="911" y="250" on="1"/>
        <pt x="911" y="0" on="1"/>
      </contour>
    </TTGlyph>
    <TTGlyph name="Zacute" xMin="80" yMin="0" xMax="911" yMax="2379">
      <component glyphName="Z" x="0" y="0" flags="0x1004"/>
      <component glyphName="acute" x="280" y="544" flags="0x1004"/>
    </TTGlyph>
    <TTGlyph name="Zcaron" xMin="80" yMin="0" xMax="911" yMax="2343">
      <component glyphName="Z" x="0" y="0" flags="0x1004"/>
      <component glyphName="caron" x="127" y="552" flags="0x1004"/>
    </TTGlyph>
    <TTGlyph name="Zdotaccent" xMin="80" yMin="0" xMax="911" yMax="2255">
      <component glyphName="Z" x="0" y="0" flags="0x1004"/>
      <component glyphName="dotaccent" x="238" y="438" flags="0x1004"/>
    </TTGlyph>
    <TTGlyph name="a" xMin="58" yMin="-29" xMax="928" yMax="1335">
      <contour>
        <pt x="552" y="295" on="1"/>
        <pt x="552" y="616" on="1"/>
        <pt x="386" y="482" on="0"/>
        <pt x="386" y="322" on="1"/>
        <pt x="386" y="282" on="0"/>
        <pt x="417" y="225" on="0"/>
        <pt x="454" y="225" on="1"/>
        <pt x="475" y="225" on="0"/>
        <pt x="516" y="252" on="0"/>
        <pt x="534" y="272" on="0"/>
      </contour>
      <contour>
        <pt x="620" y="0" on="1"/>
        <pt x="587" y="135" on="1"/>
        <pt x="558" y="44" on="0"/>
        <pt x="426" y="-29" on="0"/>
        <pt x="328" y="-29" on="1"/>
        <pt x="256" y="-29" on="0"/>
        <pt x="148" y="27" on="0"/>
        <pt x="87" y="122" on="0"/>
        <pt x="58" y="231" on="0"/>
        <pt x="58" y="291" on="1"/>
        <pt x="58" y="359" on="0"/>
        <pt x="86" y="475" on="0"/>
        <pt x="129" y="564" on="0"/>
        <pt x="206" y="646" on="0"/>
        <pt x="279" y="703" on="0"/>
        <pt x="393" y="764" on="0"/>
        <pt x="483" y="805" on="0"/>
        <pt x="551" y="833" on="1"/>
        <pt x="551" y="943" on="1"/>
        <pt x="551" y="1012" on="0"/>
        <pt x="517" y="1080" on="0"/>
        <pt x="476" y="1080" on="1"/>
        <pt x="448" y="1080" on="0"/>
        <pt x="413" y="1057" on="0"/>
        <pt x="399" y="1011" on="0"/>
        <pt x="395" y="974" on="0"/>
        <pt x="395" y="943" on="1"/>
        <pt x="395" y="869" on="1"/>
        <pt x="68" y="869" on="1"/>
        <pt x="68" y="1094" on="0"/>
        <pt x="294" y="1335" on="0"/>
        <pt x="509" y="1335" on="1"/>
        <pt x="659" y="1335" on="0"/>
        <pt x="885" y="1117" on="0"/>
        <pt x="885" y="967" on="1"/>
        <pt x="885" y="347" on="1"/>
        <pt x="885" y="186" on="0"/>
        <pt x="928" y="0" on="1"/>
      </contour>
    </TTGlyph>
    <TTGlyph name="aacute" xMin="58" yMin="-29" xMax="928" yMax="1879">
      <component glyphName="a" x="0" y="0" flags="0x1004"/>
      <component glyphName="acute" x="278" y="44" flags="0x1004"/>
    </TTGlyph>
    <TTGlyph name="abreve" xMin="58" yMin="-29" xMax="928" yMax="1685">
      <component glyphName="a" x="0" y="0" flags="0x1004"/>
      <component glyphName="breve" x="145" y="-1" flags="0x1004"/>
    </TTGlyph>
    <TTGlyph name="acircumflex" xMin="58" yMin="-29" xMax="928" yMax="1843">
      <component glyphName="a" x="0" y="0" flags="0x1004"/>
      <component glyphName="circumflex" x="38" y="44" flags="0x1004"/>
    </TTGlyph>
    <TTGlyph name="acute" xMin="113" yMin="1393" xMax="594" yMax="1835">
      <contour>
        <pt x="113" y="1393" on="1"/>
        <pt x="249" y="1835" on="1"/>
        <pt x="594" y="1835" on="1"/>
        <pt x="317" y="1393" on="1"/>
      </contour>
    </TTGlyph>
    <TTGlyph name="adieresis" xMin="58" yMin="-29" xMax="928" yMax="1745">
      <component glyphName="a" x="0" y="0" flags="0x1004"/>
      <component glyphName="dieresis" x="-2" y="-55" flags="0x1004"/>
    </TTGlyph>
    <TTGlyph name="ae" xMin="63" yMin="-29" xMax="1368" yMax="1336">
      <contour>
        <pt x="894" y="964" on="1"/>
        <pt x="894" y="804" on="1"/>
        <pt x="902" y="806" on="0"/>
        <pt x="929" y="812" on="0"/>
        <pt x="998" y="839" on="0"/>
        <pt x="1050" y="873" on="0"/>
        <pt x="1093" y="933" on="0"/>
        <pt x="1093" y="968" on="1"/>
        <pt x="1093" y="1014" on="0"/>
        <pt x="1036" y="1078" on="0"/>
        <pt x="978" y="1078" on="1"/>
        <pt x="942" y="1078" on="0"/>
        <pt x="894" y="1001" on="0"/>
      </contour>
      <contour>
        <pt x="581" y="421" on="1"/>
        <pt x="575" y="586" on="1"/>
        <pt x="508" y="563" on="0"/>
        <pt x="419" y="506" on="0"/>
        <pt x="379" y="443" on="0"/>
        <pt x="366" y="389" on="0"/>
        <pt x="366" y="354" on="1"/>
        <pt x="366" y="304" on="0"/>
        <pt x="414" y="225" on="0"/>
        <pt x="459" y="225" on="1"/>
        <pt x="520" y="225" on="0"/>
        <pt x="581" y="339" on="0"/>
      </contour>
      <contour>
        <pt x="400" y="869" on="1"/>
        <pt x="73" y="869" on="1"/>
        <pt x="73" y="1087" on="0"/>
        <pt x="291" y="1336" on="0"/>
        <pt x="486" y="1336" on="1"/>
        <pt x="490" y="1336" on="0"/>
        <pt x="510" y="1335" on="0"/>
        <pt x="514" y="1335" on="1"/>
        <pt x="569" y="1333" on="0"/>
        <pt x="683" y="1276" on="0"/>
        <pt x="718" y="1233" on="1"/>
        <pt x="763" y="1279" on="0"/>
        <pt x="904" y="1335" on="0"/>
        <pt x="978" y="1335" on="1"/>
        <pt x="1060" y="1335" on="0"/>
        <pt x="1209" y="1272" on="0"/>
        <pt x="1309" y="1174" on="0"/>
        <pt x="1368" y="1055" on="0"/>
        <pt x="1368" y="998" on="1"/>
        <pt x="1368" y="943" on="0"/>
        <pt x="1330" y="851" on="0"/>
        <pt x="1282" y="788" on="0"/>
        <pt x="1187" y="733" on="0"/>
        <pt x="1127" y="705" on="0"/>
        <pt x="1009" y="675" on="0"/>
        <pt x="970" y="668" on="0"/>
        <pt x="916" y="659" on="1"/>
        <pt x="909" y="657" on="0"/>
        <pt x="899" y="656" on="0"/>
        <pt x="894" y="655" on="1"/>
        <pt x="894" y="346" on="1"/>
        <pt x="894" y="236" on="0"/>
        <pt x="958" y="236" on="1"/>
        <pt x="1028" y="236" on="0"/>
        <pt x="1028" y="384" on="1"/>
        <pt x="1028" y="407" on="0"/>
        <pt x="1025" y="477" on="0"/>
        <pt x="1025" y="486" on="1"/>
        <pt x="1359" y="486" on="1"/>
        <pt x="1359" y="339" on="1"/>
        <pt x="1359" y="175" on="0"/>
        <pt x="1153" y="-20" on="0"/>
        <pt x="988" y="-29" on="1"/>
        <pt x="896" y="-29" on="0"/>
        <pt x="726" y="70" on="0"/>
        <pt x="703" y="145" on="1"/>
        <pt x="659" y="65" on="0"/>
        <pt x="479" y="-29" on="0"/>
        <pt x="303" y="-29" on="0"/>
        <pt x="157" y="39" on="0"/>
        <pt x="63" y="188" on="0"/>
        <pt x="63" y="291" on="1"/>
        <pt x="63" y="359" on="0"/>
        <pt x="90" y="469" on="0"/>
        <pt x="131" y="550" on="0"/>
        <pt x="207" y="617" on="0"/>
        <pt x="278" y="661" on="0"/>
        <pt x="393" y="703" on="0"/>
        <pt x="485" y="729" on="0"/>
        <pt x="556" y="746" on="1"/>
        <pt x="556" y="881" on="1"/>
        <pt x="556" y="1070" on="0"/>
        <pt x="469" y="1070" on="1"/>
        <pt x="397" y="1070" on="0"/>
        <pt x="397" y="950" on="1"/>
        <pt x="397" y="934" on="0"/>
        <pt x="400" y="879" on="0"/>
      </contour>
    </TTGlyph>
    <TTGlyph name="agrave" xMin="58" yMin="-29" xMax="928" yMax="1879">
      <component glyphName="a" x="0" y="0" flags="0x1004"/>
      <component glyphName="grave" x="38" y="44" flags="0x1004"/>
    </TTGlyph>
    <TTGlyph name="amacron" xMin="58" yMin="-29" xMax="928" yMax="1630">
      <component glyphName="a" x="0" y="0" flags="0x1004"/>
      <component glyphName="macron" x="276" y="-20" flags="0x1004"/>
    </TTGlyph>
    <TTGlyph name="ampersand" xMin="66" yMin="-30" xMax="1129" yMax="1834">
      <contour>
        <pt x="606" y="313" on="1"/>
        <pt x="481" y="515" on="0"/>
        <pt x="424" y="628" on="1"/>
        <pt x="405" y="609" on="0"/>
        <pt x="378" y="484" on="0"/>
        <pt x="378" y="414" on="1"/>
        <pt x="378" y="332" on="0"/>
        <pt x="420" y="221" on="0"/>
        <pt x="464" y="221" on="1"/>
        <pt x="534" y="221" on="0"/>
      </contour>
      <contour>
        <pt x="507" y="1105" on="1"/>
        <pt x="556" y="1176" on="0"/>
        <pt x="619" y="1355" on="0"/>
        <pt x="619" y="1436" on="1"/>
        <pt x="619" y="1494" on="0"/>
        <pt x="574" y="1583" on="0"/>
        <pt x="522" y="1583" on="1"/>
        <pt x="436" y="1583" on="0"/>
        <pt x="436" y="1433" on="1"/>
        <pt x="436" y="1278" on="0"/>
      </contour>
      <contour>
        <pt x="1129" y="262" on="1"/>
        <pt x="1129" y="-23" on="1"/>
        <pt x="1099" y="-29" on="0"/>
        <pt x="1069" y="-29" on="1"/>
        <pt x="952" y="-29" on="0"/>
        <pt x="795" y="121" on="1"/>
        <pt x="730" y="48" on="0"/>
        <pt x="554" y="-30" on="0"/>
        <pt x="456" y="-30" on="1"/>
        <pt x="274" y="-30" on="0"/>
        <pt x="66" y="207" on="0"/>
        <pt x="66" y="389" on="1"/>
        <pt x="66" y="652" on="0"/>
        <pt x="294" y="906" on="1"/>
        <pt x="134" y="1261" on="0"/>
        <pt x="134" y="1434" on="1"/>
        <pt x="134" y="1606" on="0"/>
        <pt x="329" y="1834" on="0"/>
        <pt x="500" y="1834" on="1"/>
        <pt x="676" y="1834" on="0"/>
        <pt x="895" y="1626" on="0"/>
        <pt x="895" y="1451" on="1"/>
        <pt x="895" y="1288" on="0"/>
        <pt x="748" y="1013" on="0"/>
        <pt x="615" y="876" on="1"/>
        <pt x="802" y="564" on="1"/>
        <pt x="843" y="671" on="0"/>
        <pt x="843" y="874" on="1"/>
        <pt x="1119" y="874" on="1"/>
        <pt x="1119" y="691" on="0"/>
        <pt x="1051" y="462" on="0"/>
        <pt x="969" y="342" on="1"/>
        <pt x="998" y="309" on="0"/>
        <pt x="1084" y="266" on="0"/>
      </contour>
    </TTGlyph>
    <TTGlyph name="aogonek" xMin="58" yMin="-528" xMax="928" yMax="1335">
      <component glyphName="a" x="0" y="0" flags="0x1004"/>
      <component glyphName="ogonek" x="434" y="-7" flags="0x1004"/>
    </TTGlyph>
    <TTGlyph name="aring" xMin="58" yMin="-29" xMax="928" yMax="1915">
      <component glyphName="a" x="0" y="0" flags="0x1004"/>
      <component glyphName="ring" x="121" y="-1" flags="0x1004"/>
    </TTGlyph>
    <TTGlyph name="asciicircum" xMin="65" yMin="907" xMax="884" yMax="1583">
      <contour>
        <pt x="65" y="907" on="1"/>
        <pt x="336" y="1583" on="1"/>
        <pt x="613" y="1583" on="1"/>
        <pt x="884" y="907" on="1"/>
        <pt x="594" y="907" on="1"/>
        <pt x="474" y="1325" on="1"/>
        <pt x="355" y="907" on="1"/>
      </contour>
    </TTGlyph>
    <TTGlyph name="asciitilde" xMin="138" yMin="822" xMax="877" yMax="1147">
      <contour>
        <pt x="139" y="842" on="1"/>
        <pt x="138" y="926" on="0"/>
        <pt x="185" y="1059" on="0"/>
        <pt x="294" y="1147" on="0"/>
        <pt x="373" y="1147" on="1"/>
        <pt x="419" y="1147" on="0"/>
        <pt x="532" y="1104" on="0"/>
        <pt x="630" y="1060" on="0"/>
        <pt x="658" y="1060" on="1"/>
        <pt x="695" y="1060" on="0"/>
        <pt x="695" y="1129" on="1"/>
        <pt x="876" y="1129" on="1"/>
        <pt x="877" y="1046" on="0"/>
        <pt x="830" y="911" on="0"/>
        <pt x="721" y="822" on="0"/>
        <pt x="642" y="822" on="1"/>
        <pt x="595" y="822" on="0"/>
        <pt x="477" y="866" on="0"/>
        <pt x="378" y="910" on="0"/>
        <pt x="355" y="910" on="1"/>
        <pt x="321" y="910" on="0"/>
        <pt x="321" y="842" on="1"/>
      </contour>
    </TTGlyph>
    <TTGlyph name="asterisk" xMin="76" yMin="858" xMax="868" yMax="1642">
      <contour>
        <pt x="158" y="974" on="1"/>
        <pt x="320" y="1205" on="1"/>
        <pt x="76" y="1299" on="1"/>
        <pt x="150" y="1496" on="1"/>
        <pt x="373" y="1378" on="1"/>
        <pt x="346" y="1642" on="1"/>
        <pt x="596" y="1642" on="1"/>
        <pt x="571" y="1377" on="1"/>
        <pt x="794" y="1497" on="1"/>
        <pt x="868" y="1298" on="1"/>
        <pt x="622" y="1204" on="1"/>
        <pt x="787" y="974" on="1"/>
        <pt x="589" y="858" on="1"/>
        <pt x="471" y="1093" on="1"/>
        <pt x="354" y="858" on="1"/>
      </contour>
    </TTGlyph>
    <TTGlyph name="at" xMin="83" yMin="-130" xMax="1655" yMax="1619">
      <contour>
        <pt x="1245" y="152" on="1"/>
        <pt x="1353" y="-74" on="1"/>
        <pt x="1105" y="-130" on="0"/>
        <pt x="937" y="-130" on="1"/>
        <pt x="706" y="-130" on="0"/>
        <pt x="378" y="-12" on="0"/>
        <pt x="176" y="226" on="0"/>
        <pt x="83" y="562" on="0"/>
        <pt x="83" y="791" on="1"/>
        <pt x="83" y="974" on="0"/>
        <pt x="191" y="1279" on="0"/>
        <pt x="390" y="1498" on="0"/>
        <pt x="690" y="1619" on="0"/>
        <pt x="874" y="1619" on="1"/>
        <pt x="1128" y="1619" on="0"/>
        <pt x="1482" y="1413" on="0"/>
        <pt x="1655" y="1044" on="0"/>
        <pt x="1655" y="791" on="1"/>
        <pt x="1655" y="696" on="0"/>
        <pt x="1611" y="525" on="0"/>
        <pt x="1522" y="380" on="0"/>
        <pt x="1369" y="295" on="0"/>
        <pt x="1270" y="295" on="1"/>
        <pt x="1189" y="295" on="0"/>
        <pt x="1043" y="354" on="0"/>
        <pt x="993" y="412" on="1"/>
        <pt x="944" y="347" on="0"/>
        <pt x="861" y="295" on="0"/>
        <pt x="817" y="295" on="1"/>
        <pt x="707" y="295" on="0"/>
        <pt x="546" y="421" on="0"/>
        <pt x="472" y="608" on="0"/>
        <pt x="472" y="716" on="1"/>
        <pt x="472" y="781" on="0"/>
        <pt x="488" y="913" on="0"/>
        <pt x="534" y="1058" on="0"/>
        <pt x="603" y="1168" on="0"/>
        <pt x="719" y="1240" on="0"/>
        <pt x="793" y="1240" on="1"/>
        <pt x="881" y="1240" on="0"/>
        <pt x="923" y="1177" on="1"/>
        <pt x="923" y="1231" on="1"/>
        <pt x="1210" y="1231" on="1"/>
        <pt x="1210" y="642" on="1"/>
        <pt x="1210" y="640" on="0"/>
        <pt x="1210" y="636" on="1"/>
        <pt x="1210" y="619" on="0"/>
        <pt x="1211" y="600" on="0"/>
        <pt x="1216" y="568" on="0"/>
        <pt x="1227" y="551" on="0"/>
        <pt x="1249" y="537" on="0"/>
        <pt x="1265" y="537" on="1"/>
        <pt x="1298" y="537" on="0"/>
        <pt x="1344" y="596" on="0"/>
        <pt x="1362" y="690" on="0"/>
        <pt x="1368" y="758" on="0"/>
        <pt x="1368" y="791" on="1"/>
        <pt x="1368" y="931" on="0"/>
        <pt x="1322" y="1140" on="0"/>
        <pt x="1213" y="1309" on="0"/>
        <pt x="1016" y="1397" on="0"/>
        <pt x="874" y="1397" on="1"/>
        <pt x="745" y="1397" on="0"/>
        <pt x="547" y="1301" on="0"/>
        <pt x="429" y="1131" on="0"/>
        <pt x="370" y="917" on="0"/>
        <pt x="370" y="791" on="1"/>
        <pt x="370" y="660" on="0"/>
        <pt x="401" y="456" on="0"/>
        <pt x="480" y="277" on="0"/>
        <pt x="607" y="160" on="0"/>
        <pt x="805" y="94" on="0"/>
        <pt x="937" y="94" on="1"/>
        <pt x="1064" y="94" on="0"/>
      </contour>
      <contour>
        <pt x="923" y="565" on="1"/>
        <pt x="923" y="969" on="1"/>
        <pt x="921" y="985" on="0"/>
        <pt x="899" y="1008" on="0"/>
        <pt x="883" y="1008" on="1"/>
        <pt x="853" y="1008" on="0"/>
        <pt x="807" y="983" on="0"/>
        <pt x="781" y="933" on="0"/>
        <pt x="765" y="887" on="0"/>
        <pt x="760" y="812" on="0"/>
        <pt x="759" y="771" on="0"/>
        <pt x="759" y="737" on="1"/>
        <pt x="759" y="722" on="0"/>
        <pt x="759" y="716" on="1"/>
        <pt x="759" y="686" on="0"/>
        <pt x="767" y="632" on="0"/>
        <pt x="786" y="572" on="0"/>
        <pt x="830" y="537" on="0"/>
        <pt x="862" y="537" on="1"/>
        <pt x="896" y="537" on="0"/>
      </contour>
    </TTGlyph>
    <TTGlyph name="atilde" xMin="58" yMin="-29" xMax="928" yMax="1747">
      <component glyphName="a" x="0" y="0" flags="0x1004"/>
      <component glyphName="tilde" x="34" y="18" flags="0x1004"/>
    </TTGlyph>
    <TTGlyph name="b" xMin="95" yMin="-29" xMax="920" yMax="1800">
      <contour>
        <pt x="95" y="0" on="1"/>
        <pt x="95" y="1800" on="1"/>
        <pt x="432" y="1800" on="1"/>
        <pt x="432" y="1217" on="1"/>
        <pt x="473" y="1270" on="0"/>
        <pt x="586" y="1335" on="0"/>
        <pt x="649" y="1335" on="1"/>
        <pt x="764" y="1335" on="0"/>
        <pt x="920" y="1145" on="0"/>
        <pt x="920" y="1021" on="1"/>
        <pt x="920" y="250" on="1"/>
        <pt x="920" y="138" on="0"/>
        <pt x="770" y="-29" on="0"/>
        <pt x="659" y="-29" on="1"/>
        <pt x="592" y="-29" on="0"/>
        <pt x="472" y="39" on="0"/>
        <pt x="432" y="98" on="1"/>
        <pt x="432" y="0" on="1"/>
      </contour>
      <contour>
        <pt x="583" y="319" on="1"/>
        <pt x="583" y="994" on="1"/>
        <pt x="583" y="1080" on="0"/>
        <pt x="527" y="1080" on="1"/>
        <pt x="509" y="1080" on="0"/>
        <pt x="466" y="1046" on="0"/>
        <pt x="450" y="1026" on="0"/>
        <pt x="432" y="1002" on="1"/>
        <pt x="432" y="306" on="1"/>
        <pt x="438" y="298" on="1"/>
        <pt x="443" y="290" on="0"/>
        <pt x="447" y="286" on="0"/>
        <pt x="459" y="270" on="0"/>
        <pt x="465" y="263" on="0"/>
        <pt x="477" y="249" on="0"/>
        <pt x="486" y="243" on="0"/>
        <pt x="498" y="233" on="0"/>
        <pt x="509" y="229" on="0"/>
        <pt x="521" y="225" on="0"/>
        <pt x="527" y="225" on="1"/>
        <pt x="551" y="225" on="0"/>
        <pt x="578" y="257" on="0"/>
        <pt x="583" y="292" on="0"/>
      </contour>
    </TTGlyph>
    <TTGlyph name="backslash" xMin="68" yMin="0" xMax="554" yMax="1843">
      <contour>
        <pt x="265" y="0" on="1"/>
        <pt x="68" y="1843" on="1"/>
        <pt x="356" y="1843" on="1"/>
        <pt x="554" y="0" on="1"/>
      </contour>
    </TTGlyph>
    <TTGlyph name="bar" xMin="134" yMin="-130" xMax="356" yMax="1972">
      <contour>
        <pt x="134" y="-130" on="1"/>
        <pt x="134" y="1972" on="1"/>
        <pt x="356" y="1972" on="1"/>
        <pt x="356" y="-130" on="1"/>
      </contour>
    </TTGlyph>
    <TTGlyph name="braceleft" xMin="70" yMin="-64" xMax="682" yMax="1907">
      <contour>
        <pt x="682" y="158" on="1"/>
        <pt x="682" y="-64" on="1"/>
        <pt x="563" y="-64" on="0"/>
        <pt x="391" y="-9" on="0"/>
        <pt x="285" y="87" on="0"/>
        <pt x="222" y="242" on="0"/>
        <pt x="200" y="414" on="0"/>
        <pt x="200" y="532" on="1"/>
        <pt x="200" y="547" on="0"/>
        <pt x="201" y="608" on="0"/>
        <pt x="202" y="639" on="0"/>
        <pt x="198" y="689" on="0"/>
        <pt x="189" y="716" on="0"/>
        <pt x="170" y="750" on="0"/>
        <pt x="142" y="767" on="0"/>
        <pt x="98" y="778" on="0"/>
        <pt x="70" y="778" on="1"/>
        <pt x="70" y="1065" on="1"/>
        <pt x="102" y="1065" on="0"/>
        <pt x="150" y="1090" on="0"/>
        <pt x="178" y="1142" on="0"/>
        <pt x="195" y="1192" on="0"/>
        <pt x="201" y="1270" on="0"/>
        <pt x="202" y="1316" on="0"/>
        <pt x="200" y="1391" on="0"/>
        <pt x="200" y="1399" on="1"/>
        <pt x="200" y="1558" on="0"/>
        <pt x="246" y="1752" on="0"/>
        <pt x="365" y="1867" on="0"/>
        <pt x="539" y="1907" on="0"/>
        <pt x="682" y="1907" on="1"/>
        <pt x="682" y="1685" on="1"/>
        <pt x="624" y="1685" on="0"/>
        <pt x="551" y="1663" on="0"/>
        <pt x="509" y="1633" on="0"/>
        <pt x="491" y="1548" on="0"/>
        <pt x="487" y="1478" on="0"/>
        <pt x="487" y="1399" on="1"/>
        <pt x="487" y="1337" on="0"/>
        <pt x="473" y="1216" on="0"/>
        <pt x="438" y="1078" on="0"/>
        <pt x="363" y="965" on="0"/>
        <pt x="310" y="934" on="1"/>
        <pt x="361" y="905" on="0"/>
        <pt x="431" y="819" on="0"/>
        <pt x="466" y="709" on="0"/>
        <pt x="482" y="612" on="0"/>
        <pt x="485" y="546" on="1"/>
        <pt x="486" y="523" on="0"/>
        <pt x="489" y="439" on="0"/>
        <pt x="492" y="394" on="0"/>
        <pt x="498" y="322" on="0"/>
        <pt x="510" y="281" on="0"/>
        <pt x="528" y="228" on="0"/>
        <pt x="556" y="199" on="0"/>
        <pt x="594" y="170" on="0"/>
        <pt x="648" y="158" on="0"/>
      </contour>
    </TTGlyph>
    <TTGlyph name="braceright" xMin="70" yMin="-64" xMax="682" yMax="1907">
      <contour>
        <pt x="70" y="-64" on="1"/>
        <pt x="70" y="158" on="1"/>
        <pt x="100" y="158" on="0"/>
        <pt x="149" y="170" on="0"/>
        <pt x="186" y="186" on="0"/>
        <pt x="215" y="222" on="0"/>
        <pt x="234" y="248" on="0"/>
        <pt x="248" y="303" on="0"/>
        <pt x="256" y="337" on="0"/>
        <pt x="261" y="406" on="0"/>
        <pt x="263" y="442" on="0"/>
        <pt x="265" y="482" on="1"/>
        <pt x="265" y="490" on="0"/>
        <pt x="265" y="499" on="0"/>
        <pt x="266" y="514" on="0"/>
        <pt x="266" y="520" on="1"/>
        <pt x="268" y="575" on="0"/>
        <pt x="276" y="653" on="0"/>
        <pt x="299" y="754" on="0"/>
        <pt x="335" y="826" on="0"/>
        <pt x="398" y="898" on="0"/>
        <pt x="442" y="922" on="1"/>
        <pt x="390" y="955" on="0"/>
        <pt x="315" y="1082" on="0"/>
        <pt x="280" y="1236" on="0"/>
        <pt x="265" y="1371" on="0"/>
        <pt x="265" y="1439" on="1"/>
        <pt x="265" y="1474" on="0"/>
        <pt x="265" y="1508" on="0"/>
        <pt x="262" y="1562" on="0"/>
        <pt x="257" y="1586" on="0"/>
        <pt x="247" y="1624" on="0"/>
        <pt x="233" y="1640" on="0"/>
        <pt x="212" y="1663" on="0"/>
        <pt x="184" y="1672" on="0"/>
        <pt x="146" y="1682" on="0"/>
        <pt x="99" y="1685" on="0"/>
        <pt x="70" y="1685" on="1"/>
        <pt x="70" y="1907" on="1"/>
        <pt x="184" y="1907" on="0"/>
        <pt x="337" y="1883" on="0"/>
        <pt x="456" y="1824" on="0"/>
        <pt x="521" y="1716" on="0"/>
        <pt x="553" y="1557" on="0"/>
        <pt x="553" y="1439" on="1"/>
        <pt x="553" y="1431" on="0"/>
        <pt x="551" y="1347" on="0"/>
        <pt x="552" y="1295" on="0"/>
        <pt x="558" y="1208" on="0"/>
        <pt x="575" y="1152" on="0"/>
        <pt x="602" y="1094" on="0"/>
        <pt x="650" y="1065" on="0"/>
        <pt x="682" y="1065" on="1"/>
        <pt x="682" y="778" on="1"/>
        <pt x="654" y="778" on="0"/>
        <pt x="611" y="767" on="0"/>
        <pt x="583" y="750" on="0"/>
        <pt x="564" y="716" on="0"/>
        <pt x="555" y="689" on="0"/>
        <pt x="551" y="639" on="0"/>
        <pt x="552" y="608" on="0"/>
        <pt x="553" y="547" on="0"/>
        <pt x="553" y="532" on="1"/>
        <pt x="553" y="413" on="0"/>
        <pt x="531" y="241" on="0"/>
        <pt x="468" y="86" on="0"/>
        <pt x="362" y="-9" on="0"/>
        <pt x="189" y="-64" on="0"/>
      </contour>
    </TTGlyph>
    <TTGlyph name="bracketleft" xMin="156" yMin="-64" xMax="703" yMax="1907">
      <contour>
        <pt x="156" y="-64" on="1"/>
        <pt x="156" y="1907" on="1"/>
        <pt x="703" y="1907" on="1"/>
        <pt x="703" y="1749" on="1"/>
        <pt x="444" y="1749" on="1"/>
        <pt x="444" y="94" on="1"/>
        <pt x="703" y="94" on="1"/>
        <pt x="703" y="-64" on="1"/>
      </contour>
    </TTGlyph>
    <TTGlyph name="bracketright" xMin="76" yMin="-64" xMax="588" yMax="1856">
      <contour>
        <pt x="76" y="-64" on="1"/>
        <pt x="76" y="64" on="1"/>
        <pt x="332" y="64" on="1"/>
        <pt x="332" y="1728" on="1"/>
        <pt x="76" y="1728" on="1"/>
        <pt x="76" y="1856" on="1"/>
        <pt x="588" y="1856" on="1"/>
        <pt x="588" y="-64" on="1"/>
      </contour>
    </TTGlyph>
    <TTGlyph name="breve" xMin="95" yMin="1438" xMax="601" yMax="1686">
      <contour>
        <pt x="95" y="1686" on="1"/>
        <pt x="267" y="1686" on="1"/>
        <pt x="267" y="1658" on="0"/>
        <pt x="281" y="1604" on="0"/>
        <pt x="319" y="1559" on="0"/>
        <pt x="377" y="1559" on="0"/>
        <pt x="415" y="1604" on="0"/>
        <pt x="429" y="1658" on="0"/>
        <pt x="429" y="1686" on="1"/>
        <pt x="601" y="1686" on="1"/>
        <pt x="601" y="1576" on="0"/>
        <pt x="459" y="1438" on="0"/>
        <pt x="237" y="1438" on="0"/>
        <pt x="95" y="1576" on="0"/>
      </contour>
    </TTGlyph>
    <TTGlyph name="brokenbar" xMin="98" yMin="-15" xMax="332" yMax="1565">
      <contour>
        <pt x="98" y="900" on="1"/>
        <pt x="98" y="1565" on="1"/>
        <pt x="332" y="1565" on="1"/>
        <pt x="332" y="900" on="1"/>
      </contour>
      <contour>
        <pt x="98" y="-15" on="1"/>
        <pt x="98" y="650" on="1"/>
        <pt x="332" y="650" on="1"/>
        <pt x="332" y="-15" on="1"/>
      </contour>
    </TTGlyph>
    <TTGlyph name="bullet" xMin="121" yMin="335" xMax="869" yMax="1105">
      <contour>
        <pt x="566" y="335" on="0"/>
        <pt x="422" y="335" on="0"/>
        <pt x="291" y="384" on="0"/>
        <pt x="184" y="477" on="0"/>
        <pt x="121" y="626" on="0"/>
        <pt x="121" y="718" on="1"/>
        <pt x="121" y="811" on="0"/>
        <pt x="185" y="962" on="0"/>
        <pt x="291" y="1055" on="0"/>
        <pt x="423" y="1105" on="0"/>
        <pt x="494" y="1105" on="1"/>
        <pt x="566" y="1105" on="0"/>
        <pt x="698" y="1055" on="0"/>
        <pt x="805" y="962" on="0"/>
        <pt x="869" y="811" on="0"/>
        <pt x="869" y="718" on="1"/>
        <pt x="869" y="626" on="0"/>
        <pt x="805" y="477" on="0"/>
        <pt x="698" y="384" on="0"/>
      </contour>
    </TTGlyph>
    <TTGlyph name="c" xMin="78" yMin="-29" xMax="880" yMax="1335">
      <contour>
        <pt x="78" y="334" on="1"/>
        <pt x="78" y="894" on="1"/>
        <pt x="78" y="1102" on="0"/>
        <pt x="276" y="1335" on="0"/>
        <pt x="479" y="1335" on="1"/>
        <pt x="683" y="1335" on="0"/>
        <pt x="880" y="1103" on="0"/>
        <pt x="880" y="894" on="1"/>
        <pt x="880" y="780" on="1"/>
        <pt x="549" y="780" on="1"/>
        <pt x="549" y="929" on="1"/>
        <pt x="549" y="1007" on="0"/>
        <pt x="522" y="1080" on="0"/>
        <pt x="479" y="1080" on="1"/>
        <pt x="415" y="1080" on="0"/>
        <pt x="415" y="981" on="1"/>
        <pt x="415" y="335" on="1"/>
        <pt x="415" y="225" on="0"/>
        <pt x="479" y="225" on="1"/>
        <pt x="503" y="225" on="0"/>
        <pt x="532" y="245" on="0"/>
        <pt x="545" y="293" on="0"/>
        <pt x="549" y="344" on="0"/>
        <pt x="549" y="390" on="1"/>
        <pt x="549" y="529" on="1"/>
        <pt x="880" y="529" on="1"/>
        <pt x="880" y="334" on="1"/>
        <pt x="880" y="226" on="0"/>
        <pt x="768" y="57" on="0"/>
        <pt x="586" y="-29" on="0"/>
        <pt x="479" y="-29" on="1"/>
        <pt x="314" y="-29" on="0"/>
        <pt x="78" y="172" on="0"/>
      </contour>
    </TTGlyph>
    <TTGlyph name="cacute" xMin="78" yMin="-29" xMax="880" yMax="1879">
      <component glyphName="c" x="0" y="0" flags="0x1004"/>
      <component glyphName="acute" x="264" y="44" flags="0x1004"/>
    </TTGlyph>
    <TTGlyph name="caron" xMin="80" yMin="1385" xMax="777" yMax="1791">
      <contour>
        <pt x="281" y="1385" on="1"/>
        <pt x="80" y="1791" on="1"/>
        <pt x="354" y="1791" on="1"/>
        <pt x="427" y="1590" on="1"/>
        <pt x="502" y="1791" on="1"/>
        <pt x="777" y="1791" on="1"/>
        <pt x="571" y="1385" on="1"/>
      </contour>
    </TTGlyph>
    <TTGlyph name="ccaron" xMin="78" yMin="-29" xMax="880" yMax="1843">
      <component glyphName="c" x="0" y="0" flags="0x1004"/>
      <component glyphName="caron" x="50" y="52" flags="0x1004"/>
    </TTGlyph>
    <TTGlyph name="ccedilla" xMin="78" yMin="-571" xMax="880" yMax="1335">
      <component glyphName="c" x="0" y="0" flags="0x1004"/>
      <component glyphName="cedilla" x="206" y="-10" flags="0x1004"/>
    </TTGlyph>
    <TTGlyph name="ccircumflex" xMin="78" yMin="-29" xMax="880" yMax="1843">
      <component glyphName="c" x="0" y="0" flags="0x1004"/>
      <component glyphName="circumflex" x="24" y="44" flags="0x1004"/>
    </TTGlyph>
    <TTGlyph name="cdotaccent" xMin="78" yMin="-29" xMax="880" yMax="1755">
      <component glyphName="c" x="0" y="0" flags="0x1004"/>
      <component glyphName="dotaccent" x="172" y="-62" flags="0x1004"/>
    </TTGlyph>
    <TTGlyph name="cedilla" xMin="132" yMin="-561" xMax="580" yMax="0">
      <contour>
        <pt x="132" y="-561" on="1"/>
        <pt x="132" y="-400" on="1"/>
        <pt x="135" y="-400" on="0"/>
        <pt x="172" y="-401" on="0"/>
        <pt x="207" y="-401" on="0"/>
        <pt x="256" y="-400" on="0"/>
        <pt x="296" y="-394" on="0"/>
        <pt x="332" y="-386" on="0"/>
        <pt x="353" y="-369" on="0"/>
        <pt x="353" y="-358" on="1"/>
        <pt x="353" y="-348" on="0"/>
        <pt x="345" y="-329" on="0"/>
        <pt x="328" y="-312" on="0"/>
        <pt x="312" y="-297" on="0"/>
        <pt x="284" y="-282" on="0"/>
        <pt x="266" y="-272" on="0"/>
        <pt x="233" y="-259" on="0"/>
        <pt x="220" y="-253" on="0"/>
        <pt x="190" y="-243" on="0"/>
        <pt x="188" y="-242" on="1"/>
        <pt x="188" y="0" on="1"/>
        <pt x="359" y="0" on="1"/>
        <pt x="359" y="-129" on="1"/>
        <pt x="580" y="-233" on="0"/>
        <pt x="580" y="-362" on="1"/>
        <pt x="580" y="-403" on="0"/>
        <pt x="543" y="-468" on="0"/>
        <pt x="489" y="-509" on="0"/>
        <pt x="402" y="-538" on="0"/>
        <pt x="331" y="-552" on="0"/>
        <pt x="228" y="-560" on="0"/>
        <pt x="174" y="-561" on="0"/>
      </contour>
    </TTGlyph>
    <TTGlyph name="cent" xMin="87" yMin="-263" xMax="889" yMax="1568">
      <contour>
        <pt x="447" y="-263" on="1"/>
        <pt x="447" y="32" on="1"/>
        <pt x="295" y="45" on="0"/>
        <pt x="87" y="247" on="0"/>
        <pt x="87" y="399" on="1"/>
        <pt x="87" y="844" on="1"/>
        <pt x="87" y="1041" on="0"/>
        <pt x="264" y="1269" on="0"/>
        <pt x="447" y="1281" on="1"/>
        <pt x="447" y="1568" on="1"/>
        <pt x="537" y="1568" on="1"/>
        <pt x="537" y="1281" on="1"/>
        <pt x="716" y="1267" on="0"/>
        <pt x="889" y="1040" on="0"/>
        <pt x="889" y="844" on="1"/>
        <pt x="889" y="788" on="1"/>
        <pt x="557" y="788" on="1"/>
        <pt x="558" y="862" on="1"/>
        <pt x="559" y="938" on="0"/>
        <pt x="532" y="1013" on="0"/>
        <pt x="488" y="1013" on="1"/>
        <pt x="424" y="1013" on="0"/>
        <pt x="424" y="914" on="1"/>
        <pt x="424" y="406" on="1"/>
        <pt x="424" y="296" on="0"/>
        <pt x="488" y="296" on="1"/>
        <pt x="529" y="296" on="0"/>
        <pt x="559" y="356" on="0"/>
        <pt x="559" y="421" on="1"/>
        <pt x="559" y="426" on="0"/>
        <pt x="558" y="444" on="0"/>
        <pt x="557" y="492" on="0"/>
        <pt x="557" y="526" on="1"/>
        <pt x="889" y="526" on="1"/>
        <pt x="889" y="399" on="1"/>
        <pt x="889" y="249" on="0"/>
        <pt x="686" y="48" on="0"/>
        <pt x="537" y="32" on="1"/>
        <pt x="537" y="-263" on="1"/>
      </contour>
    </TTGlyph>
    <TTGlyph name="circumflex" xMin="107" yMin="1393" xMax="804" yMax="1799">
      <contour>
        <pt x="107" y="1393" on="1"/>
        <pt x="308" y="1799" on="1"/>
        <pt x="598" y="1799" on="1"/>
        <pt x="804" y="1393" on="1"/>
        <pt x="529" y="1393" on="1"/>
        <pt x="454" y="1595" on="1"/>
        <pt x="381" y="1393" on="1"/>
      </contour>
    </TTGlyph>
    <TTGlyph name="colon" xMin="99" yMin="151" xMax="420" yMax="1213">
      <contour>
        <pt x="99" y="151" on="1"/>
        <pt x="99" y="466" on="1"/>
        <pt x="420" y="466" on="1"/>
        <pt x="420" y="151" on="1"/>
      </contour>
      <contour>
        <pt x="99" y="897" on="1"/>
        <pt x="99" y="1213" on="1"/>
        <pt x="420" y="1213" on="1"/>
        <pt x="420" y="897" on="1"/>
      </contour>
    </TTGlyph>
    <TTGlyph name="comma" xMin="84" yMin="-255" xMax="408" yMax="317">
      <contour>
        <pt x="153" y="-244" on="1"/>
        <pt x="113" y="-78" on="1"/>
        <pt x="118" y="-78" on="0"/>
        <pt x="128" y="-78" on="1"/>
        <pt x="154" y="-78" on="0"/>
        <pt x="173" y="-77" on="0"/>
        <pt x="191" y="-60" on="0"/>
        <pt x="194" y="-32" on="0"/>
        <pt x="194" y="-1" on="1"/>
        <pt x="84" y="-1" on="1"/>
        <pt x="84" y="317" on="1"/>
        <pt x="407" y="317" on="1"/>
        <pt x="407" y="287" on="0"/>
        <pt x="407" y="229" on="1"/>
        <pt x="408" y="114" on="0"/>
        <pt x="405" y="4" on="0"/>
        <pt x="381" y="-151" on="0"/>
        <pt x="329" y="-214" on="0"/>
        <pt x="228" y="-255" on="0"/>
      </contour>
    </TTGlyph>
    <TTGlyph name="copyright" xMin="83" yMin="-15" xMax="1516" yMax="1461">
      <contour>
        <pt x="799" y="-15" on="1"/>
        <pt x="651" y="-15" on="0"/>
        <pt x="384" y="104" on="0"/>
        <pt x="194" y="304" on="0"/>
        <pt x="83" y="575" on="0"/>
        <pt x="83" y="723" on="1"/>
        <pt x="83" y="870" on="0"/>
        <pt x="194" y="1142" on="0"/>
        <pt x="384" y="1342" on="0"/>
        <pt x="651" y="1461" on="0"/>
        <pt x="799" y="1461" on="1"/>
        <pt x="997" y="1461" on="0"/>
        <pt x="1328" y="1259" on="0"/>
        <pt x="1516" y="920" on="0"/>
        <pt x="1516" y="723" on="1"/>
        <pt x="1516" y="527" on="0"/>
        <pt x="1328" y="188" on="0"/>
        <pt x="997" y="-15" on="0"/>
      </contour>
      <contour>
        <pt x="799" y="163" on="1"/>
        <pt x="909" y="163" on="0"/>
        <pt x="1103" y="256" on="0"/>
        <pt x="1236" y="410" on="0"/>
        <pt x="1313" y="612" on="0"/>
        <pt x="1313" y="826" on="0"/>
        <pt x="1236" y="1028" on="0"/>
        <pt x="1103" y="1182" on="0"/>
        <pt x="909" y="1275" on="0"/>
        <pt x="799" y="1275" on="1"/>
        <pt x="653" y="1275" on="0"/>
        <pt x="414" y="1117" on="0"/>
        <pt x="284" y="864" on="0"/>
        <pt x="284" y="574" on="0"/>
        <pt x="414" y="321" on="0"/>
        <pt x="653" y="163" on="0"/>
      </contour>
      <contour>
        <pt x="896" y="614" on="1"/>
        <pt x="1106" y="614" on="1"/>
        <pt x="1106" y="435" on="0"/>
        <pt x="958" y="219" on="0"/>
        <pt x="803" y="219" on="1"/>
        <pt x="753" y="219" on="0"/>
        <pt x="671" y="239" on="0"/>
        <pt x="611" y="270" on="0"/>
        <pt x="563" y="324" on="0"/>
        <pt x="532" y="375" on="0"/>
        <pt x="510" y="453" on="0"/>
        <pt x="499" y="514" on="0"/>
        <pt x="493" y="607" on="0"/>
        <pt x="492" y="668" on="0"/>
        <pt x="492" y="716" on="1"/>
        <pt x="492" y="769" on="0"/>
        <pt x="493" y="829" on="0"/>
        <pt x="499" y="927" on="0"/>
        <pt x="510" y="987" on="0"/>
        <pt x="532" y="1068" on="0"/>
        <pt x="563" y="1118" on="0"/>
        <pt x="612" y="1173" on="0"/>
        <pt x="674" y="1203" on="0"/>
        <pt x="759" y="1223" on="0"/>
        <pt x="810" y="1223" on="1"/>
        <pt x="893" y="1223" on="0"/>
        <pt x="1013" y="1164" on="0"/>
        <pt x="1079" y="1057" on="0"/>
        <pt x="1108" y="930" on="0"/>
        <pt x="1108" y="851" on="1"/>
        <pt x="894" y="851" on="1"/>
        <pt x="894" y="878" on="0"/>
        <pt x="893" y="910" on="0"/>
        <pt x="885" y="976" on="0"/>
        <pt x="869" y="1015" on="0"/>
        <pt x="836" y="1048" on="0"/>
        <pt x="812" y="1048" on="1"/>
        <pt x="745" y="1048" on="0"/>
        <pt x="687" y="912" on="0"/>
        <pt x="687" y="730" on="1"/>
        <pt x="687" y="588" on="0"/>
        <pt x="716" y="439" on="0"/>
        <pt x="762" y="398" on="0"/>
        <pt x="803" y="398" on="1"/>
        <pt x="820" y="398" on="0"/>
        <pt x="849" y="410" on="0"/>
        <pt x="868" y="437" on="0"/>
        <pt x="882" y="460" on="0"/>
        <pt x="889" y="504" on="0"/>
        <pt x="894" y="528" on="0"/>
        <pt x="896" y="579" on="0"/>
        <pt x="896" y="592" on="0"/>
      </contour>
    </TTGlyph>
    <TTGlyph name="currency" xMin="120" yMin="489" xMax="934" yMax="1303">
      <contour>
        <pt x="335" y="897" on="1"/>
        <pt x="335" y="809" on="0"/>
        <pt x="439" y="682" on="0"/>
        <pt x="527" y="682" on="1"/>
        <pt x="621" y="682" on="0"/>
        <pt x="719" y="808" on="0"/>
        <pt x="719" y="896" on="1"/>
        <pt x="719" y="985" on="0"/>
        <pt x="622" y="1110" on="0"/>
        <pt x="432" y="1110" on="0"/>
        <pt x="335" y="986" on="0"/>
      </contour>
      <contour>
        <pt x="120" y="579" on="1"/>
        <pt x="206" y="665" on="1"/>
        <pt x="143" y="762" on="0"/>
        <pt x="143" y="897" on="1"/>
        <pt x="143" y="1030" on="0"/>
        <pt x="206" y="1127" on="1"/>
        <pt x="120" y="1213" on="1"/>
        <pt x="210" y="1303" on="1"/>
        <pt x="296" y="1217" on="1"/>
        <pt x="391" y="1280" on="0"/>
        <pt x="663" y="1280" on="0"/>
        <pt x="758" y="1217" on="1"/>
        <pt x="844" y="1303" on="1"/>
        <pt x="934" y="1213" on="1"/>
        <pt x="847" y="1126" on="1"/>
        <pt x="911" y="1029" on="0"/>
        <pt x="911" y="897" on="1"/>
        <pt x="911" y="764" on="0"/>
        <pt x="847" y="665" on="1"/>
        <pt x="934" y="579" on="1"/>
        <pt x="844" y="489" on="1"/>
        <pt x="758" y="575" on="1"/>
        <pt x="663" y="512" on="0"/>
        <pt x="391" y="512" on="0"/>
        <pt x="296" y="575" on="1"/>
        <pt x="210" y="489" on="1"/>
      </contour>
    </TTGlyph>
    <TTGlyph name="d" xMin="79" yMin="-29" xMax="904" yMax="1800">
      <contour>
        <pt x="79" y="250" on="1"/>
        <pt x="79" y="1021" on="1"/>
        <pt x="79" y="1145" on="0"/>
        <pt x="235" y="1335" on="0"/>
        <pt x="350" y="1335" on="1"/>
        <pt x="413" y="1335" on="0"/>
        <pt x="526" y="1270" on="0"/>
        <pt x="567" y="1217" on="1"/>
        <pt x="567" y="1800" on="1"/>
        <pt x="904" y="1800" on="1"/>
        <pt x="904" y="0" on="1"/>
        <pt x="567" y="0" on="1"/>
        <pt x="567" y="98" on="1"/>
        <pt x="527" y="39" on="0"/>
        <pt x="407" y="-29" on="0"/>
        <pt x="340" y="-29" on="1"/>
        <pt x="229" y="-29" on="0"/>
        <pt x="79" y="138" on="0"/>
      </contour>
      <contour>
        <pt x="567" y="297" on="1"/>
        <pt x="567" y="1005" on="1"/>
        <pt x="510" y="1080" on="0"/>
        <pt x="472" y="1080" on="1"/>
        <pt x="416" y="1080" on="0"/>
        <pt x="416" y="994" on="1"/>
        <pt x="416" y="319" on="1"/>
        <pt x="416" y="292" on="0"/>
        <pt x="421" y="257" on="0"/>
        <pt x="448" y="225" on="0"/>
        <pt x="472" y="225" on="1"/>
        <pt x="515" y="225" on="0"/>
      </contour>
    </TTGlyph>
    <TTGlyph name="dagger" xMin="79" yMin="0" xMax="719" yMax="1536">
      <contour>
        <pt x="271" y="0" on="1"/>
        <pt x="271" y="944" on="1"/>
        <pt x="79" y="944" on="1"/>
        <pt x="79" y="1200" on="1"/>
        <pt x="271" y="1200" on="1"/>
        <pt x="271" y="1536" on="1"/>
        <pt x="527" y="1536" on="1"/>
        <pt x="527" y="1200" on="1"/>
        <pt x="719" y="1200" on="1"/>
        <pt x="719" y="944" on="1"/>
        <pt x="527" y="944" on="1"/>
        <pt x="527" y="0" on="1"/>
      </contour>
    </TTGlyph>
    <TTGlyph name="daggerdbl" xMin="79" yMin="0" xMax="719" yMax="1536">
      <contour>
        <pt x="271" y="0" on="1"/>
        <pt x="271" y="448" on="1"/>
        <pt x="79" y="448" on="1"/>
        <pt x="79" y="704" on="1"/>
        <pt x="271" y="704" on="1"/>
        <pt x="271" y="1024" on="1"/>
        <pt x="79" y="1024" on="1"/>
        <pt x="79" y="1280" on="1"/>
        <pt x="271" y="1280" on="1"/>
        <pt x="271" y="1536" on="1"/>
        <pt x="527" y="1536" on="1"/>
        <pt x="527" y="1280" on="1"/>
        <pt x="719" y="1280" on="1"/>
        <pt x="719" y="1024" on="1"/>
        <pt x="527" y="1024" on="1"/>
        <pt x="527" y="704" on="1"/>
        <pt x="719" y="704" on="1"/>
        <pt x="719" y="448" on="1"/>
        <pt x="527" y="448" on="1"/>
        <pt x="527" y="0" on="1"/>
      </contour>
    </TTGlyph>
    <TTGlyph name="dcaron" xMin="79" yMin="-29" xMax="1381" yMax="1800">
      <component glyphName="d" x="0" y="0" flags="0x1004"/>
      <component glyphName="comma" x="973" y="1483" flags="0x1004"/>
    </TTGlyph>
    <TTGlyph name="dcroat" xMin="79" yMin="-29" xMax="999" yMax="1800">
      <contour>
        <pt x="567" y="297" on="1"/>
        <pt x="567" y="1005" on="1"/>
        <pt x="510" y="1080" on="0"/>
        <pt x="472" y="1080" on="1"/>
        <pt x="416" y="1080" on="0"/>
        <pt x="416" y="994" on="1"/>
        <pt x="416" y="319" on="1"/>
        <pt x="416" y="292" on="0"/>
        <pt x="421" y="257" on="0"/>
        <pt x="448" y="225" on="0"/>
        <pt x="472" y="225" on="1"/>
        <pt x="515" y="225" on="0"/>
      </contour>
      <contour>
        <pt x="79" y="250" on="1"/>
        <pt x="79" y="1021" on="1"/>
        <pt x="79" y="1145" on="0"/>
        <pt x="235" y="1335" on="0"/>
        <pt x="350" y="1335" on="1"/>
        <pt x="413" y="1335" on="0"/>
        <pt x="526" y="1270" on="0"/>
        <pt x="567" y="1217" on="1"/>
        <pt x="567" y="1504" on="1"/>
        <pt x="284" y="1504" on="1"/>
        <pt x="284" y="1637" on="1"/>
        <pt x="567" y="1637" on="1"/>
        <pt x="567" y="1800" on="1"/>
        <pt x="904" y="1800" on="1"/>
        <pt x="904" y="1637" on="1"/>
        <pt x="999" y="1637" on="1"/>
        <pt x="999" y="1504" on="1"/>
        <pt x="904" y="1504" on="1"/>
        <pt x="904" y="0" on="1"/>
        <pt x="567" y="0" on="1"/>
        <pt x="567" y="98" on="1"/>
        <pt x="527" y="39" on="0"/>
        <pt x="407" y="-29" on="0"/>
        <pt x="340" y="-29" on="1"/>
        <pt x="229" y="-29" on="0"/>
        <pt x="79" y="138" on="0"/>
      </contour>
    </TTGlyph>
    <TTGlyph name="degree" xMin="138" yMin="1055" xMax="944" yMax="1861">
      <contour>
        <pt x="540" y="1255" on="1"/>
        <pt x="625" y="1255" on="0"/>
        <pt x="720" y="1372" on="0"/>
        <pt x="720" y="1458" on="1"/>
        <pt x="720" y="1545" on="0"/>
        <pt x="626" y="1660" on="0"/>
        <pt x="540" y="1660" on="1"/>
        <pt x="455" y="1660" on="0"/>
        <pt x="360" y="1545" on="0"/>
        <pt x="360" y="1373" on="0"/>
        <pt x="456" y="1255" on="0"/>
      </contour>
      <contour>
        <pt x="540" y="1055" on="1"/>
        <pt x="355" y="1055" on="0"/>
        <pt x="138" y="1275" on="0"/>
        <pt x="138" y="1459" on="1"/>
        <pt x="138" y="1644" on="0"/>
        <pt x="356" y="1861" on="0"/>
        <pt x="540" y="1861" on="1"/>
        <pt x="725" y="1861" on="0"/>
        <pt x="944" y="1643" on="0"/>
        <pt x="944" y="1459" on="1"/>
        <pt x="944" y="1274" on="0"/>
        <pt x="726" y="1055" on="0"/>
      </contour>
    </TTGlyph>
    <TTGlyph name="dieresis" xMin="116" yMin="1492" xMax="873" yMax="1800">
      <contour>
        <pt x="569" y="1492" on="1"/>
        <pt x="569" y="1800" on="1"/>
        <pt x="873" y="1800" on="1"/>
        <pt x="873" y="1492" on="1"/>
      </contour>
      <contour>
        <pt x="116" y="1492" on="1"/>
        <pt x="116" y="1800" on="1"/>
        <pt x="419" y="1800" on="1"/>
        <pt x="419" y="1492" on="1"/>
      </contour>
    </TTGlyph>
    <TTGlyph name="divide" xMin="6" yMin="236" xMax="682" yMax="1177">
      <contour>
        <pt x="200" y="236" on="1"/>
        <pt x="200" y="523" on="1"/>
        <pt x="487" y="523" on="1"/>
        <pt x="487" y="236" on="1"/>
      </contour>
      <contour>
        <pt x="200" y="890" on="1"/>
        <pt x="200" y="1177" on="1"/>
        <pt x="487" y="1177" on="1"/>
        <pt x="487" y="890" on="1"/>
      </contour>
      <contour>
        <pt x="6" y="583" on="1"/>
        <pt x="6" y="806" on="1"/>
        <pt x="682" y="806" on="1"/>
        <pt x="682" y="583" on="1"/>
      </contour>
    </TTGlyph>
    <TTGlyph name="dollar" xMin="93" yMin="-100" xMax="1057" yMax="1931">
      <contour>
        <pt x="529" y="-100" on="1"/>
        <pt x="529" y="71" on="1"/>
        <pt x="416" y="81" on="0"/>
        <pt x="245" y="165" on="0"/>
        <pt x="143" y="301" on="0"/>
        <pt x="93" y="468" on="0"/>
        <pt x="93" y="568" on="1"/>
        <pt x="457" y="637" on="1"/>
        <pt x="457" y="588" on="1"/>
        <pt x="457" y="555" on="0"/>
        <pt x="461" y="502" on="0"/>
        <pt x="477" y="430" on="0"/>
        <pt x="504" y="383" on="0"/>
        <pt x="558" y="349" on="0"/>
        <pt x="595" y="349" on="1"/>
        <pt x="698" y="349" on="0"/>
        <pt x="698" y="472" on="1"/>
        <pt x="698" y="497" on="0"/>
        <pt x="688" y="542" on="0"/>
        <pt x="660" y="587" on="0"/>
        <pt x="640" y="616" on="0"/>
        <pt x="588" y="662" on="0"/>
        <pt x="567" y="681" on="0"/>
        <pt x="498" y="734" on="0"/>
        <pt x="489" y="741" on="1"/>
        <pt x="377" y="830" on="1"/>
        <pt x="324" y="872" on="0"/>
        <pt x="261" y="926" on="0"/>
        <pt x="175" y="1019" on="0"/>
        <pt x="129" y="1103" on="0"/>
        <pt x="94" y="1221" on="0"/>
        <pt x="94" y="1287" on="1"/>
        <pt x="94" y="1481" on="0"/>
        <pt x="330" y="1716" on="0"/>
        <pt x="529" y="1734" on="1"/>
        <pt x="529" y="1931" on="1"/>
        <pt x="625" y="1931" on="1"/>
        <pt x="625" y="1737" on="1"/>
        <pt x="808" y="1728" on="0"/>
        <pt x="1055" y="1493" on="0"/>
        <pt x="1055" y="1321" on="1"/>
        <pt x="1055" y="1275" on="1"/>
        <pt x="682" y="1225" on="1"/>
        <pt x="685" y="1279" on="0"/>
        <pt x="685" y="1299" on="1"/>
        <pt x="685" y="1461" on="0"/>
        <pt x="573" y="1461" on="1"/>
        <pt x="512" y="1461" on="0"/>
        <pt x="452" y="1383" on="0"/>
        <pt x="452" y="1331" on="1"/>
        <pt x="452" y="1259" on="0"/>
        <pt x="529" y="1156" on="0"/>
        <pt x="604" y="1099" on="1"/>
        <pt x="727" y="1006" on="1"/>
        <pt x="798" y="953" on="0"/>
        <pt x="884" y="880" on="0"/>
        <pt x="976" y="779" on="0"/>
        <pt x="1025" y="683" on="0"/>
        <pt x="1057" y="555" on="0"/>
        <pt x="1057" y="479" on="1"/>
        <pt x="1057" y="306" on="0"/>
        <pt x="807" y="79" on="0"/>
        <pt x="625" y="70" on="1"/>
        <pt x="625" y="-100" on="1"/>
      </contour>
    </TTGlyph>
    <TTGlyph name="dotaccent" xMin="146" yMin="1499" xMax="469" yMax="1817">
      <contour>
        <pt x="146" y="1499" on="1"/>
        <pt x="146" y="1817" on="1"/>
        <pt x="469" y="1817" on="1"/>
        <pt x="469" y="1499" on="1"/>
      </contour>
    </TTGlyph>
    <TTGlyph name="dotlessi" xMin="124" yMin="0" xMax="461" yMax="1305">
      <contour>
        <pt x="124" y="0" on="1"/>
        <pt x="124" y="1305" on="1"/>
        <pt x="461" y="1305" on="1"/>
        <pt x="461" y="0" on="1"/>
      </contour>
    </TTGlyph>
    <TTGlyph name="e" xMin="78" yMin="-29" xMax="880" yMax="1335">
      <contour>
        <pt x="415" y="801" on="1"/>
        <pt x="546" y="801" on="1"/>
        <pt x="546" y="981" on="1"/>
        <pt x="546" y="1080" on="0"/>
        <pt x="479" y="1080" on="1"/>
        <pt x="415" y="1080" on="0"/>
        <pt x="415" y="981" on="1"/>
      </contour>
      <contour>
        <pt x="78" y="339" on="1"/>
        <pt x="78" y="894" on="1"/>
        <pt x="78" y="1102" on="0"/>
        <pt x="276" y="1335" on="0"/>
        <pt x="479" y="1335" on="1"/>
        <pt x="683" y="1335" on="0"/>
        <pt x="880" y="1103" on="0"/>
        <pt x="880" y="894" on="1"/>
        <pt x="880" y="624" on="1"/>
        <pt x="415" y="624" on="1"/>
        <pt x="415" y="335" on="1"/>
        <pt x="415" y="225" on="0"/>
        <pt x="479" y="225" on="1"/>
        <pt x="549" y="225" on="0"/>
        <pt x="549" y="343" on="1"/>
        <pt x="549" y="486" on="1"/>
        <pt x="880" y="486" on="1"/>
        <pt x="880" y="339" on="1"/>
        <pt x="880" y="176" on="0"/>
        <pt x="644" y="-29" on="0"/>
        <pt x="314" y="-29" on="0"/>
        <pt x="78" y="177" on="0"/>
      </contour>
    </TTGlyph>
    <TTGlyph name="eacute" xMin="78" yMin="-29" xMax="880" yMax="1879">
      <component glyphName="e" x="0" y="0" flags="0x1004"/>
      <component glyphName="acute" x="264" y="44" flags="0x1004"/>
    </TTGlyph>
    <TTGlyph name="ecaron" xMin="78" yMin="-29" xMax="880" yMax="1843">
      <component glyphName="e" x="0" y="0" flags="0x1004"/>
      <component glyphName="caron" x="50" y="52" flags="0x1004"/>
    </TTGlyph>
    <TTGlyph name="ecircumflex" xMin="78" yMin="-29" xMax="880" yMax="1843">
      <component glyphName="e" x="0" y="0" flags="0x1004"/>
      <component glyphName="circumflex" x="24" y="44" flags="0x1004"/>
    </TTGlyph>
    <TTGlyph name="edieresis" xMin="78" yMin="-29" xMax="880" yMax="1745">
      <component glyphName="e" x="0" y="0" flags="0x1004"/>
      <component glyphName="dieresis" x="-16" y="-55" flags="0x1004"/>
    </TTGlyph>
    <TTGlyph name="edotaccent" xMin="78" yMin="-29" xMax="880" yMax="1775">
      <component glyphName="dotaccent" x="172" y="-42" flags="0x1004"/>
      <component glyphName="e" x="0" y="0" flags="0x1204"/>
    </TTGlyph>
    <TTGlyph name="egrave" xMin="78" yMin="-29" xMax="880" yMax="1879">
      <component glyphName="e" x="0" y="0" flags="0x1004"/>
      <component glyphName="grave" x="24" y="44" flags="0x1004"/>
    </TTGlyph>
    <TTGlyph name="eight" xMin="60" yMin="-31" xMax="1028" yMax="1836">
      <contour>
        <pt x="514" y="251" on="0"/>
        <pt x="574" y="251" on="0"/>
        <pt x="621" y="271" on="0"/>
        <pt x="650" y="298" on="0"/>
        <pt x="672" y="347" on="0"/>
        <pt x="682" y="385" on="0"/>
        <pt x="687" y="447" on="0"/>
        <pt x="688" y="479" on="0"/>
        <pt x="688" y="508" on="1"/>
        <pt x="688" y="804" on="0"/>
        <pt x="544" y="804" on="1"/>
        <pt x="399" y="804" on="0"/>
        <pt x="399" y="508" on="1"/>
        <pt x="399" y="480" on="0"/>
        <pt x="400" y="445" on="0"/>
        <pt x="406" y="385" on="0"/>
        <pt x="416" y="346" on="0"/>
        <pt x="438" y="298" on="0"/>
        <pt x="468" y="270" on="0"/>
      </contour>
      <contour>
        <pt x="214" y="952" on="1"/>
        <pt x="82" y="1088" on="0"/>
        <pt x="82" y="1337" on="1"/>
        <pt x="82" y="1568" on="0"/>
        <pt x="317" y="1836" on="0"/>
        <pt x="771" y="1836" on="0"/>
        <pt x="1003" y="1567" on="0"/>
        <pt x="1003" y="1337" on="1"/>
        <pt x="1003" y="1084" on="0"/>
        <pt x="872" y="952" on="1"/>
        <pt x="920" y="913" on="0"/>
        <pt x="984" y="816" on="0"/>
        <pt x="1016" y="703" on="0"/>
        <pt x="1028" y="596" on="0"/>
        <pt x="1028" y="528" on="1"/>
        <pt x="1028" y="400" on="0"/>
        <pt x="977" y="202" on="0"/>
        <pt x="867" y="49" on="0"/>
        <pt x="676" y="-31" on="0"/>
        <pt x="544" y="-31" on="1"/>
        <pt x="60" y="-31" on="0"/>
        <pt x="60" y="528" on="1"/>
        <pt x="60" y="671" on="0"/>
        <pt x="122" y="878" on="0"/>
      </contour>
      <contour>
        <pt x="544" y="1074" on="1"/>
        <pt x="567" y="1074" on="0"/>
        <pt x="604" y="1098" on="0"/>
        <pt x="628" y="1132" on="0"/>
        <pt x="644" y="1190" on="0"/>
        <pt x="652" y="1235" on="0"/>
        <pt x="656" y="1304" on="0"/>
        <pt x="657" y="1338" on="0"/>
        <pt x="657" y="1367" on="1"/>
        <pt x="657" y="1561" on="0"/>
        <pt x="544" y="1561" on="1"/>
        <pt x="508" y="1561" on="0"/>
        <pt x="459" y="1522" on="0"/>
        <pt x="437" y="1456" on="0"/>
        <pt x="429" y="1399" on="0"/>
        <pt x="429" y="1335" on="0"/>
        <pt x="431" y="1289" on="0"/>
        <pt x="437" y="1212" on="0"/>
        <pt x="452" y="1158" on="0"/>
        <pt x="476" y="1103" on="0"/>
        <pt x="517" y="1074" on="0"/>
      </contour>
    </TTGlyph>
    <TTGlyph name="ellipsis" xMin="99" yMin="0" xMax="1468" yMax="317">
      <component glyphName="period" x="1044" y="0" flags="0x1004"/>
      <component glyphName="period" x="522" y="0" flags="0x1004"/>
      <component glyphName="period" x="0" y="0" flags="0x1004"/>
    </TTGlyph>
    <TTGlyph name="emacron" xMin="78" yMin="-29" xMax="880" yMax="1650">
      <component glyphName="e" x="0" y="0" flags="0x1004"/>
      <component glyphName="macron" x="252" y="0" flags="0x1004"/>
    </TTGlyph>
    <TTGlyph name="emdash" xMin="4" yMin="453" xMax="821" yMax="676">
      <contour>
        <pt x="4" y="453" on="1"/>
        <pt x="4" y="676" on="1"/>
        <pt x="821" y="676" on="1"/>
        <pt x="821" y="453" on="1"/>
      </contour>
    </TTGlyph>
    <TTGlyph name="endash" xMin="4" yMin="453" xMax="521" yMax="676">
      <contour>
        <pt x="4" y="453" on="1"/>
        <pt x="4" y="676" on="1"/>
        <pt x="521" y="676" on="1"/>
        <pt x="521" y="453" on="1"/>
      </contour>
    </TTGlyph>
    <TTGlyph name="eogonek" xMin="78" yMin="-529" xMax="880" yMax="1335">
      <component glyphName="e" x="0" y="0" flags="0x1004"/>
      <component glyphName="ogonek" x="191" y="-8" flags="0x1004"/>
    </TTGlyph>
    <TTGlyph name="equal" xMin="70" yMin="258" xMax="682" yMax="806">
      <contour>
        <pt x="70" y="258" on="1"/>
        <pt x="70" y="480" on="1"/>
        <pt x="682" y="480" on="1"/>
        <pt x="682" y="258" on="1"/>
      </contour>
      <contour>
        <pt x="70" y="583" on="1"/>
        <pt x="70" y="806" on="1"/>
        <pt x="682" y="806" on="1"/>
        <pt x="682" y="583" on="1"/>
      </contour>
    </TTGlyph>
    <TTGlyph name="eth" xMin="87" yMin="-29" xMax="974" yMax="1835">
      <contour>
        <pt x="552" y="340" on="1"/>
        <pt x="552" y="874" on="1"/>
        <pt x="552" y="906" on="0"/>
        <pt x="514" y="942" on="0"/>
        <pt x="460" y="942" on="0"/>
        <pt x="422" y="904" on="0"/>
        <pt x="422" y="868" on="1"/>
        <pt x="422" y="340" on="1"/>
        <pt x="422" y="319" on="0"/>
        <pt x="425" y="290" on="0"/>
        <pt x="436" y="255" on="0"/>
        <pt x="463" y="236" on="0"/>
        <pt x="483" y="236" on="1"/>
        <pt x="552" y="236" on="0"/>
      </contour>
      <contour>
        <pt x="87" y="341" on="1"/>
        <pt x="87" y="892" on="1"/>
        <pt x="87" y="1034" on="0"/>
        <pt x="263" y="1206" on="0"/>
        <pt x="380" y="1206" on="1"/>
        <pt x="479" y="1206" on="0"/>
        <pt x="553" y="1148" on="1"/>
        <pt x="553" y="1292" on="0"/>
        <pt x="541" y="1360" on="1"/>
        <pt x="387" y="1282" on="1"/>
        <pt x="321" y="1422" on="1"/>
        <pt x="476" y="1501" on="1"/>
        <pt x="406" y="1570" on="0"/>
        <pt x="216" y="1570" on="1"/>
        <pt x="264" y="1835" on="1"/>
        <pt x="615" y="1835" on="0"/>
        <pt x="765" y="1648" on="1"/>
        <pt x="908" y="1721" on="1"/>
        <pt x="974" y="1581" on="1"/>
        <pt x="840" y="1513" on="1"/>
        <pt x="889" y="1380" on="0"/>
        <pt x="889" y="1188" on="1"/>
        <pt x="889" y="341" on="1"/>
        <pt x="889" y="233" on="0"/>
        <pt x="774" y="61" on="0"/>
        <pt x="590" y="-29" on="0"/>
        <pt x="483" y="-29" on="1"/>
        <pt x="319" y="-29" on="0"/>
        <pt x="87" y="178" on="0"/>
      </contour>
    </TTGlyph>
    <TTGlyph name="exclam" xMin="95" yMin="0" xMax="438" yMax="1800">
      <contour>
        <pt x="95" y="0" on="1"/>
        <pt x="95" y="317" on="1"/>
        <pt x="418" y="317" on="1"/>
        <pt x="418" y="0" on="1"/>
      </contour>
      <contour>
        <pt x="199" y="462" on="1"/>
        <pt x="95" y="1800" on="1"/>
        <pt x="438" y="1800" on="1"/>
        <pt x="315" y="462" on="1"/>
      </contour>
    </TTGlyph>
    <TTGlyph name="exclamdown" xMin="95" yMin="-496" xMax="438" yMax="1305">
      <contour>
        <pt x="438" y="1305" on="1"/>
        <pt x="438" y="987" on="1"/>
        <pt x="115" y="987" on="1"/>
        <pt x="115" y="1305" on="1"/>
      </contour>
      <contour>
        <pt x="334" y="842" on="1"/>
        <pt x="438" y="-496" on="1"/>
        <pt x="95" y="-496" on="1"/>
        <pt x="218" y="842" on="1"/>
      </contour>
    </TTGlyph>
    <TTGlyph name="f" xMin="65" yMin="0" xMax="644" yMax="1735">
      <contour>
        <pt x="141" y="0" on="1"/>
        <pt x="141" y="1080" on="1"/>
        <pt x="65" y="1080" on="1"/>
        <pt x="65" y="1305" on="1"/>
        <pt x="141" y="1305" on="1"/>
        <pt x="141" y="1307" on="1"/>
        <pt x="142" y="1367" on="0"/>
        <pt x="150" y="1459" on="0"/>
        <pt x="171" y="1563" on="0"/>
        <pt x="212" y="1638" on="0"/>
        <pt x="274" y="1702" on="0"/>
        <pt x="370" y="1735" on="0"/>
        <pt x="432" y="1735" on="1"/>
        <pt x="474" y="1735" on="0"/>
        <pt x="580" y="1728" on="0"/>
        <pt x="612" y="1724" on="1"/>
        <pt x="644" y="1721" on="1"/>
        <pt x="644" y="1469" on="1"/>
        <pt x="575" y="1475" on="0"/>
        <pt x="556" y="1475" on="1"/>
        <pt x="514" y="1475" on="0"/>
        <pt x="478" y="1428" on="0"/>
        <pt x="478" y="1366" on="1"/>
        <pt x="478" y="1305" on="1"/>
        <pt x="641" y="1305" on="1"/>
        <pt x="641" y="1080" on="1"/>
        <pt x="478" y="1080" on="1"/>
        <pt x="478" y="0" on="1"/>
      </contour>
    </TTGlyph>
    <TTGlyph name="five" xMin="95" yMin="-35" xMax="1049" yMax="1801">
      <contour>
        <pt x="95" y="571" on="1"/>
        <pt x="441" y="571" on="1"/>
        <pt x="440" y="522" on="0"/>
        <pt x="442" y="455" on="0"/>
        <pt x="448" y="376" on="0"/>
        <pt x="463" y="326" on="0"/>
        <pt x="488" y="281" on="0"/>
        <pt x="527" y="260" on="0"/>
        <pt x="553" y="260" on="1"/>
        <pt x="586" y="260" on="0"/>
        <pt x="638" y="286" on="0"/>
        <pt x="670" y="331" on="0"/>
        <pt x="693" y="390" on="0"/>
        <pt x="703" y="457" on="0"/>
        <pt x="710" y="526" on="0"/>
        <pt x="708" y="590" on="0"/>
        <pt x="709" y="618" on="1"/>
        <pt x="709" y="637" on="0"/>
        <pt x="709" y="645" on="1"/>
        <pt x="709" y="675" on="0"/>
        <pt x="707" y="720" on="0"/>
        <pt x="699" y="787" on="0"/>
        <pt x="681" y="836" on="0"/>
        <pt x="652" y="882" on="0"/>
        <pt x="605" y="907" on="0"/>
        <pt x="574" y="907" on="1"/>
        <pt x="525" y="907" on="0"/>
        <pt x="450" y="822" on="0"/>
        <pt x="428" y="767" on="1"/>
        <pt x="133" y="767" on="1"/>
        <pt x="133" y="1801" on="1"/>
        <pt x="990" y="1801" on="1"/>
        <pt x="990" y="1459" on="1"/>
        <pt x="457" y="1459" on="1"/>
        <pt x="457" y="1134" on="1"/>
        <pt x="553" y="1193" on="0"/>
        <pt x="632" y="1193" on="1"/>
        <pt x="728" y="1193" on="0"/>
        <pt x="877" y="1131" on="0"/>
        <pt x="968" y="1029" on="0"/>
        <pt x="1027" y="883" on="0"/>
        <pt x="1049" y="730" on="0"/>
        <pt x="1049" y="640" on="1"/>
        <pt x="1049" y="551" on="0"/>
        <pt x="1033" y="398" on="0"/>
        <pt x="995" y="239" on="0"/>
        <pt x="924" y="116" on="0"/>
        <pt x="821" y="18" on="0"/>
        <pt x="667" y="-35" on="0"/>
        <pt x="569" y="-35" on="1"/>
        <pt x="458" y="-35" on="0"/>
        <pt x="290" y="29" on="0"/>
        <pt x="185" y="137" on="0"/>
        <pt x="120" y="296" on="0"/>
        <pt x="95" y="466" on="0"/>
      </contour>
    </TTGlyph>
    <TTGlyph name="florin" xMin="15" yMin="-256" xMax="655" yMax="1728">
      <contour>
        <pt x="15" y="-244" on="1"/>
        <pt x="15" y="-54" on="1"/>
        <pt x="77" y="-64" on="0"/>
        <pt x="101" y="-64" on="1"/>
        <pt x="129" y="-64" on="0"/>
        <pt x="169" y="-46" on="0"/>
        <pt x="191" y="-19" on="0"/>
        <pt x="204" y="26" on="0"/>
        <pt x="207" y="67" on="0"/>
        <pt x="207" y="96" on="1"/>
        <pt x="207" y="1080" on="1"/>
        <pt x="65" y="1080" on="1"/>
        <pt x="65" y="1305" on="1"/>
        <pt x="207" y="1305" on="1"/>
        <pt x="207" y="1344" on="1"/>
        <pt x="207" y="1399" on="0"/>
        <pt x="208" y="1455" on="0"/>
        <pt x="219" y="1551" on="0"/>
        <pt x="240" y="1603" on="0"/>
        <pt x="282" y="1670" on="0"/>
        <pt x="343" y="1703" on="0"/>
        <pt x="436" y="1728" on="0"/>
        <pt x="497" y="1728" on="1"/>
        <pt x="559" y="1728" on="0"/>
        <pt x="655" y="1716" on="1"/>
        <pt x="655" y="1526" on="1"/>
        <pt x="642" y="1527" on="0"/>
        <pt x="580" y="1536" on="0"/>
        <pt x="569" y="1536" on="1"/>
        <pt x="541" y="1536" on="0"/>
        <pt x="501" y="1518" on="0"/>
        <pt x="479" y="1491" on="0"/>
        <pt x="466" y="1446" on="0"/>
        <pt x="463" y="1405" on="0"/>
        <pt x="463" y="1376" on="1"/>
        <pt x="463" y="1305" on="1"/>
        <pt x="641" y="1305" on="1"/>
        <pt x="641" y="1080" on="1"/>
        <pt x="463" y="1080" on="1"/>
        <pt x="463" y="128" on="1"/>
        <pt x="463" y="73" on="0"/>
        <pt x="462" y="17" on="0"/>
        <pt x="451" y="-79" on="0"/>
        <pt x="430" y="-131" on="0"/>
        <pt x="388" y="-198" on="0"/>
        <pt x="327" y="-231" on="0"/>
        <pt x="234" y="-256" on="0"/>
        <pt x="173" y="-256" on="1"/>
        <pt x="111" y="-256" on="0"/>
      </contour>
    </TTGlyph>
    <TTGlyph name="four" xMin="62" yMin="0" xMax="1079" yMax="1801">
      <contour>
        <pt x="370" y="717" on="1"/>
        <pt x="566" y="717" on="1"/>
        <pt x="566" y="1257" on="1"/>
      </contour>
      <contour>
        <pt x="62" y="437" on="1"/>
        <pt x="62" y="719" on="1"/>
        <pt x="502" y="1801" on="1"/>
        <pt x="911" y="1801" on="1"/>
        <pt x="911" y="717" on="1"/>
        <pt x="1079" y="717" on="1"/>
        <pt x="1079" y="437" on="1"/>
        <pt x="911" y="437" on="1"/>
        <pt x="911" y="0" on="1"/>
        <pt x="566" y="0" on="1"/>
        <pt x="566" y="437" on="1"/>
      </contour>
    </TTGlyph>
    <TTGlyph name="fraction" xMin="29" yMin="0" xMax="485" yMax="1801">
      <contour>
        <pt x="29" y="0" on="1"/>
        <pt x="286" y="1801" on="1"/>
        <pt x="485" y="1801" on="1"/>
        <pt x="225" y="0" on="1"/>
      </contour>
    </TTGlyph>
    <TTGlyph name="g" xMin="22" yMin="-341" xMax="989" yMax="1335">
      <contour>
        <pt x="358" y="79" on="1"/>
        <pt x="334" y="79" on="1"/>
        <pt x="289" y="8" on="0"/>
        <pt x="289" y="-46" on="1"/>
        <pt x="289" y="-105" on="0"/>
        <pt x="511" y="-105" on="1"/>
        <pt x="513" y="-105" on="0"/>
        <pt x="517" y="-105" on="1"/>
        <pt x="631" y="-106" on="0"/>
        <pt x="631" y="-37" on="1"/>
        <pt x="631" y="-13" on="0"/>
        <pt x="605" y="26" on="0"/>
        <pt x="554" y="50" on="0"/>
        <pt x="504" y="66" on="0"/>
        <pt x="432" y="74" on="0"/>
        <pt x="389" y="78" on="0"/>
      </contour>
      <contour>
        <pt x="462" y="632" on="1"/>
        <pt x="544" y="632" on="0"/>
        <pt x="544" y="864" on="1"/>
        <pt x="544" y="1102" on="0"/>
        <pt x="467" y="1102" on="1"/>
        <pt x="448" y="1102" on="0"/>
        <pt x="419" y="1082" on="0"/>
        <pt x="402" y="1041" on="0"/>
        <pt x="391" y="998" on="0"/>
        <pt x="386" y="933" on="0"/>
        <pt x="385" y="886" on="0"/>
        <pt x="385" y="851" on="1"/>
        <pt x="385" y="632" on="0"/>
      </contour>
      <contour>
        <pt x="328" y="339" on="1"/>
        <pt x="328" y="315" on="0"/>
        <pt x="397" y="283" on="0"/>
        <pt x="507" y="262" on="0"/>
        <pt x="640" y="240" on="0"/>
        <pt x="774" y="205" on="0"/>
        <pt x="884" y="155" on="0"/>
        <pt x="953" y="65" on="0"/>
        <pt x="953" y="5" on="1"/>
        <pt x="953" y="-78" on="0"/>
        <pt x="904" y="-203" on="0"/>
        <pt x="823" y="-278" on="0"/>
        <pt x="703" y="-324" on="0"/>
        <pt x="579" y="-341" on="0"/>
        <pt x="503" y="-341" on="1"/>
        <pt x="22" y="-341" on="0"/>
        <pt x="22" y="-106" on="1"/>
        <pt x="22" y="-37" on="0"/>
        <pt x="98" y="100" on="0"/>
        <pt x="159" y="144" on="1"/>
        <pt x="118" y="165" on="0"/>
        <pt x="42" y="222" on="0"/>
        <pt x="42" y="248" on="1"/>
        <pt x="42" y="305" on="0"/>
        <pt x="175" y="474" on="1"/>
        <pt x="73" y="660" on="0"/>
        <pt x="73" y="848" on="1"/>
        <pt x="73" y="944" on="0"/>
        <pt x="118" y="1113" on="0"/>
        <pt x="210" y="1253" on="0"/>
        <pt x="367" y="1335" on="0"/>
        <pt x="470" y="1335" on="1"/>
        <pt x="624" y="1335" on="0"/>
        <pt x="702" y="1252" on="1"/>
        <pt x="775" y="1335" on="0"/>
        <pt x="947" y="1335" on="1"/>
        <pt x="989" y="1335" on="1"/>
        <pt x="961" y="1094" on="1"/>
        <pt x="862" y="1094" on="0"/>
        <pt x="818" y="1050" on="1"/>
        <pt x="860" y="975" on="0"/>
        <pt x="860" y="823" on="1"/>
        <pt x="860" y="734" on="0"/>
        <pt x="807" y="574" on="0"/>
        <pt x="708" y="450" on="0"/>
        <pt x="553" y="378" on="0"/>
        <pt x="459" y="378" on="1"/>
        <pt x="441" y="378" on="0"/>
        <pt x="387" y="386" on="0"/>
        <pt x="369" y="390" on="1"/>
        <pt x="351" y="393" on="1"/>
        <pt x="328" y="348" on="0"/>
      </contour>
    </TTGlyph>
    <TTGlyph name="gbreve" xMin="22" yMin="-341" xMax="989" yMax="1685">
      <component glyphName="g" x="0" y="0" flags="0x1004"/>
      <component glyphName="breve" x="158" y="-1" flags="0x1004"/>
    </TTGlyph>
    <TTGlyph name="gcircumflex" xMin="22" yMin="-341" xMax="989" yMax="1843">
      <component glyphName="g" x="0" y="0" flags="0x1004"/>
      <component glyphName="circumflex" x="50" y="44" flags="0x1004"/>
    </TTGlyph>
    <TTGlyph name="gcommaaccent" xMin="22" yMin="-341" xMax="989" yMax="1980">
      <contour>
        <pt x="574" y="1980" on="1"/>
        <pt x="614" y="1814" on="1"/>
        <pt x="609" y="1814" on="0"/>
        <pt x="599" y="1814" on="1"/>
        <pt x="573" y="1814" on="0"/>
        <pt x="554" y="1813" on="0"/>
        <pt x="536" y="1796" on="0"/>
        <pt x="533" y="1768" on="0"/>
        <pt x="533" y="1737" on="1"/>
        <pt x="643" y="1737" on="1"/>
        <pt x="643" y="1419" on="1"/>
        <pt x="320" y="1419" on="1"/>
        <pt x="315" y="1549" on="0"/>
        <pt x="324" y="1757" on="0"/>
        <pt x="362" y="1902" on="0"/>
        <pt x="475" y="1980" on="0"/>
      </contour>
      <contour>
        <pt x="358" y="79" on="1"/>
        <pt x="334" y="79" on="1"/>
        <pt x="289" y="8" on="0"/>
        <pt x="289" y="-46" on="1"/>
        <pt x="289" y="-105" on="0"/>
        <pt x="511" y="-105" on="1"/>
        <pt x="513" y="-105" on="0"/>
        <pt x="517" y="-105" on="1"/>
        <pt x="631" y="-106" on="0"/>
        <pt x="631" y="-37" on="1"/>
        <pt x="631" y="-13" on="0"/>
        <pt x="605" y="26" on="0"/>
        <pt x="554" y="50" on="0"/>
        <pt x="504" y="66" on="0"/>
        <pt x="432" y="74" on="0"/>
        <pt x="389" y="78" on="0"/>
      </contour>
      <contour>
        <pt x="462" y="632" on="1"/>
        <pt x="544" y="632" on="0"/>
        <pt x="544" y="864" on="1"/>
        <pt x="544" y="1102" on="0"/>
        <pt x="467" y="1102" on="1"/>
        <pt x="448" y="1102" on="0"/>
        <pt x="419" y="1082" on="0"/>
        <pt x="402" y="1041" on="0"/>
        <pt x="391" y="998" on="0"/>
        <pt x="386" y="933" on="0"/>
        <pt x="385" y="886" on="0"/>
        <pt x="385" y="851" on="1"/>
        <pt x="385" y="632" on="0"/>
      </contour>
      <contour>
        <pt x="328" y="339" on="1"/>
        <pt x="328" y="315" on="0"/>
        <pt x="397" y="283" on="0"/>
        <pt x="507" y="262" on="0"/>
        <pt x="640" y="240" on="0"/>
        <pt x="774" y="205" on="0"/>
        <pt x="884" y="155" on="0"/>
        <pt x="953" y="65" on="0"/>
        <pt x="953" y="5" on="1"/>
        <pt x="953" y="-78" on="0"/>
        <pt x="904" y="-203" on="0"/>
        <pt x="823" y="-278" on="0"/>
        <pt x="703" y="-324" on="0"/>
        <pt x="579" y="-341" on="0"/>
        <pt x="503" y="-341" on="1"/>
        <pt x="22" y="-341" on="0"/>
        <pt x="22" y="-106" on="1"/>
        <pt x="22" y="-37" on="0"/>
        <pt x="98" y="100" on="0"/>
        <pt x="159" y="144" on="1"/>
        <pt x="118" y="165" on="0"/>
        <pt x="42" y="222" on="0"/>
        <pt x="42" y="248" on="1"/>
        <pt x="42" y="305" on="0"/>
        <pt x="175" y="474" on="1"/>
        <pt x="73" y="660" on="0"/>
        <pt x="73" y="848" on="1"/>
        <pt x="73" y="944" on="0"/>
        <pt x="118" y="1113" on="0"/>
        <pt x="210" y="1253" on="0"/>
        <pt x="367" y="1335" on="0"/>
        <pt x="470" y="1335" on="1"/>
        <pt x="624" y="1335" on="0"/>
        <pt x="702" y="1252" on="1"/>
        <pt x="775" y="1335" on="0"/>
        <pt x="947" y="1335" on="1"/>
        <pt x="989" y="1335" on="1"/>
        <pt x="961" y="1094" on="1"/>
        <pt x="862" y="1094" on="0"/>
        <pt x="818" y="1050" on="1"/>
        <pt x="860" y="975" on="0"/>
        <pt x="860" y="823" on="1"/>
        <pt x="860" y="734" on="0"/>
        <pt x="807" y="574" on="0"/>
        <pt x="708" y="450" on="0"/>
        <pt x="553" y="378" on="0"/>
        <pt x="459" y="378" on="1"/>
        <pt x="441" y="378" on="0"/>
        <pt x="387" y="386" on="0"/>
        <pt x="369" y="390" on="1"/>
        <pt x="351" y="393" on="1"/>
        <pt x="328" y="348" on="0"/>
      </contour>
    </TTGlyph>
    <TTGlyph name="gdotaccent" xMin="22" yMin="-341" xMax="989" yMax="1755">
      <component glyphName="g" x="0" y="0" flags="0x1004"/>
      <component glyphName="dotaccent" x="198" y="-62" flags="0x1004"/>
    </TTGlyph>
    <TTGlyph name="germandbls" xMin="99" yMin="-35" xMax="1122" yMax="1834">
      <contour>
        <pt x="99" y="0" on="1"/>
        <pt x="99" y="1358" on="1"/>
        <pt x="99" y="1436" on="0"/>
        <pt x="133" y="1575" on="0"/>
        <pt x="206" y="1696" on="0"/>
        <pt x="312" y="1784" on="0"/>
        <pt x="466" y="1834" on="0"/>
        <pt x="560" y="1834" on="1"/>
        <pt x="788" y="1834" on="0"/>
        <pt x="1021" y="1580" on="0"/>
        <pt x="1021" y="1349" on="1"/>
        <pt x="1021" y="1074" on="0"/>
        <pt x="766" y="977" on="1"/>
        <pt x="839" y="957" on="0"/>
        <pt x="960" y="883" on="0"/>
        <pt x="1041" y="789" on="0"/>
        <pt x="1097" y="675" on="0"/>
        <pt x="1122" y="557" on="0"/>
        <pt x="1122" y="495" on="1"/>
        <pt x="1122" y="226" on="0"/>
        <pt x="830" y="-35" on="0"/>
        <pt x="528" y="-35" on="1"/>
        <pt x="528" y="215" on="1"/>
        <pt x="603" y="215" on="0"/>
        <pt x="698" y="252" on="0"/>
        <pt x="748" y="337" on="0"/>
        <pt x="766" y="447" on="0"/>
        <pt x="766" y="535" on="1"/>
        <pt x="766" y="663" on="0"/>
        <pt x="645" y="814" on="0"/>
        <pt x="529" y="815" on="1"/>
        <pt x="529" y="1068" on="1"/>
        <pt x="573" y="1068" on="0"/>
        <pt x="639" y="1121" on="0"/>
        <pt x="673" y="1208" on="0"/>
        <pt x="689" y="1300" on="0"/>
        <pt x="689" y="1349" on="1"/>
        <pt x="689" y="1381" on="0"/>
        <pt x="687" y="1428" on="0"/>
        <pt x="681" y="1488" on="0"/>
        <pt x="666" y="1528" on="0"/>
        <pt x="643" y="1566" on="0"/>
        <pt x="606" y="1585" on="0"/>
        <pt x="581" y="1585" on="1"/>
        <pt x="554" y="1585" on="0"/>
        <pt x="513" y="1567" on="0"/>
        <pt x="488" y="1531" on="0"/>
        <pt x="473" y="1494" on="0"/>
        <pt x="467" y="1435" on="0"/>
        <pt x="465" y="1395" on="0"/>
        <pt x="465" y="1363" on="1"/>
        <pt x="465" y="0" on="1"/>
      </contour>
    </TTGlyph>
    <TTGlyph name="glyph00418" xMin="55" yMin="277" xMax="1565" yMax="1710">
      <contour>
        <pt x="346" y="277" on="1"/>
        <pt x="514" y="819" on="1"/>
        <pt x="55" y="1157" on="1"/>
        <pt x="627" y="1168" on="1"/>
        <pt x="805" y="1710" on="1"/>
        <pt x="993" y="1168" on="1"/>
        <pt x="1565" y="1168" on="1"/>
        <pt x="1104" y="819" on="1"/>
        <pt x="1274" y="277" on="1"/>
        <pt x="805" y="604" on="1"/>
      </contour>
    </TTGlyph>
    <TTGlyph name="glyph00419" xMin="21" yMin="-15" xMax="1245" yMax="1734">
      <contour>
        <pt x="117" y="448" on="1"/>
        <pt x="117" y="1080" on="1"/>
        <pt x="21" y="1080" on="1"/>
        <pt x="21" y="1305" on="1"/>
        <pt x="117" y="1305" on="1"/>
        <pt x="117" y="1734" on="1"/>
        <pt x="453" y="1734" on="1"/>
        <pt x="453" y="1305" on="1"/>
        <pt x="719" y="1305" on="1"/>
        <pt x="719" y="1734" on="1"/>
        <pt x="1055" y="1734" on="1"/>
        <pt x="1055" y="1305" on="1"/>
        <pt x="1218" y="1305" on="1"/>
        <pt x="1218" y="1080" on="1"/>
        <pt x="1055" y="1080" on="1"/>
        <pt x="1055" y="367" on="1"/>
        <pt x="1055" y="313" on="0"/>
        <pt x="1096" y="260" on="0"/>
        <pt x="1147" y="260" on="1"/>
        <pt x="1205" y="260" on="0"/>
        <pt x="1245" y="266" on="1"/>
        <pt x="1245" y="5" on="1"/>
        <pt x="1179" y="-15" on="0"/>
        <pt x="1032" y="-15" on="1"/>
        <pt x="973" y="-15" on="0"/>
        <pt x="878" y="13" on="0"/>
        <pt x="813" y="60" on="0"/>
        <pt x="766" y="132" on="0"/>
        <pt x="739" y="207" on="0"/>
        <pt x="724" y="307" on="0"/>
        <pt x="719" y="393" on="0"/>
        <pt x="719" y="448" on="1"/>
        <pt x="719" y="1080" on="1"/>
        <pt x="453" y="1080" on="1"/>
        <pt x="453" y="367" on="1"/>
        <pt x="453" y="313" on="0"/>
        <pt x="494" y="260" on="0"/>
        <pt x="545" y="260" on="1"/>
        <pt x="603" y="260" on="0"/>
        <pt x="643" y="266" on="1"/>
        <pt x="643" y="5" on="1"/>
        <pt x="577" y="-15" on="0"/>
        <pt x="430" y="-15" on="1"/>
        <pt x="371" y="-15" on="0"/>
        <pt x="276" y="13" on="0"/>
        <pt x="211" y="60" on="0"/>
        <pt x="164" y="132" on="0"/>
        <pt x="137" y="207" on="0"/>
        <pt x="122" y="307" on="0"/>
        <pt x="117" y="393" on="0"/>
      </contour>
    </TTGlyph>
    <TTGlyph name="glyph00420" xMin="57" yMin="0" xMax="1893" yMax="1800">
      <component glyphName="D" x="813" y="0" flags="0x1004"/>
      <component glyphName="z" x="0" y="0" flags="0x1004"/>
    </TTGlyph>
    <TTGlyph name="glyph00421" xMin="45" yMin="-643" xMax="1015" yMax="1837">
      <component glyphName="S" x="0" y="0" flags="0x1004"/>
      <component glyphName="uni0326" x="272" y="0" flags="0x1004"/>
    </TTGlyph>
    <TTGlyph name="glyph00422" xMin="14" yMin="-639" xMax="901" yMax="1800">
      <component glyphName="T" x="0" y="0" flags="0x1004"/>
      <component glyphName="glyph00423" x="205" y="0" flags="0x1004"/>
    </TTGlyph>
    <TTGlyph name="glyph00423" xMin="84" yMin="-639" xMax="412" yMax="0">
      <contour>
        <pt x="153" y="-639" on="1"/>
        <pt x="113" y="-473" on="1"/>
        <pt x="118" y="-473" on="0"/>
        <pt x="128" y="-473" on="1"/>
        <pt x="154" y="-473" on="0"/>
        <pt x="173" y="-472" on="0"/>
        <pt x="191" y="-455" on="0"/>
        <pt x="194" y="-427" on="0"/>
        <pt x="194" y="-396" on="1"/>
        <pt x="84" y="-396" on="1"/>
        <pt x="84" y="-78" on="1"/>
        <pt x="407" y="-78" on="1"/>
        <pt x="412" y="-208" on="0"/>
        <pt x="403" y="-416" on="0"/>
        <pt x="365" y="-561" on="0"/>
        <pt x="252" y="-639" on="0"/>
      </contour>
      <contour>
        <pt x="246" y="0" on="1"/>
      </contour>
    </TTGlyph>
    <TTGlyph name="glyph00424" xMin="20" yMin="-646" xMax="844" yMax="1334">
      <component glyphName="s" x="0" y="0" flags="0x1004"/>
      <component glyphName="uni0326" x="224" y="-3" flags="0x1004"/>
    </TTGlyph>
    <TTGlyph name="glyph00425" xMin="21" yMin="-639" xMax="643" yMax="1734">
      <component glyphName="t" x="0" y="0" flags="0x1004"/>
      <component glyphName="glyph00423" x="191" y="0" flags="0x1004"/>
    </TTGlyph>
    <TTGlyph name="grave" xMin="76" yMin="1393" xMax="558" yMax="1835">
      <contour>
        <pt x="353" y="1393" on="1"/>
        <pt x="76" y="1835" on="1"/>
        <pt x="422" y="1835" on="1"/>
        <pt x="558" y="1393" on="1"/>
      </contour>
    </TTGlyph>
    <TTGlyph name="greater" xMin="115" yMin="53" xMax="791" yMax="1272">
      <contour>
        <pt x="115" y="53" on="1"/>
        <pt x="115" y="345" on="1"/>
        <pt x="559" y="664" on="1"/>
        <pt x="115" y="979" on="1"/>
        <pt x="115" y="1272" on="1"/>
        <pt x="791" y="799" on="1"/>
        <pt x="791" y="525" on="1"/>
      </contour>
    </TTGlyph>
    <TTGlyph name="guillemotleft" xMin="79" yMin="64" xMax="975" yMax="1216">
      <contour>
        <pt x="975" y="64" on="1"/>
        <pt x="527" y="576" on="1"/>
        <pt x="527" y="704" on="1"/>
        <pt x="975" y="1216" on="1"/>
        <pt x="975" y="896" on="1"/>
        <pt x="719" y="641" on="1"/>
        <pt x="975" y="384" on="1"/>
      </contour>
      <contour>
        <pt x="527" y="64" on="1"/>
        <pt x="79" y="576" on="1"/>
        <pt x="79" y="704" on="1"/>
        <pt x="527" y="1216" on="1"/>
        <pt x="527" y="896" on="1"/>
        <pt x="271" y="641" on="1"/>
        <pt x="527" y="384" on="1"/>
      </contour>
    </TTGlyph>
    <TTGlyph name="guillemotright" xMin="79" yMin="64" xMax="975" yMax="1216">
      <contour>
        <pt x="79" y="64" on="1"/>
        <pt x="79" y="384" on="1"/>
        <pt x="335" y="641" on="1"/>
        <pt x="79" y="896" on="1"/>
        <pt x="79" y="1216" on="1"/>
        <pt x="527" y="704" on="1"/>
        <pt x="527" y="576" on="1"/>
      </contour>
      <contour>
        <pt x="527" y="64" on="1"/>
        <pt x="527" y="384" on="1"/>
        <pt x="783" y="641" on="1"/>
        <pt x="527" y="896" on="1"/>
        <pt x="527" y="1216" on="1"/>
        <pt x="975" y="704" on="1"/>
        <pt x="975" y="576" on="1"/>
      </contour>
    </TTGlyph>
    <TTGlyph name="guilsinglleft" xMin="79" yMin="64" xMax="527" yMax="1216">
      <contour>
        <pt x="527" y="64" on="1"/>
        <pt x="79" y="576" on="1"/>
        <pt x="79" y="704" on="1"/>
        <pt x="527" y="1216" on="1"/>
        <pt x="527" y="896" on="1"/>
        <pt x="271" y="641" on="1"/>
        <pt x="527" y="384" on="1"/>
      </contour>
    </TTGlyph>
    <TTGlyph name="guilsinglright" xMin="79" yMin="64" xMax="527" yMax="1216">
      <contour>
        <pt x="79" y="64" on="1"/>
        <pt x="79" y="384" on="1"/>
        <pt x="335" y="641" on="1"/>
        <pt x="79" y="896" on="1"/>
        <pt x="79" y="1216" on="1"/>
        <pt x="527" y="704" on="1"/>
        <pt x="527" y="576" on="1"/>
      </contour>
    </TTGlyph>
    <TTGlyph name="h" xMin="94" yMin="0" xMax="918" yMax="1800">
      <contour>
        <pt x="94" y="0" on="1"/>
        <pt x="94" y="1800" on="1"/>
        <pt x="431" y="1800" on="1"/>
        <pt x="431" y="1212" on="1"/>
        <pt x="480" y="1267" on="0"/>
        <pt x="615" y="1335" on="0"/>
        <pt x="687" y="1335" on="1"/>
        <pt x="756" y="1335" on="0"/>
        <pt x="865" y="1247" on="0"/>
        <pt x="918" y="1119" on="0"/>
        <pt x="918" y="1051" on="1"/>
        <pt x="918" y="0" on="1"/>
        <pt x="581" y="0" on="1"/>
        <pt x="581" y="963" on="1"/>
        <pt x="581" y="967" on="0"/>
        <pt x="582" y="994" on="0"/>
        <pt x="581" y="1011" on="0"/>
        <pt x="580" y="1038" on="0"/>
        <pt x="574" y="1054" on="0"/>
        <pt x="564" y="1072" on="0"/>
        <pt x="547" y="1080" on="0"/>
        <pt x="535" y="1080" on="1"/>
        <pt x="515" y="1080" on="0"/>
        <pt x="469" y="1048" on="0"/>
        <pt x="449" y="1026" on="0"/>
        <pt x="431" y="1005" on="1"/>
        <pt x="431" y="0" on="1"/>
      </contour>
    </TTGlyph>
    <TTGlyph name="hbar" xMin="0" yMin="0" xMax="923" yMax="1800">
      <contour>
        <pt x="99" y="0" on="1"/>
        <pt x="99" y="1460" on="1"/>
        <pt x="0" y="1460" on="1"/>
        <pt x="0" y="1643" on="1"/>
        <pt x="99" y="1643" on="1"/>
        <pt x="99" y="1800" on="1"/>
        <pt x="436" y="1800" on="1"/>
        <pt x="436" y="1643" on="1"/>
        <pt x="718" y="1643" on="1"/>
        <pt x="718" y="1460" on="1"/>
        <pt x="436" y="1460" on="1"/>
        <pt x="436" y="1212" on="1"/>
        <pt x="485" y="1267" on="0"/>
        <pt x="620" y="1335" on="0"/>
        <pt x="692" y="1335" on="1"/>
        <pt x="761" y="1335" on="0"/>
        <pt x="870" y="1247" on="0"/>
        <pt x="923" y="1119" on="0"/>
        <pt x="923" y="1051" on="1"/>
        <pt x="923" y="0" on="1"/>
        <pt x="586" y="0" on="1"/>
        <pt x="586" y="963" on="1"/>
        <pt x="586" y="967" on="0"/>
        <pt x="587" y="994" on="0"/>
        <pt x="586" y="1011" on="0"/>
        <pt x="585" y="1038" on="0"/>
        <pt x="579" y="1054" on="0"/>
        <pt x="569" y="1072" on="0"/>
        <pt x="552" y="1080" on="0"/>
        <pt x="540" y="1080" on="1"/>
        <pt x="520" y="1080" on="0"/>
        <pt x="474" y="1048" on="0"/>
        <pt x="454" y="1026" on="0"/>
        <pt x="436" y="1005" on="1"/>
        <pt x="436" y="0" on="1"/>
      </contour>
    </TTGlyph>
    <TTGlyph name="hcircumflex" xMin="94" yMin="0" xMax="918" yMax="2308">
      <component glyphName="h" x="0" y="0" flags="0x1004"/>
      <component glyphName="circumflex" x="50" y="509" flags="0x1004"/>
    </TTGlyph>
    <TTGlyph name="hungarumlaut" xMin="113" yMin="1405" xMax="851" yMax="1847">
      <contour>
        <pt x="429" y="1405" on="1"/>
        <pt x="566" y="1847" on="1"/>
        <pt x="851" y="1847" on="1"/>
        <pt x="636" y="1405" on="1"/>
      </contour>
      <contour>
        <pt x="113" y="1405" on="1"/>
        <pt x="250" y="1847" on="1"/>
        <pt x="533" y="1847" on="1"/>
        <pt x="318" y="1405" on="1"/>
      </contour>
    </TTGlyph>
    <TTGlyph name="hyphen" xMin="4" yMin="453" xMax="421" yMax="676">
      <contour>
        <pt x="4" y="453" on="1"/>
        <pt x="4" y="676" on="1"/>
        <pt x="421" y="676" on="1"/>
        <pt x="421" y="453" on="1"/>
      </contour>
    </TTGlyph>
    <TTGlyph name="i" xMin="96" yMin="0" xMax="433" yMax="1734">
      <contour>
        <pt x="96" y="1419" on="1"/>
        <pt x="96" y="1734" on="1"/>
        <pt x="433" y="1734" on="1"/>
        <pt x="433" y="1419" on="1"/>
      </contour>
      <contour>
        <pt x="96" y="0" on="1"/>
        <pt x="96" y="1305" on="1"/>
        <pt x="433" y="1305" on="1"/>
        <pt x="433" y="0" on="1"/>
      </contour>
    </TTGlyph>
    <TTGlyph name="iacute" xMin="124" yMin="0" xMax="672" yMax="1878">
      <component glyphName="dotlessi" x="0" y="0" flags="0x1004"/>
      <component glyphName="acute" x="78" y="43" flags="0x1004"/>
    </TTGlyph>
    <TTGlyph name="ibreve" xMin="39" yMin="0" xMax="545" yMax="1684">
      <component glyphName="dotlessi" x="0" y="0" flags="0x1004"/>
      <component glyphName="breve" x="-56" y="-2" flags="0x1004"/>
    </TTGlyph>
    <TTGlyph name="icircumflex" xMin="-56" yMin="0" xMax="641" yMax="1842">
      <component glyphName="dotlessi" x="0" y="0" flags="0x1004"/>
      <component glyphName="circumflex" x="-163" y="43" flags="0x1004"/>
    </TTGlyph>
    <TTGlyph name="idieresis" xMin="-86" yMin="0" xMax="671" yMax="1744">
      <component glyphName="dotlessi" x="0" y="0" flags="0x1004"/>
      <component glyphName="dieresis" x="-202" y="-56" flags="0x1004"/>
    </TTGlyph>
    <TTGlyph name="igrave" xMin="-87" yMin="0" xMax="461" yMax="1878">
      <component glyphName="dotlessi" x="0" y="0" flags="0x1004"/>
      <component glyphName="grave" x="-163" y="43" flags="0x1004"/>
    </TTGlyph>
    <TTGlyph name="ij" xMin="96" yMin="-311" xMax="1007" yMax="1734">
      <component glyphName="j" x="529" y="0" flags="0x1004"/>
      <component glyphName="i" x="0" y="0" flags="0x1004"/>
    </TTGlyph>
    <TTGlyph name="imacron" xMin="12" yMin="0" xMax="519" yMax="1650">
      <component glyphName="dotlessi" x="0" y="0" flags="0x1004"/>
      <component glyphName="macron" x="48" y="0" flags="0x1004"/>
    </TTGlyph>
    <TTGlyph name="integral" xMin="15" yMin="-256" xMax="655" yMax="1728">
      <contour>
        <pt x="15" y="-244" on="1"/>
        <pt x="15" y="-54" on="1"/>
        <pt x="77" y="-64" on="0"/>
        <pt x="101" y="-64" on="1"/>
        <pt x="129" y="-64" on="0"/>
        <pt x="169" y="-46" on="0"/>
        <pt x="191" y="-19" on="0"/>
        <pt x="204" y="26" on="0"/>
        <pt x="207" y="67" on="0"/>
        <pt x="207" y="96" on="1"/>
        <pt x="207" y="1344" on="1"/>
        <pt x="207" y="1399" on="0"/>
        <pt x="208" y="1455" on="0"/>
        <pt x="219" y="1551" on="0"/>
        <pt x="240" y="1603" on="0"/>
        <pt x="282" y="1670" on="0"/>
        <pt x="343" y="1703" on="0"/>
        <pt x="436" y="1728" on="0"/>
        <pt x="497" y="1728" on="1"/>
        <pt x="559" y="1728" on="0"/>
        <pt x="655" y="1716" on="1"/>
        <pt x="655" y="1526" on="1"/>
        <pt x="642" y="1527" on="0"/>
        <pt x="580" y="1536" on="0"/>
        <pt x="569" y="1536" on="1"/>
        <pt x="541" y="1536" on="0"/>
        <pt x="501" y="1518" on="0"/>
        <pt x="479" y="1491" on="0"/>
        <pt x="466" y="1446" on="0"/>
        <pt x="463" y="1405" on="0"/>
        <pt x="463" y="1376" on="1"/>
        <pt x="463" y="128" on="1"/>
        <pt x="463" y="73" on="0"/>
        <pt x="462" y="17" on="0"/>
        <pt x="451" y="-79" on="0"/>
        <pt x="430" y="-131" on="0"/>
        <pt x="388" y="-198" on="0"/>
        <pt x="327" y="-231" on="0"/>
        <pt x="234" y="-256" on="0"/>
        <pt x="173" y="-256" on="1"/>
        <pt x="111" y="-256" on="0"/>
      </contour>
    </TTGlyph>
    <TTGlyph name="iogonek" xMin="96" yMin="-521" xMax="520" yMax="1734">
      <component glyphName="i" x="0" y="0" flags="0x1004"/>
      <component glyphName="ogonek" x="52" y="0" flags="0x1004"/>
    </TTGlyph>
    <TTGlyph name="itilde" xMin="-75" yMin="0" xMax="601" yMax="1729">
      <component glyphName="dotlessi" x="0" y="0" flags="0x1004"/>
      <component glyphName="tilde" x="-196" y="0" flags="0x1004"/>
    </TTGlyph>
    <TTGlyph name="j" xMin="-21" yMin="-311" xMax="478" yMax="1734">
      <contour>
        <pt x="143" y="1419" on="1"/>
        <pt x="143" y="1734" on="1"/>
        <pt x="478" y="1734" on="1"/>
        <pt x="478" y="1419" on="1"/>
      </contour>
      <contour>
        <pt x="-21" y="-284" on="1"/>
        <pt x="-21" y="-40" on="1"/>
        <pt x="35" y="-56" on="0"/>
        <pt x="67" y="-56" on="1"/>
        <pt x="143" y="-56" on="0"/>
        <pt x="143" y="55" on="1"/>
        <pt x="143" y="1305" on="1"/>
        <pt x="478" y="1305" on="1"/>
        <pt x="478" y="26" on="1"/>
        <pt x="478" y="-131" on="0"/>
        <pt x="313" y="-311" on="0"/>
        <pt x="158" y="-311" on="1"/>
        <pt x="83" y="-311" on="0"/>
      </contour>
    </TTGlyph>
    <TTGlyph name="jcircumflex" xMin="31" yMin="-311" xMax="728" yMax="1786">
      <component glyphName="uni0237" x="0" y="0" flags="0x1004"/>
      <component glyphName="circumflex" x="-76" y="-13" flags="0x1004"/>
    </TTGlyph>
    <TTGlyph name="k" xMin="99" yMin="0" xMax="1003" yMax="1800">
      <contour>
        <pt x="99" y="0" on="1"/>
        <pt x="99" y="1800" on="1"/>
        <pt x="436" y="1800" on="1"/>
        <pt x="436" y="852" on="1"/>
        <pt x="642" y="1305" on="1"/>
        <pt x="1003" y="1305" on="1"/>
        <pt x="682" y="754" on="1"/>
        <pt x="1002" y="0" on="1"/>
        <pt x="653" y="0" on="1"/>
        <pt x="481" y="582" on="1"/>
        <pt x="436" y="506" on="1"/>
        <pt x="436" y="0" on="1"/>
      </contour>
    </TTGlyph>
    <TTGlyph name="kcommaaccent" xMin="99" yMin="0" xMax="1003" yMax="1800">
      <component glyphName="k" x="0" y="0" flags="0x1004"/>
    </TTGlyph>
    <TTGlyph name="kgreenlandic" xMin="99" yMin="0" xMax="973" yMax="1305">
      <contour>
        <pt x="99" y="0" on="1"/>
        <pt x="99" y="1305" on="1"/>
        <pt x="436" y="1305" on="1"/>
        <pt x="436" y="882" on="1"/>
        <pt x="642" y="1305" on="1"/>
        <pt x="973" y="1305" on="1"/>
        <pt x="702" y="744" on="1"/>
        <pt x="972" y="0" on="1"/>
        <pt x="633" y="0" on="1"/>
        <pt x="471" y="502" on="1"/>
        <pt x="436" y="443" on="1"/>
        <pt x="436" y="0" on="1"/>
      </contour>
    </TTGlyph>
    <TTGlyph name="l" xMin="96" yMin="0" xMax="433" yMax="1800">
      <contour>
        <pt x="96" y="0" on="1"/>
        <pt x="96" y="1800" on="1"/>
        <pt x="433" y="1800" on="1"/>
        <pt x="433" y="0" on="1"/>
      </contour>
    </TTGlyph>
    <TTGlyph name="lacute" xMin="96" yMin="0" xMax="644" yMax="2344">
      <component glyphName="l" x="0" y="0" flags="0x1004"/>
      <component glyphName="acute" x="50" y="509" flags="0x1004"/>
    </TTGlyph>
    <TTGlyph name="lcaron" xMin="96" yMin="0" xMax="910" yMax="1800">
      <component glyphName="l" x="0" y="0" flags="0x1004"/>
      <component glyphName="comma" x="502" y="1483" flags="0x1004"/>
    </TTGlyph>
    <TTGlyph name="lcommaaccent" xMin="96" yMin="-667" xMax="433" yMax="1800">
      <component glyphName="l" x="0" y="0" flags="0x1004"/>
      <component glyphName="uni0326" x="18" y="-24" flags="0x1004"/>
    </TTGlyph>
    <TTGlyph name="ldot" xMin="96" yMin="0" xMax="923" yMax="1800">
      <component glyphName="l" x="0" y="0" flags="0x1004"/>
      <component glyphName="periodcentered" x="501" y="0" flags="0x1004"/>
    </TTGlyph>
    <TTGlyph name="less" xMin="74" yMin="53" xMax="750" yMax="1272">
      <contour>
        <pt x="74" y="525" on="1"/>
        <pt x="74" y="799" on="1"/>
        <pt x="750" y="1272" on="1"/>
        <pt x="750" y="979" on="1"/>
        <pt x="306" y="664" on="1"/>
        <pt x="380" y="610" on="0"/>
        <pt x="750" y="345" on="1"/>
        <pt x="750" y="53" on="1"/>
      </contour>
    </TTGlyph>
    <TTGlyph name="logicalnot" xMin="136" yMin="259" xMax="683" yMax="676">
      <contour>
        <pt x="136" y="453" on="1"/>
        <pt x="136" y="676" on="1"/>
        <pt x="683" y="676" on="1"/>
        <pt x="683" y="259" on="1"/>
        <pt x="525" y="259" on="1"/>
        <pt x="525" y="453" on="1"/>
      </contour>
    </TTGlyph>
    <TTGlyph name="lslash" xMin="-18" yMin="0" xMax="686" yMax="1800">
      <contour>
        <pt x="163" y="0" on="1"/>
        <pt x="163" y="924" on="1"/>
        <pt x="-18" y="856" on="1"/>
        <pt x="-18" y="1039" on="1"/>
        <pt x="163" y="1107" on="1"/>
        <pt x="163" y="1800" on="1"/>
        <pt x="500" y="1800" on="1"/>
        <pt x="500" y="1235" on="1"/>
        <pt x="686" y="1305" on="1"/>
        <pt x="686" y="1122" on="1"/>
        <pt x="500" y="1052" on="1"/>
        <pt x="500" y="0" on="1"/>
      </contour>
    </TTGlyph>
    <TTGlyph name="m" xMin="94" yMin="0" xMax="1386" yMax="1335">
      <contour>
        <pt x="94" y="0" on="1"/>
        <pt x="94" y="1305" on="1"/>
        <pt x="431" y="1305" on="1"/>
        <pt x="431" y="1212" on="1"/>
        <pt x="478" y="1267" on="0"/>
        <pt x="608" y="1335" on="0"/>
        <pt x="677" y="1335" on="1"/>
        <pt x="742" y="1335" on="0"/>
        <pt x="852" y="1251" on="0"/>
        <pt x="880" y="1188" on="1"/>
        <pt x="929" y="1254" on="0"/>
        <pt x="1072" y="1335" on="0"/>
        <pt x="1152" y="1335" on="1"/>
        <pt x="1221" y="1335" on="0"/>
        <pt x="1331" y="1247" on="0"/>
        <pt x="1386" y="1118" on="0"/>
        <pt x="1386" y="1051" on="1"/>
        <pt x="1386" y="0" on="1"/>
        <pt x="1049" y="0" on="1"/>
        <pt x="1049" y="984" on="1"/>
        <pt x="1049" y="1002" on="0"/>
        <pt x="1047" y="1025" on="0"/>
        <pt x="1039" y="1061" on="0"/>
        <pt x="1017" y="1080" on="0"/>
        <pt x="1000" y="1080" on="1"/>
        <pt x="964" y="1080" on="0"/>
        <pt x="908" y="1006" on="1"/>
        <pt x="908" y="0" on="1"/>
        <pt x="571" y="0" on="1"/>
        <pt x="571" y="986" on="1"/>
        <pt x="571" y="1080" on="0"/>
        <pt x="525" y="1080" on="1"/>
        <pt x="487" y="1080" on="0"/>
        <pt x="430" y="1005" on="1"/>
        <pt x="430" y="0" on="1"/>
      </contour>
    </TTGlyph>
    <TTGlyph name="macron" xMin="-36" yMin="1457" xMax="471" yMax="1650">
      <contour>
        <pt x="-36" y="1457" on="1"/>
        <pt x="-36" y="1650" on="1"/>
        <pt x="471" y="1650" on="1"/>
        <pt x="471" y="1457" on="1"/>
      </contour>
    </TTGlyph>
    <TTGlyph name="minus" xMin="137" yMin="531" xMax="747" yMax="754">
      <contour>
        <pt x="137" y="531" on="1"/>
        <pt x="137" y="754" on="1"/>
        <pt x="747" y="754" on="1"/>
        <pt x="747" y="531" on="1"/>
      </contour>
    </TTGlyph>
    <TTGlyph name="mu" xMin="134" yMin="-179" xMax="957" yMax="1305">
      <contour>
        <pt x="134" y="-179" on="1"/>
        <pt x="134" y="1305" on="1"/>
        <pt x="470" y="1305" on="1"/>
        <pt x="470" y="302" on="1"/>
        <pt x="470" y="219" on="0"/>
        <pt x="516" y="219" on="1"/>
        <pt x="536" y="219" on="0"/>
        <pt x="584" y="253" on="0"/>
        <pt x="603" y="276" on="0"/>
        <pt x="622" y="299" on="1"/>
        <pt x="622" y="1305" on="1"/>
        <pt x="957" y="1305" on="1"/>
        <pt x="957" y="0" on="1"/>
        <pt x="621" y="0" on="1"/>
        <pt x="621" y="113" on="1"/>
        <pt x="553" y="30" on="0"/>
        <pt x="469" y="-6" on="1"/>
        <pt x="469" y="-179" on="1"/>
      </contour>
    </TTGlyph>
    <TTGlyph name="multiply" xMin="65" yMin="318" xMax="753" yMax="1007">
      <contour>
        <pt x="65" y="468" on="1"/>
        <pt x="259" y="662" on="1"/>
        <pt x="65" y="856" on="1"/>
        <pt x="215" y="1007" on="1"/>
        <pt x="409" y="812" on="1"/>
        <pt x="604" y="1007" on="1"/>
        <pt x="753" y="856" on="1"/>
        <pt x="559" y="662" on="1"/>
        <pt x="688" y="531" on="0"/>
        <pt x="753" y="468" on="1"/>
        <pt x="604" y="318" on="1"/>
        <pt x="409" y="513" on="1"/>
        <pt x="215" y="318" on="1"/>
      </contour>
    </TTGlyph>
    <TTGlyph name="n" xMin="94" yMin="0" xMax="918" yMax="1334">
      <contour>
        <pt x="94" y="0" on="1"/>
        <pt x="94" y="1305" on="1"/>
        <pt x="431" y="1305" on="1"/>
        <pt x="431" y="1213" on="1"/>
        <pt x="479" y="1268" on="0"/>
        <pt x="614" y="1334" on="0"/>
        <pt x="687" y="1334" on="1"/>
        <pt x="756" y="1334" on="0"/>
        <pt x="865" y="1247" on="0"/>
        <pt x="918" y="1120" on="0"/>
        <pt x="918" y="1052" on="1"/>
        <pt x="918" y="0" on="1"/>
        <pt x="581" y="0" on="1"/>
        <pt x="581" y="993" on="1"/>
        <pt x="581" y="1080" on="0"/>
        <pt x="525" y="1080" on="1"/>
        <pt x="519" y="1080" on="0"/>
        <pt x="506" y="1077" on="0"/>
        <pt x="493" y="1070" on="0"/>
        <pt x="483" y="1065" on="0"/>
        <pt x="469" y="1053" on="0"/>
        <pt x="462" y="1047" on="0"/>
        <pt x="448" y="1032" on="0"/>
        <pt x="444" y="1027" on="0"/>
        <pt x="438" y="1020" on="1"/>
        <pt x="431" y="1012" on="1"/>
        <pt x="431" y="0" on="1"/>
      </contour>
    </TTGlyph>
    <TTGlyph name="nacute" xMin="94" yMin="0" xMax="918" yMax="1878">
      <component glyphName="n" x="0" y="0" flags="0x1004"/>
      <component glyphName="acute" x="291" y="43" flags="0x1004"/>
    </TTGlyph>
    <TTGlyph name="ncaron" xMin="94" yMin="0" xMax="918" yMax="1842">
      <component glyphName="n" x="0" y="0" flags="0x1004"/>
      <component glyphName="caron" x="78" y="51" flags="0x1004"/>
    </TTGlyph>
    <TTGlyph name="ncommaaccent" xMin="94" yMin="-667" xMax="918" yMax="1334">
      <component glyphName="n" x="0" y="0" flags="0x1004"/>
      <component glyphName="uni0326" x="260" y="-24" flags="0x1004"/>
    </TTGlyph>
    <TTGlyph name="nine" xMin="81" yMin="-29" xMax="1051" yMax="1835">
      <contour>
        <pt x="702" y="1034" on="1"/>
        <pt x="702" y="1271" on="1"/>
        <pt x="702" y="1311" on="0"/>
        <pt x="692" y="1388" on="0"/>
        <pt x="667" y="1476" on="0"/>
        <pt x="608" y="1530" on="0"/>
        <pt x="566" y="1530" on="1"/>
        <pt x="538" y="1530" on="0"/>
        <pt x="494" y="1505" on="0"/>
        <pt x="467" y="1470" on="0"/>
        <pt x="447" y="1410" on="0"/>
        <pt x="438" y="1364" on="0"/>
        <pt x="433" y="1292" on="0"/>
        <pt x="432" y="1258" on="0"/>
        <pt x="432" y="1228" on="1"/>
        <pt x="432" y="1197" on="0"/>
        <pt x="432" y="1167" on="0"/>
        <pt x="437" y="1098" on="0"/>
        <pt x="446" y="1059" on="0"/>
        <pt x="466" y="1005" on="0"/>
        <pt x="494" y="975" on="0"/>
        <pt x="538" y="953" on="0"/>
        <pt x="566" y="953" on="1"/>
        <pt x="606" y="953" on="0"/>
        <pt x="679" y="999" on="0"/>
      </contour>
      <contour>
        <pt x="101" y="489" on="1"/>
        <pt x="101" y="519" on="1"/>
        <pt x="442" y="519" on="1"/>
        <pt x="442" y="488" on="0"/>
        <pt x="444" y="446" on="0"/>
        <pt x="450" y="381" on="0"/>
        <pt x="467" y="337" on="0"/>
        <pt x="493" y="293" on="0"/>
        <pt x="537" y="271" on="0"/>
        <pt x="595" y="271" on="0"/>
        <pt x="641" y="303" on="0"/>
        <pt x="669" y="348" on="0"/>
        <pt x="689" y="422" on="0"/>
        <pt x="699" y="481" on="0"/>
        <pt x="704" y="570" on="0"/>
        <pt x="704" y="614" on="0"/>
        <pt x="704" y="650" on="1"/>
        <pt x="704" y="664" on="0"/>
        <pt x="704" y="670" on="1"/>
        <pt x="704" y="715" on="1"/>
        <pt x="614" y="665" on="0"/>
        <pt x="504" y="665" on="1"/>
        <pt x="81" y="665" on="0"/>
        <pt x="81" y="1212" on="1"/>
        <pt x="81" y="1307" on="0"/>
        <pt x="113" y="1482" on="0"/>
        <pt x="187" y="1645" on="0"/>
        <pt x="297" y="1764" on="0"/>
        <pt x="463" y="1835" on="0"/>
        <pt x="566" y="1835" on="1"/>
        <pt x="666" y="1835" on="0"/>
        <pt x="831" y="1763" on="0"/>
        <pt x="941" y="1642" on="0"/>
        <pt x="1017" y="1480" on="0"/>
        <pt x="1051" y="1305" on="0"/>
        <pt x="1051" y="1212" on="1"/>
        <pt x="1051" y="652" on="1"/>
        <pt x="1051" y="549" on="0"/>
        <pt x="1026" y="366" on="0"/>
        <pt x="958" y="183" on="0"/>
        <pt x="852" y="53" on="0"/>
        <pt x="678" y="-29" on="0"/>
        <pt x="566" y="-29" on="1"/>
        <pt x="452" y="-29" on="0"/>
        <pt x="275" y="49" on="0"/>
        <pt x="164" y="190" on="0"/>
        <pt x="104" y="376" on="0"/>
      </contour>
    </TTGlyph>
    <TTGlyph name="ntilde" xMin="94" yMin="0" xMax="918" yMax="1746">
      <component glyphName="n" x="0" y="0" flags="0x1004"/>
      <component glyphName="tilde" x="47" y="17" flags="0x1004"/>
    </TTGlyph>
    <TTGlyph name="numbersign" xMin="99" yMin="0" xMax="1024" yMax="1801">
      <contour>
        <pt x="485" y="871" on="1"/>
        <pt x="627" y="871" on="1"/>
        <pt x="643" y="985" on="1"/>
        <pt x="501" y="985" on="1"/>
      </contour>
      <contour>
        <pt x="153" y="0" on="1"/>
        <pt x="241" y="616" on="1"/>
        <pt x="99" y="616" on="1"/>
        <pt x="99" y="871" on="1"/>
        <pt x="277" y="871" on="1"/>
        <pt x="293" y="985" on="1"/>
        <pt x="99" y="985" on="1"/>
        <pt x="99" y="1240" on="1"/>
        <pt x="330" y="1240" on="1"/>
        <pt x="410" y="1801" on="1"/>
        <pt x="619" y="1801" on="1"/>
        <pt x="538" y="1240" on="1"/>
        <pt x="680" y="1240" on="1"/>
        <pt x="760" y="1801" on="1"/>
        <pt x="969" y="1801" on="1"/>
        <pt x="888" y="1240" on="1"/>
        <pt x="1024" y="1240" on="1"/>
        <pt x="1024" y="985" on="1"/>
        <pt x="851" y="985" on="1"/>
        <pt x="835" y="871" on="1"/>
        <pt x="1024" y="871" on="1"/>
        <pt x="1024" y="616" on="1"/>
        <pt x="798" y="616" on="1"/>
        <pt x="709" y="0" on="1"/>
        <pt x="503" y="0" on="1"/>
        <pt x="591" y="616" on="1"/>
        <pt x="448" y="616" on="1"/>
        <pt x="359" y="0" on="1"/>
      </contour>
    </TTGlyph>
    <TTGlyph name="o" xMin="78" yMin="-29" xMax="895" yMax="1334">
      <contour>
        <pt x="561" y="335" on="1"/>
        <pt x="561" y="981" on="1"/>
        <pt x="561" y="1080" on="0"/>
        <pt x="484" y="1080" on="1"/>
        <pt x="415" y="1080" on="0"/>
        <pt x="415" y="981" on="1"/>
        <pt x="415" y="335" on="1"/>
        <pt x="415" y="313" on="0"/>
        <pt x="418" y="284" on="0"/>
        <pt x="430" y="245" on="0"/>
        <pt x="460" y="225" on="0"/>
        <pt x="484" y="225" on="1"/>
        <pt x="561" y="225" on="0"/>
      </contour>
      <contour>
        <pt x="78" y="339" on="1"/>
        <pt x="78" y="894" on="1"/>
        <pt x="78" y="1103" on="0"/>
        <pt x="275" y="1334" on="0"/>
        <pt x="693" y="1334" on="0"/>
        <pt x="895" y="1103" on="0"/>
        <pt x="895" y="894" on="1"/>
        <pt x="895" y="339" on="1"/>
        <pt x="895" y="176" on="0"/>
        <pt x="653" y="-29" on="0"/>
        <pt x="484" y="-29" on="1"/>
        <pt x="375" y="-29" on="0"/>
        <pt x="191" y="60" on="0"/>
        <pt x="78" y="231" on="0"/>
      </contour>
    </TTGlyph>
    <TTGlyph name="oacute" xMin="78" yMin="-29" xMax="895" yMax="1878">
      <component glyphName="o" x="0" y="0" flags="0x1004"/>
      <component glyphName="acute" x="272" y="43" flags="0x1004"/>
    </TTGlyph>
    <TTGlyph name="obreve" xMin="78" yMin="-29" xMax="895" yMax="1684">
      <component glyphName="o" x="0" y="0" flags="0x1004"/>
      <component glyphName="breve" x="138" y="-2" flags="0x1004"/>
    </TTGlyph>
    <TTGlyph name="ocircumflex" xMin="78" yMin="-29" xMax="895" yMax="1842">
      <component glyphName="o" x="0" y="0" flags="0x1004"/>
      <component glyphName="circumflex" x="31" y="43" flags="0x1004"/>
    </TTGlyph>
    <TTGlyph name="odieresis" xMin="78" yMin="-29" xMax="895" yMax="1744">
      <component glyphName="o" x="0" y="0" flags="0x1004"/>
      <component glyphName="dieresis" x="-8" y="-56" flags="0x1004"/>
    </TTGlyph>
    <TTGlyph name="oe" xMin="83" yMin="-30" xMax="1368" yMax="1334">
      <contour>
        <pt x="903" y="801" on="1"/>
        <pt x="1034" y="801" on="1"/>
        <pt x="1034" y="964" on="1"/>
        <pt x="1034" y="1063" on="0"/>
        <pt x="967" y="1063" on="1"/>
        <pt x="903" y="1063" on="0"/>
        <pt x="903" y="964" on="1"/>
      </contour>
      <contour>
        <pt x="566" y="339" on="1"/>
        <pt x="566" y="964" on="1"/>
        <pt x="566" y="1063" on="0"/>
        <pt x="489" y="1063" on="1"/>
        <pt x="420" y="1063" on="0"/>
        <pt x="420" y="964" on="1"/>
        <pt x="420" y="346" on="1"/>
        <pt x="420" y="324" on="0"/>
        <pt x="423" y="295" on="0"/>
        <pt x="435" y="256" on="0"/>
        <pt x="465" y="236" on="0"/>
        <pt x="489" y="236" on="1"/>
        <pt x="564" y="236" on="0"/>
      </contour>
      <contour>
        <pt x="83" y="339" on="1"/>
        <pt x="83" y="894" on="1"/>
        <pt x="83" y="1103" on="0"/>
        <pt x="280" y="1334" on="0"/>
        <pt x="489" y="1334" on="1"/>
        <pt x="633" y="1334" on="0"/>
        <pt x="731" y="1255" on="1"/>
        <pt x="835" y="1334" on="0"/>
        <pt x="987" y="1334" on="1"/>
        <pt x="1181" y="1334" on="0"/>
        <pt x="1368" y="1103" on="0"/>
        <pt x="1368" y="894" on="1"/>
        <pt x="1368" y="624" on="1"/>
        <pt x="903" y="624" on="1"/>
        <pt x="903" y="346" on="1"/>
        <pt x="903" y="236" on="0"/>
        <pt x="967" y="236" on="1"/>
        <pt x="1037" y="236" on="0"/>
        <pt x="1037" y="384" on="1"/>
        <pt x="1037" y="407" on="0"/>
        <pt x="1034" y="477" on="0"/>
        <pt x="1034" y="486" on="1"/>
        <pt x="1368" y="486" on="1"/>
        <pt x="1368" y="339" on="1"/>
        <pt x="1368" y="176" on="0"/>
        <pt x="1138" y="-30" on="0"/>
        <pt x="977" y="-30" on="1"/>
        <pt x="843" y="-30" on="0"/>
        <pt x="731" y="57" on="1"/>
        <pt x="612" y="-30" on="0"/>
        <pt x="469" y="-30" on="1"/>
        <pt x="309" y="-30" on="0"/>
        <pt x="83" y="176" on="0"/>
      </contour>
    </TTGlyph>
    <TTGlyph name="ogonek" xMin="48" yMin="-521" xMax="468" yMax="16">
      <contour>
        <pt x="468" y="-358" on="1"/>
        <pt x="447" y="-518" on="1"/>
        <pt x="406" y="-521" on="0"/>
        <pt x="315" y="-515" on="0"/>
        <pt x="227" y="-506" on="0"/>
        <pt x="146" y="-474" on="0"/>
        <pt x="84" y="-428" on="0"/>
        <pt x="48" y="-347" on="0"/>
        <pt x="48" y="-295" on="1"/>
        <pt x="48" y="-217" on="0"/>
        <pt x="136" y="-44" on="0"/>
        <pt x="199" y="16" on="1"/>
        <pt x="347" y="16" on="1"/>
        <pt x="340" y="-4" on="0"/>
        <pt x="308" y="-87" on="0"/>
        <pt x="290" y="-136" on="0"/>
        <pt x="275" y="-209" on="0"/>
        <pt x="275" y="-241" on="1"/>
        <pt x="275" y="-269" on="0"/>
        <pt x="291" y="-312" on="0"/>
        <pt x="326" y="-336" on="0"/>
        <pt x="357" y="-351" on="0"/>
        <pt x="412" y="-357" on="0"/>
        <pt x="440" y="-358" on="0"/>
      </contour>
    </TTGlyph>
    <TTGlyph name="ograve" xMin="78" yMin="-29" xMax="895" yMax="1878">
      <component glyphName="o" x="0" y="0" flags="0x1004"/>
      <component glyphName="grave" x="31" y="43" flags="0x1004"/>
    </TTGlyph>
    <TTGlyph name="ohungarumlaut" xMin="78" yMin="-29" xMax="963" yMax="1878">
      <component glyphName="o" x="0" y="0" flags="0x1004"/>
      <component glyphName="hungarumlaut" x="112" y="31" flags="0x1004"/>
    </TTGlyph>
    <TTGlyph name="omacron" xMin="78" yMin="-29" xMax="895" yMax="1629">
      <component glyphName="o" x="0" y="0" flags="0x1004"/>
      <component glyphName="macron" x="269" y="-21" flags="0x1004"/>
    </TTGlyph>
    <TTGlyph name="one" xMin="43" yMin="0" xMax="569" yMax="1801">
      <contour>
        <pt x="225" y="0" on="1"/>
        <pt x="225" y="1337" on="1"/>
        <pt x="43" y="1337" on="1"/>
        <pt x="43" y="1602" on="1"/>
        <pt x="71" y="1619" on="0"/>
        <pt x="165" y="1664" on="0"/>
        <pt x="217" y="1692" on="0"/>
        <pt x="281" y="1756" on="0"/>
        <pt x="303" y="1801" on="1"/>
        <pt x="569" y="1801" on="1"/>
        <pt x="569" y="0" on="1"/>
      </contour>
    </TTGlyph>
    <TTGlyph name="onehalf" xMin="69" yMin="-15" xMax="1615" yMax="1835">
      <contour>
        <pt x="1615" y="647" on="1"/>
        <pt x="1615" y="603" on="0"/>
        <pt x="1569" y="492" on="0"/>
        <pt x="1487" y="372" on="0"/>
        <pt x="1414" y="277" on="0"/>
        <pt x="1320" y="163" on="0"/>
        <pt x="1305" y="144" on="1"/>
        <pt x="1615" y="144" on="1"/>
        <pt x="1615" y="-15" on="1"/>
        <pt x="1068" y="-15" on="1"/>
        <pt x="1068" y="133" on="1"/>
        <pt x="1070" y="135" on="0"/>
        <pt x="1199" y="292" on="0"/>
        <pt x="1298" y="422" on="0"/>
        <pt x="1392" y="595" on="0"/>
        <pt x="1392" y="647" on="1"/>
        <pt x="1392" y="649" on="0"/>
        <pt x="1392" y="672" on="0"/>
        <pt x="1392" y="682" on="0"/>
        <pt x="1391" y="704" on="0"/>
        <pt x="1388" y="716" on="0"/>
        <pt x="1384" y="735" on="0"/>
        <pt x="1376" y="746" on="0"/>
        <pt x="1366" y="757" on="0"/>
        <pt x="1351" y="762" on="0"/>
        <pt x="1333" y="762" on="0"/>
        <pt x="1317" y="756" on="0"/>
        <pt x="1307" y="744" on="0"/>
        <pt x="1299" y="731" on="0"/>
        <pt x="1295" y="710" on="0"/>
        <pt x="1292" y="695" on="0"/>
        <pt x="1291" y="671" on="0"/>
        <pt x="1291" y="659" on="0"/>
        <pt x="1291" y="636" on="0"/>
        <pt x="1291" y="633" on="1"/>
        <pt x="1068" y="633" on="1"/>
        <pt x="1068" y="765" on="0"/>
        <pt x="1210" y="920" on="0"/>
        <pt x="1342" y="920" on="1"/>
        <pt x="1470" y="920" on="0"/>
        <pt x="1615" y="775" on="0"/>
      </contour>
      <contour>
        <pt x="424" y="0" on="1"/>
        <pt x="1001" y="1835" on="1"/>
        <pt x="1181" y="1835" on="1"/>
        <pt x="603" y="0" on="1"/>
      </contour>
      <contour>
        <pt x="198" y="648" on="1"/>
        <pt x="198" y="1231" on="1"/>
        <pt x="69" y="1231" on="1"/>
        <pt x="69" y="1384" on="1"/>
        <pt x="244" y="1472" on="0"/>
        <pt x="335" y="1583" on="1"/>
        <pt x="421" y="1583" on="1"/>
        <pt x="421" y="648" on="1"/>
      </contour>
    </TTGlyph>
    <TTGlyph name="onequarter" xMin="69" yMin="-15" xMax="1612" yMax="1835">
      <contour>
        <pt x="1167" y="402" on="1"/>
        <pt x="1260" y="402" on="1"/>
        <pt x="1260" y="586" on="1"/>
      </contour>
      <contour>
        <pt x="936" y="244" on="1"/>
        <pt x="936" y="392" on="1"/>
        <pt x="1287" y="985" on="1"/>
        <pt x="1482" y="985" on="1"/>
        <pt x="1482" y="402" on="1"/>
        <pt x="1612" y="402" on="1"/>
        <pt x="1612" y="244" on="1"/>
        <pt x="1482" y="244" on="1"/>
        <pt x="1482" y="-15" on="1"/>
        <pt x="1260" y="-15" on="1"/>
        <pt x="1260" y="244" on="1"/>
      </contour>
      <contour>
        <pt x="424" y="0" on="1"/>
        <pt x="1001" y="1835" on="1"/>
        <pt x="1181" y="1835" on="1"/>
        <pt x="603" y="0" on="1"/>
      </contour>
      <contour>
        <pt x="198" y="648" on="1"/>
        <pt x="198" y="1231" on="1"/>
        <pt x="69" y="1231" on="1"/>
        <pt x="69" y="1384" on="1"/>
        <pt x="244" y="1472" on="0"/>
        <pt x="335" y="1583" on="1"/>
        <pt x="421" y="1583" on="1"/>
        <pt x="421" y="648" on="1"/>
      </contour>
    </TTGlyph>
    <TTGlyph name="ordfeminine" xMin="155" yMin="-11" xMax="778" yMax="901">
      <contour>
        <pt x="536" y="239" on="1"/>
        <pt x="536" y="403" on="1"/>
        <pt x="507" y="386" on="0"/>
        <pt x="488" y="375" on="0"/>
        <pt x="431" y="336" on="0"/>
        <pt x="405" y="308" on="0"/>
        <pt x="380" y="265" on="0"/>
        <pt x="380" y="244" on="1"/>
        <pt x="380" y="213" on="0"/>
        <pt x="408" y="173" on="0"/>
        <pt x="468" y="173" on="0"/>
        <pt x="522" y="211" on="0"/>
      </contour>
      <contour>
        <pt x="554" y="0" on="1"/>
        <pt x="554" y="85" on="1"/>
        <pt x="522" y="41" on="0"/>
        <pt x="419" y="-11" on="0"/>
        <pt x="364" y="-11" on="1"/>
        <pt x="279" y="-11" on="0"/>
        <pt x="155" y="113" on="0"/>
        <pt x="155" y="198" on="1"/>
        <pt x="155" y="255" on="0"/>
        <pt x="204" y="349" on="0"/>
        <pt x="261" y="405" on="0"/>
        <pt x="382" y="464" on="0"/>
        <pt x="444" y="486" on="0"/>
        <pt x="515" y="508" on="1"/>
        <pt x="529" y="513" on="0"/>
        <pt x="536" y="515" on="1"/>
        <pt x="536" y="601" on="1"/>
        <pt x="536" y="726" on="0"/>
        <pt x="473" y="726" on="1"/>
        <pt x="396" y="726" on="0"/>
        <pt x="396" y="574" on="1"/>
        <pt x="188" y="574" on="1"/>
        <pt x="190" y="713" on="0"/>
        <pt x="341" y="901" on="0"/>
        <pt x="477" y="901" on="1"/>
        <pt x="557" y="901" on="0"/>
        <pt x="672" y="847" on="0"/>
        <pt x="732" y="756" on="0"/>
        <pt x="766" y="628" on="0"/>
        <pt x="770" y="492" on="0"/>
        <pt x="768" y="334" on="0"/>
        <pt x="760" y="194" on="0"/>
        <pt x="766" y="50" on="0"/>
        <pt x="778" y="0" on="1"/>
      </contour>
    </TTGlyph>
    <TTGlyph name="ordmasculine" xMin="114" yMin="-15" xMax="852" yMax="1196">
      <contour>
        <pt x="594" y="471" on="1"/>
        <pt x="594" y="710" on="1"/>
        <pt x="594" y="717" on="0"/>
        <pt x="595" y="769" on="0"/>
        <pt x="594" y="793" on="0"/>
        <pt x="592" y="842" on="0"/>
        <pt x="585" y="869" on="0"/>
        <pt x="575" y="909" on="0"/>
        <pt x="557" y="931" on="0"/>
        <pt x="534" y="954" on="0"/>
        <pt x="499" y="964" on="0"/>
        <pt x="478" y="964" on="1"/>
        <pt x="449" y="964" on="0"/>
        <pt x="405" y="944" on="0"/>
        <pt x="380" y="901" on="0"/>
        <pt x="365" y="862" on="0"/>
        <pt x="359" y="797" on="0"/>
        <pt x="358" y="760" on="0"/>
        <pt x="358" y="727" on="1"/>
        <pt x="358" y="723" on="0"/>
        <pt x="358" y="719" on="0"/>
        <pt x="358" y="713" on="0"/>
        <pt x="358" y="710" on="1"/>
        <pt x="358" y="471" on="1"/>
        <pt x="358" y="466" on="0"/>
        <pt x="358" y="454" on="1"/>
        <pt x="358" y="426" on="0"/>
        <pt x="358" y="395" on="0"/>
        <pt x="362" y="338" on="0"/>
        <pt x="371" y="303" on="0"/>
        <pt x="388" y="259" on="0"/>
        <pt x="413" y="234" on="0"/>
        <pt x="453" y="216" on="0"/>
        <pt x="478" y="216" on="1"/>
        <pt x="499" y="216" on="0"/>
        <pt x="534" y="226" on="0"/>
        <pt x="557" y="249" on="0"/>
        <pt x="575" y="271" on="0"/>
        <pt x="585" y="312" on="0"/>
        <pt x="592" y="338" on="0"/>
        <pt x="594" y="388" on="0"/>
        <pt x="595" y="412" on="0"/>
        <pt x="594" y="464" on="0"/>
      </contour>
      <contour>
        <pt x="114" y="430" on="1"/>
        <pt x="114" y="752" on="1"/>
        <pt x="114" y="854" on="0"/>
        <pt x="149" y="1008" on="0"/>
        <pt x="231" y="1132" on="0"/>
        <pt x="378" y="1196" on="0"/>
        <pt x="483" y="1196" on="1"/>
        <pt x="581" y="1196" on="0"/>
        <pt x="727" y="1126" on="0"/>
        <pt x="812" y="1002" on="0"/>
        <pt x="852" y="846" on="0"/>
        <pt x="852" y="752" on="1"/>
        <pt x="852" y="430" on="1"/>
        <pt x="852" y="335" on="0"/>
        <pt x="812" y="178" on="0"/>
        <pt x="727" y="54" on="0"/>
        <pt x="582" y="-15" on="0"/>
        <pt x="483" y="-15" on="1"/>
        <pt x="378" y="-15" on="0"/>
        <pt x="231" y="49" on="0"/>
        <pt x="149" y="173" on="0"/>
        <pt x="114" y="328" on="0"/>
      </contour>
    </TTGlyph>
    <TTGlyph name="oslash" xMin="83" yMin="-253" xMax="900" yMax="1564">
      <contour>
        <pt x="566" y="346" on="1"/>
        <pt x="566" y="964" on="1"/>
        <pt x="566" y="1063" on="0"/>
        <pt x="489" y="1063" on="1"/>
        <pt x="420" y="1063" on="0"/>
        <pt x="420" y="964" on="1"/>
        <pt x="420" y="346" on="1"/>
        <pt x="420" y="324" on="0"/>
        <pt x="423" y="295" on="0"/>
        <pt x="435" y="256" on="0"/>
        <pt x="465" y="236" on="0"/>
        <pt x="489" y="236" on="1"/>
        <pt x="566" y="236" on="0"/>
      </contour>
      <contour>
        <pt x="208" y="-233" on="1"/>
        <pt x="281" y="21" on="1"/>
        <pt x="190" y="68" on="0"/>
        <pt x="83" y="233" on="0"/>
        <pt x="83" y="339" on="1"/>
        <pt x="83" y="894" on="1"/>
        <pt x="83" y="1103" on="0"/>
        <pt x="280" y="1334" on="0"/>
        <pt x="489" y="1334" on="1"/>
        <pt x="580" y="1334" on="0"/>
        <pt x="652" y="1311" on="1"/>
        <pt x="725" y="1564" on="1"/>
        <pt x="802" y="1544" on="1"/>
        <pt x="725" y="1278" on="1"/>
        <pt x="900" y="1175" on="0"/>
        <pt x="900" y="894" on="1"/>
        <pt x="900" y="339" on="1"/>
        <pt x="900" y="176" on="0"/>
        <pt x="658" y="-28" on="0"/>
        <pt x="489" y="-28" on="1"/>
        <pt x="420" y="-28" on="0"/>
        <pt x="354" y="-8" on="1"/>
        <pt x="284" y="-253" on="1"/>
      </contour>
    </TTGlyph>
    <TTGlyph name="otilde" xMin="78" yMin="-29" xMax="895" yMax="1743">
      <component glyphName="o" x="0" y="0" flags="0x1004"/>
      <component glyphName="tilde" x="14" y="14" flags="0x1004"/>
    </TTGlyph>
    <TTGlyph name="p" xMin="95" yMin="-371" xMax="920" yMax="1335">
      <contour>
        <pt x="95" y="-371" on="1"/>
        <pt x="95" y="1305" on="1"/>
        <pt x="432" y="1305" on="1"/>
        <pt x="432" y="1217" on="1"/>
        <pt x="473" y="1270" on="0"/>
        <pt x="586" y="1335" on="0"/>
        <pt x="649" y="1335" on="1"/>
        <pt x="764" y="1335" on="0"/>
        <pt x="920" y="1145" on="0"/>
        <pt x="920" y="1021" on="1"/>
        <pt x="920" y="250" on="1"/>
        <pt x="920" y="138" on="0"/>
        <pt x="770" y="-29" on="0"/>
        <pt x="659" y="-29" on="1"/>
        <pt x="592" y="-29" on="0"/>
        <pt x="472" y="39" on="0"/>
        <pt x="432" y="98" on="1"/>
        <pt x="432" y="-371" on="1"/>
      </contour>
      <contour>
        <pt x="583" y="319" on="1"/>
        <pt x="583" y="994" on="1"/>
        <pt x="583" y="1080" on="0"/>
        <pt x="527" y="1080" on="1"/>
        <pt x="489" y="1080" on="0"/>
        <pt x="432" y="1005" on="1"/>
        <pt x="432" y="297" on="1"/>
        <pt x="484" y="225" on="0"/>
        <pt x="527" y="225" on="1"/>
        <pt x="551" y="225" on="0"/>
        <pt x="578" y="257" on="0"/>
        <pt x="583" y="292" on="0"/>
      </contour>
    </TTGlyph>
    <TTGlyph name="paragraph" xMin="23" yMin="0" xMax="943" yMax="1583">
      <contour>
        <pt x="394" y="0" on="1"/>
        <pt x="394" y="887" on="1"/>
        <pt x="232" y="891" on="0"/>
        <pt x="23" y="1075" on="0"/>
        <pt x="23" y="1233" on="1"/>
        <pt x="23" y="1328" on="0"/>
        <pt x="89" y="1467" on="0"/>
        <pt x="209" y="1546" on="0"/>
        <pt x="358" y="1583" on="0"/>
        <pt x="450" y="1583" on="1"/>
        <pt x="943" y="1583" on="1"/>
        <pt x="943" y="0" on="1"/>
        <pt x="734" y="0" on="1"/>
        <pt x="734" y="887" on="1"/>
        <pt x="621" y="887" on="1"/>
        <pt x="621" y="0" on="1"/>
      </contour>
    </TTGlyph>
    <TTGlyph name="parenleft" xMin="156" yMin="-65" xMax="637" yMax="1907">
      <contour>
        <pt x="637" y="158" on="1"/>
        <pt x="637" y="-64" on="1"/>
        <pt x="537" y="-65" on="0"/>
        <pt x="380" y="8" on="0"/>
        <pt x="281" y="110" on="0"/>
        <pt x="210" y="291" on="0"/>
        <pt x="176" y="432" on="0"/>
        <pt x="158" y="662" on="0"/>
        <pt x="156" y="784" on="0"/>
        <pt x="156" y="891" on="1"/>
        <pt x="156" y="898" on="0"/>
        <pt x="156" y="905" on="0"/>
        <pt x="156" y="916" on="0"/>
        <pt x="156" y="921" on="1"/>
        <pt x="156" y="931" on="0"/>
        <pt x="156" y="951" on="1"/>
        <pt x="156" y="1059" on="0"/>
        <pt x="158" y="1181" on="0"/>
        <pt x="176" y="1410" on="0"/>
        <pt x="210" y="1552" on="0"/>
        <pt x="281" y="1732" on="0"/>
        <pt x="380" y="1835" on="0"/>
        <pt x="537" y="1907" on="0"/>
        <pt x="637" y="1907" on="1"/>
        <pt x="637" y="1685" on="1"/>
        <pt x="598" y="1686" on="0"/>
        <pt x="536" y="1644" on="0"/>
        <pt x="495" y="1567" on="0"/>
        <pt x="465" y="1473" on="0"/>
        <pt x="450" y="1353" on="0"/>
        <pt x="440" y="1244" on="0"/>
        <pt x="439" y="1118" on="0"/>
        <pt x="440" y="1030" on="0"/>
        <pt x="443" y="936" on="0"/>
        <pt x="443" y="906" on="0"/>
        <pt x="440" y="812" on="0"/>
        <pt x="439" y="725" on="0"/>
        <pt x="440" y="599" on="0"/>
        <pt x="450" y="490" on="0"/>
        <pt x="465" y="370" on="0"/>
        <pt x="495" y="276" on="0"/>
        <pt x="536" y="199" on="0"/>
        <pt x="598" y="157" on="0"/>
      </contour>
    </TTGlyph>
    <TTGlyph name="parenright" xMin="110" yMin="-65" xMax="592" yMax="1907">
      <contour>
        <pt x="110" y="-64" on="1"/>
        <pt x="110" y="158" on="1"/>
        <pt x="149" y="157" on="0"/>
        <pt x="211" y="199" on="0"/>
        <pt x="251" y="276" on="0"/>
        <pt x="282" y="370" on="0"/>
        <pt x="297" y="490" on="0"/>
        <pt x="306" y="600" on="0"/>
        <pt x="307" y="725" on="0"/>
        <pt x="307" y="812" on="0"/>
        <pt x="304" y="906" on="0"/>
        <pt x="304" y="936" on="0"/>
        <pt x="307" y="1030" on="0"/>
        <pt x="307" y="1117" on="0"/>
        <pt x="306" y="1243" on="0"/>
        <pt x="297" y="1352" on="0"/>
        <pt x="282" y="1473" on="0"/>
        <pt x="251" y="1567" on="0"/>
        <pt x="211" y="1644" on="0"/>
        <pt x="149" y="1686" on="0"/>
        <pt x="110" y="1685" on="1"/>
        <pt x="110" y="1907" on="1"/>
        <pt x="181" y="1907" on="0"/>
        <pt x="301" y="1875" on="0"/>
        <pt x="391" y="1807" on="0"/>
        <pt x="463" y="1732" on="0"/>
        <pt x="513" y="1612" on="0"/>
        <pt x="551" y="1514" on="0"/>
        <pt x="572" y="1364" on="0"/>
        <pt x="586" y="1264" on="0"/>
        <pt x="591" y="1103" on="0"/>
        <pt x="592" y="1021" on="0"/>
        <pt x="592" y="947" on="1"/>
        <pt x="592" y="930" on="0"/>
        <pt x="592" y="912" on="0"/>
        <pt x="592" y="895" on="1"/>
        <pt x="592" y="788" on="0"/>
        <pt x="590" y="666" on="0"/>
        <pt x="572" y="436" on="0"/>
        <pt x="538" y="293" on="0"/>
        <pt x="467" y="112" on="0"/>
        <pt x="367" y="8" on="0"/>
        <pt x="210" y="-65" on="0"/>
      </contour>
    </TTGlyph>
    <TTGlyph name="percent" xMin="94" yMin="0" xMax="1942" yMax="1835">
      <contour>
        <pt x="634" y="0" on="1"/>
        <pt x="1211" y="1835" on="1"/>
        <pt x="1391" y="1835" on="1"/>
        <pt x="813" y="0" on="1"/>
      </contour>
      <contour>
        <pt x="1436" y="517" on="1"/>
        <pt x="1436" y="511" on="1"/>
        <pt x="1436" y="452" on="0"/>
        <pt x="1440" y="373" on="0"/>
        <pt x="1454" y="289" on="0"/>
        <pt x="1479" y="240" on="0"/>
        <pt x="1523" y="208" on="0"/>
        <pt x="1555" y="208" on="1"/>
        <pt x="1594" y="208" on="0"/>
        <pt x="1643" y="251" on="0"/>
        <pt x="1666" y="343" on="0"/>
        <pt x="1673" y="436" on="0"/>
        <pt x="1673" y="511" on="1"/>
        <pt x="1673" y="516" on="1"/>
        <pt x="1673" y="567" on="0"/>
        <pt x="1671" y="630" on="0"/>
        <pt x="1664" y="705" on="0"/>
        <pt x="1648" y="749" on="0"/>
        <pt x="1623" y="789" on="0"/>
        <pt x="1582" y="807" on="0"/>
        <pt x="1528" y="807" on="0"/>
        <pt x="1488" y="789" on="0"/>
        <pt x="1462" y="750" on="0"/>
        <pt x="1446" y="705" on="0"/>
        <pt x="1438" y="632" on="0"/>
        <pt x="1436" y="567" on="0"/>
      </contour>
      <contour>
        <pt x="1170" y="511" on="1"/>
        <pt x="1170" y="520" on="1"/>
        <pt x="1171" y="637" on="0"/>
        <pt x="1211" y="813" on="0"/>
        <pt x="1299" y="947" on="0"/>
        <pt x="1449" y="1016" on="0"/>
        <pt x="1555" y="1016" on="1"/>
        <pt x="1660" y="1016" on="0"/>
        <pt x="1811" y="947" on="0"/>
        <pt x="1900" y="814" on="0"/>
        <pt x="1941" y="637" on="0"/>
        <pt x="1942" y="520" on="1"/>
        <pt x="1942" y="511" on="1"/>
        <pt x="1942" y="0" on="0"/>
        <pt x="1555" y="0" on="1"/>
        <pt x="1170" y="0" on="0"/>
      </contour>
      <contour>
        <pt x="360" y="1306" on="1"/>
        <pt x="360" y="1295" on="1"/>
        <pt x="360" y="1236" on="0"/>
        <pt x="364" y="1157" on="0"/>
        <pt x="378" y="1073" on="0"/>
        <pt x="403" y="1024" on="0"/>
        <pt x="447" y="992" on="0"/>
        <pt x="479" y="992" on="1"/>
        <pt x="518" y="992" on="0"/>
        <pt x="567" y="1035" on="0"/>
        <pt x="590" y="1127" on="0"/>
        <pt x="597" y="1220" on="0"/>
        <pt x="597" y="1295" on="1"/>
        <pt x="597" y="1304" on="1"/>
        <pt x="597" y="1354" on="0"/>
        <pt x="595" y="1417" on="0"/>
        <pt x="587" y="1490" on="0"/>
        <pt x="572" y="1534" on="0"/>
        <pt x="546" y="1574" on="0"/>
        <pt x="506" y="1591" on="0"/>
        <pt x="479" y="1591" on="1"/>
        <pt x="447" y="1591" on="0"/>
        <pt x="402" y="1563" on="0"/>
        <pt x="377" y="1519" on="0"/>
        <pt x="364" y="1439" on="0"/>
        <pt x="360" y="1365" on="0"/>
      </contour>
      <contour>
        <pt x="94" y="1295" on="1"/>
        <pt x="94" y="1301" on="1"/>
        <pt x="94" y="1419" on="0"/>
        <pt x="134" y="1596" on="0"/>
        <pt x="222" y="1731" on="0"/>
        <pt x="373" y="1800" on="0"/>
        <pt x="479" y="1800" on="1"/>
        <pt x="584" y="1800" on="0"/>
        <pt x="735" y="1731" on="0"/>
        <pt x="824" y="1597" on="0"/>
        <pt x="865" y="1420" on="0"/>
        <pt x="866" y="1303" on="1"/>
        <pt x="866" y="1295" on="1"/>
        <pt x="866" y="784" on="0"/>
        <pt x="479" y="784" on="1"/>
        <pt x="94" y="784" on="0"/>
      </contour>
    </TTGlyph>
    <TTGlyph name="period" xMin="99" yMin="0" xMax="424" yMax="317">
      <contour>
        <pt x="99" y="0" on="1"/>
        <pt x="99" y="317" on="1"/>
        <pt x="424" y="317" on="1"/>
        <pt x="424" y="0" on="1"/>
      </contour>
    </TTGlyph>
    <TTGlyph name="periodcentered" xMin="99" yMin="679" xMax="422" yMax="994">
      <contour>
        <pt x="99" y="679" on="1"/>
        <pt x="99" y="994" on="1"/>
        <pt x="422" y="994" on="1"/>
        <pt x="422" y="679" on="1"/>
      </contour>
    </TTGlyph>
    <TTGlyph name="plus" xMin="70" yMin="389" xMax="682" yMax="1000">
      <contour>
        <pt x="70" y="583" on="1"/>
        <pt x="70" y="806" on="1"/>
        <pt x="265" y="806" on="1"/>
        <pt x="265" y="1000" on="1"/>
        <pt x="487" y="1000" on="1"/>
        <pt x="487" y="806" on="1"/>
        <pt x="682" y="806" on="1"/>
        <pt x="682" y="583" on="1"/>
        <pt x="487" y="583" on="1"/>
        <pt x="487" y="389" on="1"/>
        <pt x="265" y="389" on="1"/>
        <pt x="265" y="583" on="1"/>
      </contour>
    </TTGlyph>
    <TTGlyph name="plusminus" xMin="137" yMin="0" xMax="747" yMax="1000">
      <contour>
        <pt x="330" y="389" on="1"/>
        <pt x="330" y="583" on="1"/>
        <pt x="137" y="583" on="1"/>
        <pt x="137" y="806" on="1"/>
        <pt x="330" y="806" on="1"/>
        <pt x="330" y="1000" on="1"/>
        <pt x="554" y="1000" on="1"/>
        <pt x="554" y="806" on="1"/>
        <pt x="747" y="806" on="1"/>
        <pt x="747" y="583" on="1"/>
        <pt x="554" y="583" on="1"/>
        <pt x="554" y="389" on="1"/>
      </contour>
      <contour>
        <pt x="137" y="0" on="1"/>
        <pt x="137" y="223" on="1"/>
        <pt x="747" y="223" on="1"/>
        <pt x="747" y="0" on="1"/>
      </contour>
    </TTGlyph>
    <TTGlyph name="product" xMin="143" yMin="0" xMax="1103" yMax="1792">
      <contour>
        <pt x="143" y="0" on="1"/>
        <pt x="143" y="1792" on="1"/>
        <pt x="1103" y="1792" on="1"/>
        <pt x="1103" y="0" on="1"/>
        <pt x="847" y="0" on="1"/>
        <pt x="847" y="1600" on="1"/>
        <pt x="399" y="1600" on="1"/>
        <pt x="399" y="0" on="1"/>
      </contour>
    </TTGlyph>
    <TTGlyph name="q" xMin="82" yMin="-371" xMax="885" yMax="1335">
      <contour>
        <pt x="548" y="-371" on="1"/>
        <pt x="548" y="89" on="1"/>
        <pt x="509" y="36" on="0"/>
        <pt x="401" y="-29" on="0"/>
        <pt x="341" y="-29" on="1"/>
        <pt x="231" y="-29" on="0"/>
        <pt x="82" y="143" on="0"/>
        <pt x="82" y="255" on="1"/>
        <pt x="82" y="1056" on="1"/>
        <pt x="82" y="1168" on="0"/>
        <pt x="231" y="1335" on="0"/>
        <pt x="341" y="1335" on="1"/>
        <pt x="402" y="1335" on="0"/>
        <pt x="511" y="1267" on="0"/>
        <pt x="548" y="1208" on="1"/>
        <pt x="548" y="1305" on="1"/>
        <pt x="885" y="1305" on="1"/>
        <pt x="885" y="-371" on="1"/>
      </contour>
      <contour>
        <pt x="548" y="301" on="1"/>
        <pt x="548" y="1009" on="1"/>
        <pt x="533" y="1030" on="0"/>
        <pt x="518" y="1049" on="0"/>
        <pt x="479" y="1080" on="0"/>
        <pt x="463" y="1080" on="1"/>
        <pt x="443" y="1080" on="0"/>
        <pt x="421" y="1051" on="0"/>
        <pt x="417" y="1020" on="0"/>
        <pt x="417" y="996" on="1"/>
        <pt x="417" y="309" on="1"/>
        <pt x="417" y="225" on="0"/>
        <pt x="463" y="225" on="1"/>
        <pt x="475" y="225" on="0"/>
        <pt x="500" y="239" on="0"/>
        <pt x="526" y="270" on="0"/>
        <pt x="537" y="285" on="0"/>
      </contour>
    </TTGlyph>
    <TTGlyph name="question" xMin="46" yMin="0" xMax="946" yMax="1835">
      <contour>
        <pt x="259" y="0" on="1"/>
        <pt x="259" y="324" on="1"/>
        <pt x="593" y="324" on="1"/>
        <pt x="593" y="0" on="1"/>
      </contour>
      <contour>
        <pt x="259" y="480" on="1"/>
        <pt x="259" y="868" on="1"/>
        <pt x="325" y="913" on="0"/>
        <pt x="444" y="1026" on="0"/>
        <pt x="548" y="1162" on="0"/>
        <pt x="609" y="1323" on="0"/>
        <pt x="609" y="1402" on="1"/>
        <pt x="609" y="1471" on="0"/>
        <pt x="544" y="1541" on="0"/>
        <pt x="483" y="1541" on="1"/>
        <pt x="427" y="1541" on="0"/>
        <pt x="370" y="1450" on="0"/>
        <pt x="370" y="1382" on="1"/>
        <pt x="370" y="1320" on="0"/>
        <pt x="389" y="1258" on="1"/>
        <pt x="75" y="1198" on="1"/>
        <pt x="46" y="1309" on="0"/>
        <pt x="46" y="1408" on="1"/>
        <pt x="46" y="1600" on="0"/>
        <pt x="264" y="1835" on="0"/>
        <pt x="483" y="1835" on="1"/>
        <pt x="704" y="1835" on="0"/>
        <pt x="946" y="1600" on="0"/>
        <pt x="946" y="1382" on="1"/>
        <pt x="946" y="1188" on="0"/>
        <pt x="759" y="856" on="0"/>
        <pt x="593" y="760" on="1"/>
        <pt x="593" y="480" on="1"/>
      </contour>
    </TTGlyph>
    <TTGlyph name="questiondown" xMin="138" yMin="-530" xMax="1038" yMax="1305">
      <component glyphName="question" x="1084" y="1305" scale="-1.0" flags="0x1004"/>
    </TTGlyph>
    <TTGlyph name="quotedbl" xMin="40" yMin="1202" xMax="718" yMax="1801">
      <contour>
        <pt x="434" y="1202" on="1"/>
        <pt x="433" y="1801" on="1"/>
        <pt x="718" y="1801" on="1"/>
        <pt x="616" y="1202" on="1"/>
      </contour>
      <contour>
        <pt x="130" y="1202" on="1"/>
        <pt x="40" y="1801" on="1"/>
        <pt x="334" y="1801" on="1"/>
        <pt x="333" y="1202" on="1"/>
      </contour>
    </TTGlyph>
    <TTGlyph name="quotedblbase" xMin="60" yMin="-320" xMax="688" yMax="104">
      <contour>
        <pt x="454" y="-320" on="1"/>
        <pt x="383" y="104" on="1"/>
        <pt x="688" y="104" on="1"/>
        <pt x="616" y="-320" on="1"/>
      </contour>
      <contour>
        <pt x="130" y="-320" on="1"/>
        <pt x="60" y="104" on="1"/>
        <pt x="364" y="104" on="1"/>
        <pt x="293" y="-320" on="1"/>
      </contour>
    </TTGlyph>
    <TTGlyph name="quotedblleft" xMin="125" yMin="1281" xMax="824" yMax="1834">
      <contour>
        <pt x="813" y="1281" on="1"/>
        <pt x="516" y="1281" on="1"/>
        <pt x="516" y="1308" on="0"/>
        <pt x="512" y="1414" on="0"/>
        <pt x="510" y="1490" on="0"/>
        <pt x="515" y="1595" on="0"/>
        <pt x="529" y="1670" on="0"/>
        <pt x="562" y="1752" on="0"/>
        <pt x="611" y="1802" on="0"/>
        <pt x="690" y="1834" on="0"/>
        <pt x="742" y="1834" on="1"/>
        <pt x="824" y="1665" on="1"/>
        <pt x="770" y="1666" on="0"/>
        <pt x="688" y="1626" on="0"/>
        <pt x="685" y="1578" on="1"/>
        <pt x="813" y="1578" on="1"/>
      </contour>
      <contour>
        <pt x="428" y="1281" on="1"/>
        <pt x="131" y="1281" on="1"/>
        <pt x="131" y="1308" on="0"/>
        <pt x="127" y="1414" on="0"/>
        <pt x="125" y="1490" on="0"/>
        <pt x="130" y="1595" on="0"/>
        <pt x="144" y="1670" on="0"/>
        <pt x="177" y="1752" on="0"/>
        <pt x="226" y="1802" on="0"/>
        <pt x="305" y="1834" on="0"/>
        <pt x="357" y="1834" on="1"/>
        <pt x="440" y="1665" on="1"/>
        <pt x="406" y="1666" on="0"/>
        <pt x="349" y="1653" on="0"/>
        <pt x="302" y="1612" on="0"/>
        <pt x="300" y="1578" on="1"/>
        <pt x="428" y="1578" on="1"/>
      </contour>
    </TTGlyph>
    <TTGlyph name="quotedblright" xMin="119" yMin="1281" xMax="819" yMax="1834">
      <contour>
        <pt x="587" y="1281" on="1"/>
        <pt x="503" y="1450" on="1"/>
        <pt x="558" y="1449" on="0"/>
        <pt x="641" y="1488" on="0"/>
        <pt x="644" y="1537" on="1"/>
        <pt x="516" y="1537" on="1"/>
        <pt x="516" y="1834" on="1"/>
        <pt x="813" y="1834" on="1"/>
        <pt x="813" y="1807" on="0"/>
        <pt x="817" y="1701" on="0"/>
        <pt x="819" y="1625" on="0"/>
        <pt x="814" y="1520" on="0"/>
        <pt x="800" y="1445" on="0"/>
        <pt x="767" y="1363" on="0"/>
        <pt x="718" y="1313" on="0"/>
        <pt x="639" y="1281" on="0"/>
      </contour>
      <contour>
        <pt x="203" y="1281" on="1"/>
        <pt x="119" y="1450" on="1"/>
        <pt x="152" y="1449" on="0"/>
        <pt x="209" y="1461" on="0"/>
        <pt x="258" y="1503" on="0"/>
        <pt x="259" y="1537" on="1"/>
        <pt x="131" y="1537" on="1"/>
        <pt x="131" y="1834" on="1"/>
        <pt x="428" y="1834" on="1"/>
        <pt x="428" y="1807" on="0"/>
        <pt x="432" y="1702" on="0"/>
        <pt x="434" y="1626" on="0"/>
        <pt x="429" y="1520" on="0"/>
        <pt x="415" y="1445" on="0"/>
        <pt x="383" y="1364" on="0"/>
        <pt x="334" y="1313" on="0"/>
        <pt x="255" y="1281" on="0"/>
      </contour>
    </TTGlyph>
    <TTGlyph name="quoteleft" xMin="122" yMin="1281" xMax="436" yMax="1834">
      <contour>
        <pt x="425" y="1281" on="1"/>
        <pt x="128" y="1281" on="1"/>
        <pt x="128" y="1308" on="0"/>
        <pt x="124" y="1413" on="0"/>
        <pt x="122" y="1489" on="0"/>
        <pt x="127" y="1595" on="0"/>
        <pt x="141" y="1670" on="0"/>
        <pt x="173" y="1751" on="0"/>
        <pt x="222" y="1802" on="0"/>
        <pt x="301" y="1834" on="0"/>
        <pt x="353" y="1834" on="1"/>
        <pt x="436" y="1665" on="1"/>
        <pt x="403" y="1666" on="0"/>
        <pt x="346" y="1653" on="0"/>
        <pt x="298" y="1611" on="0"/>
        <pt x="297" y="1578" on="1"/>
        <pt x="425" y="1578" on="1"/>
      </contour>
    </TTGlyph>
    <TTGlyph name="quoteright" xMin="115" yMin="1281" xMax="430" yMax="1834">
      <contour>
        <pt x="199" y="1281" on="1"/>
        <pt x="115" y="1450" on="1"/>
        <pt x="170" y="1449" on="0"/>
        <pt x="253" y="1488" on="0"/>
        <pt x="256" y="1537" on="1"/>
        <pt x="128" y="1537" on="1"/>
        <pt x="128" y="1834" on="1"/>
        <pt x="424" y="1834" on="1"/>
        <pt x="424" y="1807" on="0"/>
        <pt x="428" y="1702" on="0"/>
        <pt x="430" y="1626" on="0"/>
        <pt x="425" y="1520" on="0"/>
        <pt x="411" y="1445" on="0"/>
        <pt x="379" y="1364" on="0"/>
        <pt x="330" y="1313" on="0"/>
        <pt x="251" y="1281" on="0"/>
      </contour>
    </TTGlyph>
    <TTGlyph name="quotesinglbase" xMin="57" yMin="-321" xMax="361" yMax="103">
      <contour>
        <pt x="127" y="-321" on="1"/>
        <pt x="57" y="103" on="1"/>
        <pt x="361" y="103" on="1"/>
        <pt x="290" y="-321" on="1"/>
      </contour>
    </TTGlyph>
    <TTGlyph name="quotesingle" xMin="31" yMin="1201" xMax="335" yMax="1799">
      <contour>
        <pt x="101" y="1201" on="1"/>
        <pt x="31" y="1799" on="1"/>
        <pt x="335" y="1799" on="1"/>
        <pt x="264" y="1201" on="1"/>
      </contour>
    </TTGlyph>
    <TTGlyph name="r" xMin="94" yMin="0" xMax="700" yMax="1324">
      <contour>
        <pt x="94" y="0" on="1"/>
        <pt x="94" y="1305" on="1"/>
        <pt x="429" y="1305" on="1"/>
        <pt x="429" y="1199" on="1"/>
        <pt x="506" y="1324" on="0"/>
        <pt x="609" y="1324" on="1"/>
        <pt x="638" y="1324" on="0"/>
        <pt x="700" y="1314" on="1"/>
        <pt x="700" y="1030" on="1"/>
        <pt x="607" y="1040" on="0"/>
        <pt x="569" y="1040" on="1"/>
        <pt x="500" y="1040" on="0"/>
        <pt x="429" y="955" on="0"/>
        <pt x="429" y="876" on="1"/>
        <pt x="429" y="0" on="1"/>
      </contour>
    </TTGlyph>
    <TTGlyph name="racute" xMin="94" yMin="0" xMax="776" yMax="1878">
      <component glyphName="r" x="0" y="0" flags="0x1004"/>
      <component glyphName="acute" x="182" y="43" flags="0x1004"/>
    </TTGlyph>
    <TTGlyph name="rcaron" xMin="48" yMin="0" xMax="745" yMax="1842">
      <component glyphName="r" x="0" y="0" flags="0x1004"/>
      <component glyphName="caron" x="-32" y="51" flags="0x1004"/>
    </TTGlyph>
    <TTGlyph name="rcommaaccent" xMin="94" yMin="-667" xMax="700" yMax="1324">
      <component glyphName="r" x="0" y="0" flags="0x1004"/>
      <component glyphName="uni0326" x="91" y="-24" flags="0x1004"/>
    </TTGlyph>
    <TTGlyph name="registered" xMin="83" yMin="-15" xMax="1516" yMax="1461">
      <contour>
        <pt x="720" y="766" on="1"/>
        <pt x="812" y="766" on="0"/>
        <pt x="888" y="833" on="0"/>
        <pt x="888" y="922" on="1"/>
        <pt x="888" y="1062" on="0"/>
        <pt x="777" y="1062" on="1"/>
        <pt x="720" y="1062" on="1"/>
      </contour>
      <contour>
        <pt x="534" y="251" on="1"/>
        <pt x="534" y="1197" on="1"/>
        <pt x="419" y="1122" on="0"/>
        <pt x="284" y="865" on="0"/>
        <pt x="284" y="719" on="1"/>
        <pt x="284" y="574" on="0"/>
        <pt x="414" y="321" on="0"/>
        <pt x="653" y="163" on="0"/>
        <pt x="799" y="163" on="1"/>
        <pt x="953" y="163" on="0"/>
        <pt x="1078" y="251" on="1"/>
        <pt x="907" y="251" on="1"/>
        <pt x="778" y="641" on="1"/>
        <pt x="720" y="641" on="1"/>
        <pt x="720" y="251" on="1"/>
      </contour>
      <contour>
        <pt x="799" y="-15" on="1"/>
        <pt x="651" y="-15" on="0"/>
        <pt x="384" y="104" on="0"/>
        <pt x="194" y="304" on="0"/>
        <pt x="83" y="575" on="0"/>
        <pt x="83" y="723" on="1"/>
        <pt x="83" y="870" on="0"/>
        <pt x="194" y="1142" on="0"/>
        <pt x="384" y="1342" on="0"/>
        <pt x="651" y="1461" on="0"/>
        <pt x="799" y="1461" on="1"/>
        <pt x="997" y="1461" on="0"/>
        <pt x="1328" y="1259" on="0"/>
        <pt x="1516" y="920" on="0"/>
        <pt x="1516" y="723" on="1"/>
        <pt x="1516" y="527" on="0"/>
        <pt x="1328" y="188" on="0"/>
        <pt x="997" y="-15" on="0"/>
      </contour>
      <contour>
        <pt x="1101" y="269" on="1"/>
        <pt x="1200" y="347" on="0"/>
        <pt x="1313" y="586" on="0"/>
        <pt x="1313" y="719" on="1"/>
        <pt x="1313" y="826" on="0"/>
        <pt x="1236" y="1028" on="0"/>
        <pt x="1103" y="1182" on="0"/>
        <pt x="909" y="1275" on="0"/>
        <pt x="799" y="1275" on="1"/>
        <pt x="669" y="1275" on="0"/>
        <pt x="556" y="1210" on="1"/>
        <pt x="791" y="1210" on="1"/>
        <pt x="1078" y="1210" on="0"/>
        <pt x="1078" y="918" on="1"/>
        <pt x="1078" y="758" on="0"/>
        <pt x="952" y="682" on="1"/>
        <pt x="961" y="635" on="0"/>
        <pt x="999" y="517" on="0"/>
        <pt x="1031" y="436" on="0"/>
        <pt x="1090" y="296" on="0"/>
      </contour>
    </TTGlyph>
    <TTGlyph name="ring" xMin="119" yMin="1438" xMax="625" yMax="1916">
      <contour>
        <pt x="119" y="1568" on="0"/>
        <pt x="119" y="1786" on="0"/>
        <pt x="262" y="1916" on="0"/>
        <pt x="482" y="1916" on="0"/>
        <pt x="625" y="1786" on="0"/>
        <pt x="625" y="1568" on="0"/>
        <pt x="482" y="1438" on="0"/>
        <pt x="262" y="1438" on="0"/>
      </contour>
      <contour>
        <pt x="372" y="1559" on="1"/>
        <pt x="411" y="1559" on="0"/>
        <pt x="450" y="1633" on="0"/>
        <pt x="450" y="1719" on="0"/>
        <pt x="411" y="1795" on="0"/>
        <pt x="372" y="1795" on="1"/>
        <pt x="332" y="1795" on="0"/>
        <pt x="291" y="1721" on="0"/>
        <pt x="291" y="1678" on="1"/>
        <pt x="291" y="1633" on="0"/>
        <pt x="331" y="1559" on="0"/>
      </contour>
    </TTGlyph>
</ttFont>
